{
.appVersion = "3208";
.formatVersion = 3;
DisplayStrings = (
Aq
);
axes = (
{
name = Scanlines;
tag = SCAN;
},
{
name = Bleed;
tag = BLED;
}
);
customParameters = (
{
name = "Write lastChange";
value = 0;
},
{
name = fsType;
value = (
);
},
{
name = postscriptIsFixedPitch;
value = 1;
},
{
name = panose;
value = (
2,
0,
0,
9,
0,
0,
0,
0,
0,
0
);
},
{
name = "Use Typo Metrics";
value = 1;
},
{
name = "Has WWS Names";
value = 1;
},
{
name = "meta Table";
value = (
{
data = Latn;
tag = dlng;
},
{
data = Latn;
tag = slng;
}
);
}
);
date = "2008-09-05 18:17:00 +0000";
familyName = Workbench;
featurePrefixes = (
{
automatic = 1;
code = "languagesystem DFLT dflt;
";
name = Languagesystems;
}
);
features = (
{
code = "sub A from [A.case];
sub E from [E.case];
sub I from [I.case];
sub N from [N.case];
sub O from [O.case];
sub U from [U.case];
sub Y from [Y.case];
sub one from [one.dnom onesuperior];
sub two from [two.dnom twosuperior];
sub three from [three.dnom threesuperior];
sub four from [four.dnom foursuperior];";
tag = aalt;
},
{
automatic = 1;
code = "sub one by onesuperior;
sub two by twosuperior;
sub three by threesuperior;
sub four by foursuperior;
";
disabled = 1;
tag = sups;
},
{
automatic = 1;
code = "sub one by one.dnom;
sub two by two.dnom;
sub three by three.dnom;
sub four by four.dnom;
";
disabled = 1;
tag = dnom;
},
{
automatic = 1;
code = "sub one slash four by onequarter;
sub one slash two by onehalf;
sub three slash four by threequarters;
";
disabled = 1;
tag = frac;
},
{
automatic = 1;
code = "sub [zero one two three four five six seven eight nine] [A a]' by ordfeminine;
sub [zero one two three four five six seven eight nine] [O o]' by ordmasculine;
";
disabled = 1;
tag = ordn;
},
{
automatic = 1;
code = "sub A by A.case;
sub E by E.case;
sub I by I.case;
sub N by N.case;
sub O by O.case;
sub U by U.case;
sub Y by Y.case;
";
disabled = 1;
tag = case;
}
);
fontMaster = (
{
axesValues = (
20,
0
);
customParameters = (
{

glyphs = (
{
glyphname = Ccedilla;
layers = (
{
layerId = "EF047752-ED93-49D3-A4D1-D66A6AAE90C7";
shapes = (
{
pos = (128,-128);
ref = pixel.2;
},
{
pos = (256,0);
ref = pixel.1;
},
{
pos = (128,128);
ref = pixel.4;
},
{
pos = (64,256);
ref = pixel.2;
},
{
pos = (320,256);
ref = pixel.2;
},
{
pos = (0,384);
ref = pixel.2;
},
{
pos = (0,512);
ref = pixel.2;
},
{
pos = (64,640);
ref = pixel.2;
},
{
pos = (320,640);
ref = pixel.2;
},
{
pos = (128,768);
ref = pixel.4;
}
);
width = 512;
},
{
background = {
shapes = (
{
closed = 1;
nodes = (
(137,-189,o),
(65,-115,o),
(65,-13,o),
(137,61,o),
(190,61,qs),
(194,61,ls),
(247,61,o),
(319,-13,o),
(319,-115,o),
(247,-189,o),
(194,-189,qs),
(190,-189,ls)
);
},
{
closed = 1;
nodes = (
(265,-61,o),
(193,13,o),
(193,115,o),
(265,189,o),
(318,189,qs),
(258,189,ls),
(311,189,o),
(383,115,o),
(383,13,o),
(311,-61,o),
(258,-61,qs),
(318,-61,ls)
);
},
{
closed = 1;
nodes = (
(145,67,o),
(65,141,o),
(65,243,o),
(145,317,o),
(215,317,qs),
(297,317,ls),
(367,317,o),
(447,243,o),
(447,141,o),
(367,67,o),
(297,67,qs),
(215,67,ls)
);
},
{
closed = 1;
nodes = (
(73,195,o),
(1,269,o),
(1,371,o),
(73,445,o),
(126,445,qs),
(130,445,ls),
(183,445,o),
(255,371,o),
(255,269,o),
(183,195,o),
(130,195,qs),
(126,195,ls)
);
},
{
closed = 1;
nodes = (
(329,195,o),
(257,269,o),
(257,371,o),
(329,445,o),
(382,445,qs),
(386,445,ls),
(439,445,o),
(511,371,o),
(511,269,o),
(439,195,o),
(386,195,qs),
(382,195,ls)
);
},
{
closed = 1;
nodes = (
(9,323,o),
(-63,397,o),
(-63,499,o),
(9,573,o),
(62,573,qs),
(66,573,ls),
(119,573,o),
(191,499,o),
(191,397,o),
(119,323,o),
(66,323,qs),
(62,323,ls)
);
},
{
closed = 1;
nodes = (
(9,451,o),
(-63,525,o),
(-63,627,o),
(9,701,o),
(62,701,qs),
(66,701,ls),
(119,701,o),
(191,627,o),
(191,525,o),
(119,451,o),
(66,451,qs),
(62,451,ls)
);
},
{
closed = 1;
nodes = (
(73,579,o),
(1,653,o),
(1,755,o),
(73,829,o),
(126,829,qs),
(130,829,ls),
(183,829,o),
(255,755,o),
(255,653,o),
(183,579,o),
(130,579,qs),
(126,579,ls)
);
},
{
closed = 1;
nodes = (
(329,579,o),
(257,653,o),
(257,755,o),
(329,829,o),
(382,829,qs),
(386,829,ls),
(439,829,o),
(511,755,o),
(511,653,o),
(439,579,o),
(386,579,qs),
(382,579,ls)
);
},
{
closed = 1;
nodes = (
(145,707,o),
(65,781,o),
(65,883,o),
(145,957,o),
(215,957,qs),
(297,957,ls),
(367,957,o),
(447,883,o),
(447,781,o),
(367,707,o),
(297,707,qs),
(215,707,ls)
);
}
);
};
layerId = "164C8123-3F0E-4C99-877D-0E85C432A9CE";
shapes = (
{
pos = (128,-128);
ref = pixel.2;
},
{
pos = (256,0);
ref = pixel.1;
},
{
pos = (128,128);
ref = pixel.4;
},
{
pos = (64,256);
ref = pixel.2;
},
{
pos = (320,256);
ref = pixel.2;
},
{
pos = (0,384);
ref = pixel.2;
},
{
pos = (0,512);
ref = pixel.2;
},
{
pos = (64,640);
ref = pixel.2;
},
{
pos = (320,640);
ref = pixel.2;
},
{
pos = (128,768);
ref = pixel.4;
}
);
width = 512;
},
{
layerId = "EDC3ADDC-530C-4ECE-AAC6-732B149A8D4A";
shapes = (
{
pos = (128,-128);
ref = pixel.2;
},
{
pos = (256,0);
ref = pixel.1;
},
{
pos = (128,128);
ref = pixel.4;
},
{
pos = (64,256);
ref = pixel.2;
},
{
pos = (320,256);
ref = pixel.2;
},
{
pos = (0,384);
ref = pixel.2;
},
{
pos = (0,512);
ref = pixel.2;
},
{
pos = (64,640);
ref = pixel.2;
},
{
pos = (320,640);
ref = pixel.2;
},
{
pos = (128,768);
ref = pixel.4;
}
);
width = 512;
},
{
layerId = "38088322-78A3-4F4F-B46E-F8355B0BCD96";
shapes = (
{
pos = (128,-128);
ref = pixel.2;
},
{
pos = (256,0);
ref = pixel.1;
},
{
pos = (128,128);
ref = pixel.4;
},
{
pos = (64,256);
ref = pixel.2;
},
{
pos = (320,256);
ref = pixel.2;
},
{
pos = (0,384);
ref = pixel.2;
},
{
pos = (0,512);
ref = pixel.2;
},
{
pos = (64,640);
ref = pixel.2;
},
{
pos = (320,640);
ref = pixel.2;
},
{
pos = (128,768);
ref = pixel.4;
}
);
width = 512;
}
);
unicode = 199;
},
{
glyphname = L;
layers = (
{
layerId = "EF047752-ED93-49D3-A4D1-D66A6AAE90C7";
shapes = (
{
ref = pixel.7;
},
{
pos = (64,128);
ref = pixel.2;
},
{
pos = (320,128);
ref = pixel.2;
},
{
pos = (64,256);
ref = pixel.2;
},
{
pos = (384,256);
ref = pixel.1;
},
{
pos = (64,384);
ref = pixel.2;
},
{
pos = (64,512);
ref = pixel.2;
},
{
pos = (64,640);
ref = pixel.2;
},
{
pos = (0,768);
ref = pixel.4;
}
);
width = 512;
},
{
background = {
shapes = (
{
closed = 1;
nodes = (
(17,-61,o),
(-63,13,o),
(-63,115,o),
(17,189,o),
(87,189,qs),
(361,189,ls),
(431,189,o),
(511,115,o),
(511,13,o),
(431,-61,o),
(361,-61,qs),
(87,-61,ls)
);
},
{
closed = 1;
nodes = (
(73,67,o),
(1,141,o),
(1,243,o),
(73,317,o),
(126,317,qs),
(130,317,ls),
(183,317,o),
(255,243,o),
(255,141,o),
(183,67,o),
(130,67,qs),
(126,67,ls)
);
},
{
closed = 1;
nodes = (
(329,67,o),
(257,141,o),
(257,243,o),
(329,317,o),
(382,317,qs),
(386,317,ls),
(439,317,o),
(511,243,o),
(511,141,o),
(439,67,o),
(386,67,qs),
(382,67,ls)
);
},
{
closed = 1;
nodes = (
(73,195,o),
(1,269,o),
(1,371,o),
(73,445,o),
(126,445,qs),
(130,445,ls),
(183,445,o),
(255,371,o),
(255,269,o),
(183,195,o),
(130,195,qs),
(126,195,ls)
);
},
{
closed = 1;
nodes = (
(393,195,o),
(321,269,o),
(321,371,o),
(393,445,o),
(446,445,qs),
(386,445,ls),
(439,445,o),
(511,371,o),
(511,269,o),
(439,195,o),
(386,195,qs),
(446,195,ls)
);
},
{
closed = 1;
nodes = (
(73,323,o),
(1,397,o),
(1,499,o),
(73,573,o),
(126,573,qs),
(130,573,ls),
(183,573,o),
(255,499,o),
(255,397,o),
(183,323,o),
(130,323,qs),
(126,323,ls)
);
},
{
closed = 1;
nodes = (
(73,451,o),
(1,525,o),
(1,627,o),
(73,701,o),
(126,701,qs),
(130,701,ls),
(183,701,o),
(255,627,o),
(255,525,o),
(183,451,o),
(130,451,qs),
(126,451,ls)
);
},
{
closed = 1;
nodes = (
(73,579,o),
(1,653,o),
(1,755,o),
(73,829,o),
(126,829,qs),
(130,829,ls),
(183,829,o),
(255,755,o),
(255,653,o),
(183,579,o),
(130,579,qs),
(126,579,ls)
);
},
{
closed = 1;
nodes = (
(17,707,o),
(-63,781,o),
(-63,883,o),
(17,957,o),
(87,957,qs),
(169,957,ls),
(239,957,o),
(319,883,o),
(319,781,o),
(239,707,o),
(169,707,qs),
(87,707,ls)
);
}
);
};
layerId = "164C8123-3F0E-4C99-877D-0E85C432A9CE";
shapes = (
{
ref = pixel.7;
},
{
pos = (64,128);
ref = pixel.2;
},
{
pos = (320,128);
ref = pixel.2;
},
{
pos = (64,256);
ref = pixel.2;
},
{
pos = (384,256);
ref = pixel.1;
},
{
pos = (64,384);
ref = pixel.2;
},
{
pos = (64,512);
ref = pixel.2;
},
{
pos = (64,640);
ref = pixel.2;
},
{
pos = (0,768);
ref = pixel.4;
}
);
width = 512;
},
{
layerId = "EDC3ADDC-530C-4ECE-AAC6-732B149A8D4A";
shapes = (
{
ref = pixel.7;
},
{
pos = (64,128);
ref = pixel.2;
},
{
pos = (320,128);
ref = pixel.2;
},
{
pos = (64,256);
ref = pixel.2;
},
{
pos = (384,256);
ref = pixel.1;
},
{
pos = (64,384);
ref = pixel.2;
},
{
pos = (64,512);
ref = pixel.2;
},
{
pos = (64,640);
ref = pixel.2;
},
{
pos = (0,768);
ref = pixel.4;
}
);
width = 512;
},
{
layerId = "38088322-78A3-4F4F-B46E-F8355B0BCD96";
shapes = (
{
ref = pixel.7;
},
{
pos = (64,128);
ref = pixel.2;
},
{
pos = (320,128);
ref = pixel.2;
},
{
pos = (64,256);
ref = pixel.2;
},
{
pos = (384,256);
ref = pixel.1;
},
{
pos = (64,384);
ref = pixel.2;
},
{
pos = (64,512);
ref = pixel.2;
},
{
pos = (64,640);
ref = pixel.2;
},
{
pos = (0,768);
ref = pixel.4;
}
);
width = 512;
}
);
unicode = 76;
},
{
glyphname = M;
layers = (
{
layerId = "EF047752-ED93-49D3-A4D1-D66A6AAE90C7";
shapes = (
{
ref = pixel.2;
},
{
pos = (320,0);
ref = pixel.2;
},
{
pos = (0,128);
ref = pixel.2;
},
{
pos = (320,128);
ref = pixel.2;
},
{
pos = (0,256);
ref = pixel.2;
},
{
pos = (192,256);
ref = pixel.1;
},
{
pos = (320,256);
ref = pixel.2;
},
{
pos = (0,384);
ref = pixel.7;
},
{
pos = (0,512);
ref = pixel.3;
},
{
pos = (256,512);
ref = pixel.3;
},
{
pos = (0,640);
ref = pixel.2;
},
{
pos = (320,640);
ref = pixel.2;
},
{
pos = (0,768);
ref = pixel.1;
},
{
pos = (384,768);
ref = pixel.1;
}
);
width = 512;
},
{
background = {
shapes = (
{
closed = 1;
nodes = (
(9,-61,o),
(-63,13,o),
(-63,115,o),
(9,189,o),
(62,189,qs),
(66,189,ls),
(119,189,o),
(191,115,o),
(191,13,o),
(119,-61,o),
(66,-61,qs),
(62,-61,ls)
);
},
{
closed = 1;
nodes = (
(329,-61,o),
(257,13,o),
(257,115,o),
(329,189,o),
(382,189,qs),
(386,189,ls),
(439,189,o),
(511,115,o),
(511,13,o),
(439,-61,o),
(386,-61,qs),
(382,-61,ls)
);
},
{
closed = 1;
nodes = (
(9,67,o),
(-63,141,o),
(-63,243,o),
(9,317,o),
(62,317,qs),
(66,317,ls),
(119,317,o),
(191,243,o),
(191,141,o),
(119,67,o),
(66,67,qs),
(62,67,ls)
);
},
{
closed = 1;
nodes = (
(329,67,o),
(257,141,o),
(257,243,o),
(329,317,o),
(382,317,qs),
(386,317,ls),
(439,317,o),
(511,243,o),
(511,141,o),
(439,67,o),
(386,67,qs),
(382,67,ls)
);
},
{
closed = 1;
nodes = (
(9,195,o),
(-63,269,o),
(-63,371,o),
(9,445,o),
(62,445,qs),
(66,445,ls),
(119,445,o),
(191,371,o),
(191,269,o),
(119,195,o),
(66,195,qs),
(62,195,ls)
);
},
{
closed = 1;
nodes = (
(201,195,o),
(129,269,o),
(129,371,o),
(201,445,o),
(254,445,qs),
(194,445,ls),
(247,445,o),
(319,371,o),
(319,269,o),
(247,195,o),
(194,195,qs),
(254,195,ls)
);
},
{
closed = 1;
nodes = (
(329,195,o),
(257,269,o),
(257,371,o),
(329,445,o),
(382,445,qs),
(386,445,ls),
(439,445,o),
(511,371,o),
(511,269,o),
(439,195,o),
(386,195,qs),
(382,195,ls)
);
},
{
closed = 1;
nodes = (
(17,323,o),
(-63,397,o),
(-63,499,o),
(17,573,o),
(87,573,qs),
(361,573,ls),
(431,573,o),
(511,499,o),
(511,397,o),
(431,323,o),
(361,323,qs),
(87,323,ls)
);
},
{
closed = 1;
nodes = (
(9,451,o),
(-63,525,o),
(-63,627,o),
(9,701,o),
(62,701,qs),
(130,701,ls),
(183,701,o),
(255,627,o),
(255,525,o),
(183,451,o),
(130,451,qs),
(62,451,ls)
);
},
{
closed = 1;
nodes = (
(265,451,o),
(193,525,o),
(193,627,o),
(265,701,o),
(318,701,qs),
(386,701,ls),
(439,701,o),
(511,627,o),
(511,525,o),
(439,451,o),
(386,451,qs),
(318,451,ls)
);
},
{
closed = 1;
nodes = (
(9,579,o),
(-63,653,o),
(-63,755,o),
(9,829,o),
(62,829,qs),
(66,829,ls),
(119,829,o),
(191,755,o),
(191,653,o),
(119,579,o),
(66,579,qs),
(62,579,ls)
);
},
{
closed = 1;
nodes = (
(329,579,o),
(257,653,o),
(257,755,o),
(329,829,o),
(382,829,qs),
(386,829,ls),
(439,829,o),
(511,755,o),
(511,653,o),
(439,579,o),
(386,579,qs),
(382,579,ls)
);
},
{
closed = 1;
nodes = (
(9,707,o),
(-63,781,o),
(-63,883,o),
(9,957,o),
(62,957,qs),
(2,957,ls),
(55,957,o),
(127,883,o),
(127,781,o),
(55,707,o),
(2,707,qs),
(62,707,ls)
);
},
{
closed = 1;
nodes = (
(393,707,o),
(321,781,o),
(321,883,o),
(393,957,o),
(446,957,qs),
(386,957,ls),
(439,957,o),
(511,883,o),
(511,781,o),
(439,707,o),
(386,707,qs),
(446,707,ls)
);
}
);
};
layerId = "164C8123-3F0E-4C99-877D-0E85C432A9CE";
shapes = (
{
ref = pixel.2;
},
{
pos = (320,0);
ref = pixel.2;
},
{
pos = (0,128);
ref = pixel.2;
},
{
pos = (320,128);
ref = pixel.2;
},
{
pos = (0,256);
ref = pixel.2;
},
{
pos = (192,256);
ref = pixel.1;
},
{
pos = (320,256);
ref = pixel.2;
},
{
pos = (0,384);
ref = pixel.7;
},
{
pos = (0,512);
ref = pixel.3;
},
{
pos = (256,512);
ref = pixel.3;
},
{
pos = (0,640);
ref = pixel.2;
},
{
pos = (320,640);
ref = pixel.2;
},
{
pos = (0,768);
ref = pixel.1;
},
{
pos = (384,768);
ref = pixel.1;
}
);
width = 512;
},
{
layerId = "EDC3ADDC-530C-4ECE-AAC6-732B149A8D4A";
shapes = (
{
ref = pixel.2;
},
{
pos = (320,0);
ref = pixel.2;
},
{
pos = (0,128);
ref = pixel.2;
},
{
pos = (320,128);
ref = pixel.2;
},
{
pos = (0,256);
ref = pixel.2;
},
{
pos = (192,256);
ref = pixel.1;
},
{
pos = (320,256);
ref = pixel.2;
},
{
pos = (0,384);
ref = pixel.7;
},
{
pos = (0,512);
ref = pixel.3;
},
{
pos = (256,512);
ref = pixel.3;
},
{
pos = (0,640);
ref = pixel.2;
},
{
pos = (320,640);
ref = pixel.2;
},
{
pos = (0,768);
ref = pixel.1;
},
{
pos = (384,768);
ref = pixel.1;
}
);
width = 512;
},
{
layerId = "38088322-78A3-4F4F-B46E-F8355B0BCD96";
shapes = (
{
ref = pixel.2;
},
{
pos = (320,0);
ref = pixel.2;
},
{
pos = (0,128);
ref = pixel.2;
},
{
pos = (320,128);
ref = pixel.2;
},
{
pos = (0,256);
ref = pixel.2;
},
{
pos = (192,256);
ref = pixel.1;
},
{
pos = (320,256);
ref = pixel.2;
},
{
pos = (0,384);
ref = pixel.7;
},
{
pos = (0,512);
ref = pixel.3;
},
{
pos = (256,512);
ref = pixel.3;
},
{
pos = (0,640);
ref = pixel.2;
},
{
pos = (320,640);
ref = pixel.2;
},
{
pos = (0,768);
ref = pixel.1;
},
{
pos = (384,768);
ref = pixel.1;
}
);
width = 512;
}
);
unicode = 77;
},
{
glyphname = Oslash;
layers = (
{
layerId = "EF047752-ED93-49D3-A4D1-D66A6AAE90C7";
shapes = (
{
ref = pixel.1;
},
{
pos = (128,0);
ref = pixel.4;
},
{
pos = (64,128);
ref = pixel.2;
},
{
pos = (320,128);
ref = pixel.2;
},
{
pos = (0,256);
ref = pixel.4;
},
{
pos = (384,256);
ref = pixel.2;
},
{
pos = (0,384);
ref = pixel.2;
},
{
pos = (192,384);
ref = pixel.2;
},
{
pos = (384,384);
ref = pixel.2;
},
{
pos = (0,512);
ref = pixel.2;
},
{
pos = (256,512);
ref = pixel.4;
},
{
pos = (64,640);
ref = pixel.2;
},
{
pos = (320,640);
ref = pixel.2;
},
{
pos = (128,768);
ref = pixel.4;
},
{
pos = (448,768);
ref = pixel.1;
}
);
width = 512;
},
{
background = {
shapes = (
{
closed = 1;
nodes = (
(9,-61,o),
(-63,13,o),
(-63,115,o),
(9,189,o),
(62,189,qs),
(2,189,ls),
(55,189,o),
(127,115,o),
(127,13,o),
(55,-61,o),
(2,-61,qs),
(62,-61,ls)
);
},
{
closed = 1;
nodes = (
(145,-61,o),
(65,13,o),
(65,115,o),
(145,189,o),
(215,189,qs),
(297,189,ls),
(367,189,o),
(447,115,o),
(447,13,o),
(367,-61,o),
(297,-61,qs),
(215,-61,ls)
);
},
{
closed = 1;
nodes = (
(73,67,o),
(1,141,o),
(1,243,o),
(73,317,o),
(126,317,qs),
(130,317,ls),
(183,317,o),
(255,243,o),
(255,141,o),
(183,67,o),
(130,67,qs),
(126,67,ls)
);
},
{
closed = 1;
nodes = (
(329,67,o),
(257,141,o),
(257,243,o),
(329,317,o),
(382,317,qs),
(386,317,ls),
(439,317,o),
(511,243,o),
(511,141,o),
(439,67,o),
(386,67,qs),
(382,67,ls)
);
},
{
closed = 1;
nodes = (
(17,195,o),
(-63,269,o),
(-63,371,o),
(17,445,o),
(87,445,qs),
(169,445,ls),
(239,445,o),
(319,371,o),
(319,269,o),
(239,195,o),
(169,195,qs),
(87,195,ls)
);
},
{
closed = 1;
nodes = (
(393,195,o),
(321,269,o),
(321,371,o),
(393,445,o),
(446,445,qs),
(450,445,ls),
(503,445,o),
(575,371,o),
(575,269,o),
(503,195,o),
(450,195,qs),
(446,195,ls)
);
},
{
closed = 1;
nodes = (
(9,323,o),
(-63,397,o),
(-63,499,o),
(9,573,o),
(62,573,qs),
(66,573,ls),
(119,573,o),
(191,499,o),
(191,397,o),
(119,323,o),
(66,323,qs),
(62,323,ls)
);
},
{
closed = 1;
nodes = (
(201,323,o),
(129,397,o),
(129,499,o),
(201,573,o),
(254,573,qs),
(258,573,ls),
(311,573,o),
(383,499,o),
(383,397,o),
(311,323,o),
(258,323,qs),
(254,323,ls)
);
},
{
closed = 1;
nodes = (
(393,323,o),
(321,397,o),
(321,499,o),
(393,573,o),
(446,573,qs),
(450,573,ls),
(503,573,o),
(575,499,o),
(575,397,o),
(503,323,o),
(450,323,qs),
(446,323,ls)
);
},
{
closed = 1;
nodes = (
(9,451,o),
(-63,525,o),
(-63,627,o),
(9,701,o),
(62,701,qs),
(66,701,ls),
(119,701,o),
(191,627,o),
(191,525,o),
(119,451,o),
(66,451,qs),
(62,451,ls)
);
},
{
closed = 1;
nodes = (
(273,451,o),
(193,525,o),
(193,627,o),
(273,701,o),
(343,701,qs),
(425,701,ls),
(495,701,o),
(575,627,o),
(575,525,o),
(495,451,o),
(425,451,qs),
(343,451,ls)
);
},
{
closed = 1;
nodes = (
(73,579,o),
(1,653,o),
(1,755,o),
(73,829,o),
(126,829,qs),
(130,829,ls),
(183,829,o),
(255,755,o),
(255,653,o),
(183,579,o),
(130,579,qs),
(126,579,ls)
);
},
{
closed = 1;
nodes = (
(329,579,o),
(257,653,o),
(257,755,o),
(329,829,o),
(382,829,qs),
(386,829,ls),
(439,829,o),
(511,755,o),
(511,653,o),
(439,579,o),
(386,579,qs),
(382,579,ls)
);
},
{
closed = 1;
nodes = (
(145,707,o),
(65,781,o),
(65,883,o),
(145,957,o),
(215,957,qs),
(297,957,ls),
(367,957,o),
(447,883,o),
(447,781,o),
(367,707,o),
(297,707,qs),
(215,707,ls)
);
},
{
closed = 1;
nodes = (
(457,707,o),
(385,781,o),
(385,883,o),
(457,957,o),
(510,957,qs),
(450,957,ls),
(503,957,o),
(575,883,o),
(575,781,o),
(503,707,o),
(450,707,qs),
(510,707,ls)
);
}
);
};
layerId = "164C8123-3F0E-4C99-877D-0E85C432A9CE";
shapes = (
{
ref = pixel.1;
},
{
pos = (128,0);
ref = pixel.4;
},
{
pos = (64,128);
ref = pixel.2;
},
{
pos = (320,128);
ref = pixel.2;
},
{
pos = (0,256);
ref = pixel.4;
},
{
pos = (384,256);
ref = pixel.2;
},
{
pos = (0,384);
ref = pixel.2;
},
{
pos = (192,384);
ref = pixel.2;
},
{
pos = (384,384);
ref = pixel.2;
},
{
pos = (0,512);
ref = pixel.2;
},
{
pos = (256,512);
ref = pixel.4;
},
{
pos = (64,640);
ref = pixel.2;
},
{
pos = (320,640);
ref = pixel.2;
},
{
pos = (128,768);
ref = pixel.4;
},
{
pos = (448,768);
ref = pixel.1;
}
);
width = 512;
},
{
layerId = "EDC3ADDC-530C-4ECE-AAC6-732B149A8D4A";
shapes = (
{
ref = pixel.1;
},
{
pos = (128,0);
ref = pixel.4;
},
{
pos = (64,128);
ref = pixel.2;
},
{
pos = (320,128);
ref = pixel.2;
},
{
pos = (0,256);
ref = pixel.4;
},
{
pos = (384,256);
ref = pixel.2;
},
{
pos = (0,384);
ref = pixel.2;
},
{
pos = (192,384);
ref = pixel.2;
},
{
pos = (384,384);
ref = pixel.2;
},
{
pos = (0,512);
ref = pixel.2;
},
{
pos = (256,512);
ref = pixel.4;
},
{
pos = (64,640);
ref = pixel.2;
},
{
pos = (320,640);
ref = pixel.2;
},
{
pos = (128,768);
ref = pixel.4;
},
{
pos = (448,768);
ref = pixel.1;
}
);
width = 512;
},
{
layerId = "38088322-78A3-4F4F-B46E-F8355B0BCD96";
shapes = (
{
ref = pixel.1;
},
{
pos = (128,0);
ref = pixel.4;
},
{
pos = (64,128);
ref = pixel.2;
},
{
pos = (320,128);
ref = pixel.2;
},
{
pos = (0,256);
ref = pixel.4;
},
{
pos = (384,256);
ref = pixel.2;
},
{
pos = (0,384);
ref = pixel.2;
},
{
pos = (192,384);
ref = pixel.2;
},
{
pos = (384,384);
ref = pixel.2;
},
{
pos = (0,512);
ref = pixel.2;
},
{
pos = (256,512);
ref = pixel.4;
},
{
pos = (64,640);
ref = pixel.2;
},
{
pos = (320,640);
ref = pixel.2;
},
{
pos = (128,768);
ref = pixel.4;
},
{
pos = (448,768);
ref = pixel.1;
}
);
width = 512;
}
);
unicode = 216;
},
{
glyphname = T;
layers = (
{
layerId = "EF047752-ED93-49D3-A4D1-D66A6AAE90C7";
shapes = (
{
pos = (128,0);
ref = pixel.4;
},
{
pos = (192,128);
ref = pixel.2;
},
{
pos = (192,256);
ref = pixel.2;
},
{
pos = (192,384);
ref = pixel.2;
},
{
pos = (192,512);
ref = pixel.2;
},
{
pos = (64,640);
ref = pixel.1;
},
{
pos = (192,640);
ref = pixel.2;
},
{
pos = (384,640);
ref = pixel.1;
},
{
pos = (64,768);
ref = pixel.6;
}
);
width = 512;
},
{
background = {
shapes = (
{
closed = 1;
nodes = (
(145,-61,o),
(65,13,o),
(65,115,o),
(145,189,o),
(215,189,qs),
(297,189,ls),
(367,189,o),
(447,115,o),
(447,13,o),
(367,-61,o),
(297,-61,qs),
(215,-61,ls)
);
},
{
closed = 1;
nodes = (
(201,67,o),
(129,141,o),
(129,243,o),
(201,317,o),
(254,317,qs),
(258,317,ls),
(311,317,o),
(383,243,o),
(383,141,o),
(311,67,o),
(258,67,qs),
(254,67,ls)
);
},
{
closed = 1;
nodes = (
(201,195,o),
(129,269,o),
(129,371,o),
(201,445,o),
(254,445,qs),
(258,445,ls),
(311,445,o),
(383,371,o),
(383,269,o),
(311,195,o),
(258,195,qs),
(254,195,ls)
);
},
{
closed = 1;
nodes = (
(201,323,o),
(129,397,o),
(129,499,o),
(201,573,o),
(254,573,qs),
(258,573,ls),
(311,573,o),
(383,499,o),
(383,397,o),
(311,323,o),
(258,323,qs),
(254,323,ls)
);
},
{
closed = 1;
nodes = (
(201,451,o),
(129,525,o),
(129,627,o),
(201,701,o),
(254,701,qs),
(258,701,ls),
(311,701,o),
(383,627,o),
(383,525,o),
(311,451,o),
(258,451,qs),
(254,451,ls)
);
},
{
closed = 1;
nodes = (
(73,579,o),
(1,653,o),
(1,755,o),
(73,829,o),
(126,829,qs),
(66,829,ls),
(119,829,o),
(191,755,o),
(191,653,o),
(119,579,o),
(66,579,qs),
(126,579,ls)
);
},
{
closed = 1;
nodes = (
(201,579,o),
(129,653,o),
(129,755,o),
(201,829,o),
(254,829,qs),
(258,829,ls),
(311,829,o),
(383,755,o),
(383,653,o),
(311,579,o),
(258,579,qs),
(254,579,ls)
);
},
{
closed = 1;
nodes = (
(393,579,o),
(321,653,o),
(321,755,o),
(393,829,o),
(446,829,qs),
(386,829,ls),
(439,829,o),
(511,755,o),
(511,653,o),
(439,579,o),
(386,579,qs),
(446,579,ls)
);
},
{
closed = 1;
nodes = (
(81,707,o),
(1,781,o),
(1,883,o),
(81,957,o),
(151,957,qs),
(361,957,ls),
(431,957,o),
(511,883,o),
(511,781,o),
(431,707,o),
(361,707,qs),
(151,707,ls)
);
}
);
};
layerId = "164C8123-3F0E-4C99-877D-0E85C432A9CE";
shapes = (
{
pos = (128,0);
ref = pixel.4;
},
{
pos = (192,128);
ref = pixel.2;
},
{
pos = (192,256);
ref = pixel.2;
},
{
pos = (192,384);
ref = pixel.2;
},
{
pos = (192,512);
ref = pixel.2;
},
{
pos = (64,640);
ref = pixel.1;
},
{
pos = (192,640);
ref = pixel.2;
},
{
pos = (384,640);
ref = pixel.1;
},
{
pos = (64,768);
ref = pixel.6;
}
);
width = 512;
},
{
layerId = "EDC3ADDC-530C-4ECE-AAC6-732B149A8D4A";
shapes = (
{
pos = (128,0);
ref = pixel.4;
},
{
pos = (192,128);
ref = pixel.2;
},
{
pos = (192,256);
ref = pixel.2;
},
{
pos = (192,384);
ref = pixel.2;
},
{
pos = (192,512);
ref = pixel.2;
},
{
pos = (64,640);
ref = pixel.1;
},
{
pos = (192,640);
ref = pixel.2;
},
{
pos = (384,640);
ref = pixel.1;
},
{
pos = (64,768);
ref = pixel.6;
}
);
width = 512;
},
{
layerId = "38088322-78A3-4F4F-B46E-F8355B0BCD96";
shapes = (
{
pos = (128,0);
ref = pixel.4;
},
{
pos = (192,128);
ref = pixel.2;
},
{
pos = (192,256);
ref = pixel.2;
},
{
pos = (192,384);
ref = pixel.2;
},
{
pos = (192,512);
ref = pixel.2;
},
{
pos = (64,640);
ref = pixel.1;
},
{
pos = (192,640);
ref = pixel.2;
},
{
pos = (384,640);
ref = pixel.1;
},
{
pos = (64,768);
ref = pixel.6;
}
);
width = 512;
}
);
unicode = 84;
},
{
glyphname = W;
layers = (
{
layerId = "EF047752-ED93-49D3-A4D1-D66A6AAE90C7";
shapes = (
{
ref = pixel.2;
},
{
pos = (320,0);
ref = pixel.2;
},
{
pos = (0,128);
ref = pixel.3;
},
{
pos = (256,128);
ref = pixel.3;
},
{
pos = (0,256);
ref = pixel.7;
},
{
pos = (0,384);
ref = pixel.2;
},
{
pos = (192,384);
ref = pixel.1;
},
{
pos = (320,384);
ref = pixel.2;
},
{
pos = (0,512);
ref = pixel.2;
},
{
pos = (320,512);
ref = pixel.2;
},
{
pos = (0,640);
ref = pixel.2;
},
{
pos = (320,640);
ref = pixel.2;
},
{
pos = (0,768);
ref = pixel.2;
},
{
pos = (320,768);
ref = pixel.2;
}
);
width = 512;
},
{
background = {
shapes = (
{
closed = 1;
nodes = (
(9,-61,o),
(-63,13,o),
(-63,115,o),
(9,189,o),
(62,189,qs),
(66,189,ls),
(119,189,o),
(191,115,o),
(191,13,o),
(119,-61,o),
(66,-61,qs),
(62,-61,ls)
);
},
{
closed = 1;
nodes = (
(329,-61,o),
(257,13,o),
(257,115,o),
(329,189,o),
(382,189,qs),
(386,189,ls),
(439,189,o),
(511,115,o),
(511,13,o),
(439,-61,o),
(386,-61,qs),
(382,-61,ls)
);
},
{
closed = 1;
nodes = (
(9,67,o),
(-63,141,o),
(-63,243,o),
(9,317,o),
(62,317,qs),
(130,317,ls),
(183,317,o),
(255,243,o),
(255,141,o),
(183,67,o),
(130,67,qs),
(62,67,ls)
);
},
{
closed = 1;
nodes = (
(265,67,o),
(193,141,o),
(193,243,o),
(265,317,o),
(318,317,qs),
(386,317,ls),
(439,317,o),
(511,243,o),
(511,141,o),
(439,67,o),
(386,67,qs),
(318,67,ls)
);
},
{
closed = 1;
nodes = (
(17,195,o),
(-63,269,o),
(-63,371,o),
(17,445,o),
(87,445,qs),
(361,445,ls),
(431,445,o),
(511,371,o),
(511,269,o),
(431,195,o),
(361,195,qs),
(87,195,ls)
);
},
{
closed = 1;
nodes = (
(9,323,o),
(-63,397,o),
(-63,499,o),
(9,573,o),
(62,573,qs),
(66,573,ls),
(119,573,o),
(191,499,o),
(191,397,o),
(119,323,o),
(66,323,qs),
(62,323,ls)
);
},
{
closed = 1;
nodes = (
(201,323,o),
(129,397,o),
(129,499,o),
(201,573,o),
(254,573,qs),
(194,573,ls),
(247,573,o),
(319,499,o),
(319,397,o),
(247,323,o),
(194,323,qs),
(254,323,ls)
);
},
{
closed = 1;
nodes = (
(329,323,o),
(257,397,o),
(257,499,o),
(329,573,o),
(382,573,qs),
(386,573,ls),
(439,573,o),
(511,499,o),
(511,397,o),
(439,323,o),
(386,323,qs),
(382,323,ls)
);
},
{
closed = 1;
nodes = (
(9,451,o),
(-63,525,o),
(-63,627,o),
(9,701,o),
(62,701,qs),
(66,701,ls),
(119,701,o),
(191,627,o),
(191,525,o),
(119,451,o),
(66,451,qs),
(62,451,ls)
);
},
{
closed = 1;
nodes = (
(329,451,o),
(257,525,o),
(257,627,o),
(329,701,o),
(382,701,qs),
(386,701,ls),
(439,701,o),
(511,627,o),
(511,525,o),
(439,451,o),
(386,451,qs),
(382,451,ls)
);
},
{
closed = 1;
nodes = (
(9,579,o),
(-63,653,o),
(-63,755,o),
(9,829,o),
(62,829,qs),
(66,829,ls),
(119,829,o),
(191,755,o),
(191,653,o),
(119,579,o),
(66,579,qs),
(62,579,ls)
);
},
{
closed = 1;
nodes = (
(329,579,o),
(257,653,o),
(257,755,o),
(329,829,o),
(382,829,qs),
(386,829,ls),
(439,829,o),
(511,755,o),
(511,653,o),
(439,579,o),
(386,579,qs),
(382,579,ls)
);
},
{
closed = 1;
nodes = (
(9,707,o),
(-63,781,o),
(-63,883,o),
(9,957,o),
(62,957,qs),
(66,957,ls),
(119,957,o),
(191,883,o),
(191,781,o),
(119,707,o),
(66,707,qs),
(62,707,ls)
);
},
{
closed = 1;
nodes = (
(329,707,o),
(257,781,o),
(257,883,o),
(329,957,o),
(382,957,qs),
(386,957,ls),
(439,957,o),
(511,883,o),
(511,781,o),
(439,707,o),
(386,707,qs),
(382,707,ls)
);
}
);
};
layerId = "164C8123-3F0E-4C99-877D-0E85C432A9CE";
shapes = (
{
ref = pixel.2;
},
{
pos = (320,0);
ref = pixel.2;
},
{
pos = (0,128);
ref = pixel.3;
},
{
pos = (256,128);
ref = pixel.3;
},
{
pos = (0,256);
ref = pixel.7;
},
{
pos = (0,384);
ref = pixel.2;
},
{
pos = (192,384);
ref = pixel.1;
},
{
pos = (320,384);
ref = pixel.2;
},
{
pos = (0,512);
ref = pixel.2;
},
{
pos = (320,512);
ref = pixel.2;
},
{
pos = (0,640);
ref = pixel.2;
},
{
pos = (320,640);
ref = pixel.2;
},
{
pos = (0,768);
ref = pixel.2;
},
{
pos = (320,768);
ref = pixel.2;
}
);
width = 512;
},
{
layerId = "EDC3ADDC-530C-4ECE-AAC6-732B149A8D4A";
shapes = (
{
ref = pixel.2;
},
{
pos = (320,0);
ref = pixel.2;
},
{
pos = (0,128);
ref = pixel.3;
},
{
pos = (256,128);
ref = pixel.3;
},
{
pos = (0,256);
ref = pixel.7;
},
{
pos = (0,384);
ref = pixel.2;
},
{
pos = (192,384);
ref = pixel.1;
},
{
pos = (320,384);
ref = pixel.2;
},
{
pos = (0,512);
ref = pixel.2;
},
{
pos = (320,512);
ref = pixel.2;
},
{
pos = (0,640);
ref = pixel.2;
},
{
pos = (320,640);
ref = pixel.2;
},
{
pos = (0,768);
ref = pixel.2;
},
{
pos = (320,768);
ref = pixel.2;
}
);
width = 512;
},
{
layerId = "38088322-78A3-4F4F-B46E-F8355B0BCD96";
shapes = (
{
ref = pixel.2;
},
{
pos = (320,0);
ref = pixel.2;
},
{
pos = (0,128);
ref = pixel.3;
},
{
pos = (256,128);
ref = pixel.3;
},
{
pos = (0,256);
ref = pixel.7;
},
{
pos = (0,384);
ref = pixel.2;
},
{
pos = (192,384);
ref = pixel.1;
},
{
pos = (320,384);
ref = pixel.2;
},
{
pos = (0,512);
ref = pixel.2;
},
{
pos = (320,512);
ref = pixel.2;
},
{
pos = (0,640);
ref = pixel.2;
},
{
pos = (320,640);
ref = pixel.2;
},
{
pos = (0,768);
ref = pixel.2;
},
{
pos = (320,768);
ref = pixel.2;
}
);
width = 512;
}
);
unicode = 87;
},
{
glyphname = Z;
layers = (
{
layerId = "EF047752-ED93-49D3-A4D1-D66A6AAE90C7";
shapes = (
{
ref = pixel.7;
},
{
pos = (64,128);
ref = pixel.2;
},
{
pos = (320,128);
ref = pixel.2;
},
{
pos = (128,256);
ref = pixel.2;
},
{
pos = (384,256);
ref = pixel.1;
},
{
pos = (192,384);
ref = pixel.2;
},
{
pos = (0,512);
ref = pixel.1;
},
{
pos = (256,512);
ref = pixel.2;
},
{
pos = (0,640);
ref = pixel.2;
},
{
pos = (320,640);
ref = pixel.2;
},
{
pos = (0,768);
ref = pixel.7;
}
);
width = 512;
},
{
background = {
shapes = (
{
closed = 1;
nodes = (
(17,-61,o),
(-63,13,o),
(-63,115,o),
(17,189,o),
(87,189,qs),
(361,189,ls),
(431,189,o),
(511,115,o),
(511,13,o),
(431,-61,o),
(361,-61,qs),
(87,-61,ls)
);
},
{
closed = 1;
nodes = (
(73,67,o),
(1,141,o),
(1,243,o),
(73,317,o),
(126,317,qs),
(130,317,ls),
(183,317,o),
(255,243,o),
(255,141,o),
(183,67,o),
(130,67,qs),
(126,67,ls)
);
},
{
closed = 1;
nodes = (
(329,67,o),
(257,141,o),
(257,243,o),
(329,317,o),
(382,317,qs),
(386,317,ls),
(439,317,o),
(511,243,o),
(511,141,o),
(439,67,o),
(386,67,qs),
(382,67,ls)
);
},
{
closed = 1;
nodes = (
(137,195,o),
(65,269,o),
(65,371,o),
(137,445,o),
(190,445,qs),
(194,445,ls),
(247,445,o),
(319,371,o),
(319,269,o),
(247,195,o),
(194,195,qs),
(190,195,ls)
);
},
{
closed = 1;
nodes = (
(393,195,o),
(321,269,o),
(321,371,o),
(393,445,o),
(446,445,qs),
(386,445,ls),
(439,445,o),
(511,371,o),
(511,269,o),
(439,195,o),
(386,195,qs),
(446,195,ls)
);
},
{
closed = 1;
nodes = (
(201,323,o),
(129,397,o),
(129,499,o),
(201,573,o),
(254,573,qs),
(258,573,ls),
(311,573,o),
(383,499,o),
(383,397,o),
(311,323,o),
(258,323,qs),
(254,323,ls)
);
},
{
closed = 1;
nodes = (
(9,451,o),
(-63,525,o),
(-63,627,o),
(9,701,o),
(62,701,qs),
(2,701,ls),
(55,701,o),
(127,627,o),
(127,525,o),
(55,451,o),
(2,451,qs),
(62,451,ls)
);
},
{
closed = 1;
nodes = (
(265,451,o),
(193,525,o),
(193,627,o),
(265,701,o),
(318,701,qs),
(322,701,ls),
(375,701,o),
(447,627,o),
(447,525,o),
(375,451,o),
(322,451,qs),
(318,451,ls)
);
},
{
closed = 1;
nodes = (
(9,579,o),
(-63,653,o),
(-63,755,o),
(9,829,o),
(62,829,qs),
(66,829,ls),
(119,829,o),
(191,755,o),
(191,653,o),
(119,579,o),
(66,579,qs),
(62,579,ls)
);
},
{
closed = 1;
nodes = (
(329,579,o),
(257,653,o),
(257,755,o),
(329,829,o),
(382,829,qs),
(386,829,ls),
(439,829,o),
(511,755,o),
(511,653,o),
(439,579,o),
(386,579,qs),
(382,579,ls)
);
},
{
closed = 1;
nodes = (
(17,707,o),
(-63,781,o),
(-63,883,o),
(17,957,o),
(87,957,qs),
(361,957,ls),
(431,957,o),
(511,883,o),
(511,781,o),
(431,707,o),
(361,707,qs),
(87,707,ls)
);
}
);
};
layerId = "164C8123-3F0E-4C99-877D-0E85C432A9CE";
shapes = (
{
ref = pixel.7;
},
{
pos = (64,128);
ref = pixel.2;
},
{
pos = (320,128);
ref = pixel.2;
},
{
pos = (128,256);
ref = pixel.2;
},
{
pos = (384,256);
ref = pixel.1;
},
{
pos = (192,384);
ref = pixel.2;
},
{
pos = (0,512);
ref = pixel.1;
},
{
pos = (256,512);
ref = pixel.2;
},
{
pos = (0,640);
ref = pixel.2;
},
{
pos = (320,640);
ref = pixel.2;
},
{
pos = (0,768);
ref = pixel.7;
}
);
width = 512;
},
{
layerId = "EDC3ADDC-530C-4ECE-AAC6-732B149A8D4A";
shapes = (
{
ref = pixel.7;
},
{
pos = (64,128);
ref = pixel.2;
},
{
pos = (320,128);
ref = pixel.2;
},
{
pos = (128,256);
ref = pixel.2;
},
{
pos = (384,256);
ref = pixel.1;
},
{
pos = (192,384);
ref = pixel.2;
},
{
pos = (0,512);
ref = pixel.1;
},
{
pos = (256,512);
ref = pixel.2;
},
{
pos = (0,640);
ref = pixel.2;
},
{
pos = (320,640);
ref = pixel.2;
},
{
pos = (0,768);
ref = pixel.7;
}
);
width = 512;
},
{
layerId = "38088322-78A3-4F4F-B46E-F8355B0BCD96";
shapes = (
{
ref = pixel.7;
},
{
pos = (64,128);
ref = pixel.2;
},
{
pos = (320,128);
ref = pixel.2;
},
{
pos = (128,256);
ref = pixel.2;
},
{
pos = (384,256);
ref = pixel.1;
},
{
pos = (192,384);
ref = pixel.2;
},
{
pos = (0,512);
ref = pixel.1;
},
{
pos = (256,512);
ref = pixel.2;
},
{
pos = (0,640);
ref = pixel.2;
},
{
pos = (320,640);
ref = pixel.2;
},
{
pos = (0,768);
ref = pixel.7;
}
);
width = 512;
}
);
unicode = 90;
},
{
glyphname = ccedilla;
layers = (
{
layerId = "EF047752-ED93-49D3-A4D1-D66A6AAE90C7";
shapes = (
{
pos = (192,-128);
ref = pixel.1;
},
{
pos = (128,0);
ref = pixel.4;
},
{
pos = (64,128);
ref = pixel.2;
},
{
pos = (320,128);
ref = pixel.2;
},
{
pos = (64,256);
ref = pixel.2;
},
{
pos = (64,384);
ref = pixel.2;
},
{
pos = (320,384);
ref = pixel.2;
},
{
pos = (128,512);
ref = pixel.4;
}
);
width = 512;
},
{
background = {
shapes = (
{
closed = 1;
nodes = (
(201,-189,o),
(129,-115,o),
(129,-13,o),
(201,61,o),
(254,61,qs),
(194,61,ls),
(247,61,o),
(319,-13,o),
(319,-115,o),
(247,-189,o),
(194,-189,qs),
(254,-189,ls)
);
},
{
closed = 1;
nodes = (
(145,-61,o),
(65,13,o),
(65,115,o),
(145,189,o),
(215,189,qs),
(297,189,ls),
(367,189,o),
(447,115,o),
(447,13,o),
(367,-61,o),
(297,-61,qs),
(215,-61,ls)
);
},
{
closed = 1;
nodes = (
(73,67,o),
(1,141,o),
(1,243,o),
(73,317,o),
(126,317,qs),
(130,317,ls),
(183,317,o),
(255,243,o),
(255,141,o),
(183,67,o),
(130,67,qs),
(126,67,ls)
);
},
{
closed = 1;
nodes = (
(329,67,o),
(257,141,o),
(257,243,o),
(329,317,o),
(382,317,qs),
(386,317,ls),
(439,317,o),
(511,243,o),
(511,141,o),
(439,67,o),
(386,67,qs),
(382,67,ls)
);
},
{
closed = 1;
nodes = (
(73,195,o),
(1,269,o),
(1,371,o),
(73,445,o),
(126,445,qs),
(130,445,ls),
(183,445,o),
(255,371,o),
(255,269,o),
(183,195,o),
(130,195,qs),
(126,195,ls)
);
},
{
closed = 1;
nodes = (
(73,323,o),
(1,397,o),
(1,499,o),
(73,573,o),
(126,573,qs),
(130,573,ls),
(183,573,o),
(255,499,o),
(255,397,o),
(183,323,o),
(130,323,qs),
(126,323,ls)
);
},
{
closed = 1;
nodes = (
(329,323,o),
(257,397,o),
(257,499,o),
(329,573,o),
(382,573,qs),
(386,573,ls),
(439,573,o),
(511,499,o),
(511,397,o),
(439,323,o),
(386,323,qs),
(382,323,ls)
);
},
{
closed = 1;
nodes = (
(145,451,o),
(65,525,o),
(65,627,o),
(145,701,o),
(215,701,qs),
(297,701,ls),
(367,701,o),
(447,627,o),
(447,525,o),
(367,451,o),
(297,451,qs),
(215,451,ls)
);
}
);
};
layerId = "164C8123-3F0E-4C99-877D-0E85C432A9CE";
shapes = (
{
pos = (192,-128);
ref = pixel.1;
},
{
pos = (128,0);
ref = pixel.4;
},
{
pos = (64,128);
ref = pixel.2;
},
{
pos = (320,128);
ref = pixel.2;
},
{
pos = (64,256);
ref = pixel.2;
},
{
pos = (64,384);
ref = pixel.2;
},
{
pos = (320,384);
ref = pixel.2;
},
{
pos = (128,512);
ref = pixel.4;
}
);
width = 512;
},
{
layerId = "EDC3ADDC-530C-4ECE-AAC6-732B149A8D4A";
shapes = (
{
pos = (192,-128);
ref = pixel.1;
},
{
pos = (128,0);
ref = pixel.4;
},
{
pos = (64,128);
ref = pixel.2;
},
{
pos = (320,128);
ref = pixel.2;
},
{
pos = (64,256);
ref = pixel.2;
},
{
pos = (64,384);
ref = pixel.2;
},
{
pos = (320,384);
ref = pixel.2;
},
{
pos = (128,512);
ref = pixel.4;
}
);
width = 512;
},
{
layerId = "38088322-78A3-4F4F-B46E-F8355B0BCD96";
shapes = (
{
pos = (192,-128);
ref = pixel.1;
},
{
pos = (128,0);
ref = pixel.4;
},
{
pos = (64,128);
ref = pixel.2;
},
{
pos = (320,128);
ref = pixel.2;
},
{
pos = (64,256);
ref = pixel.2;
},
{
pos = (64,384);
ref = pixel.2;
},
{
pos = (320,384);
ref = pixel.2;
},
{
pos = (128,512);
ref = pixel.4;
}
);
width = 512;
}
);
unicode = 231;
},
{
glyphname = m;
layers = (
{
layerId = "EF047752-ED93-49D3-A4D1-D66A6AAE90C7";
shapes = (
{
pos = (64,0);
ref = pixel.2;
},
{
pos = (384,0);
ref = pixel.2;
},
{
pos = (64,128);
ref = pixel.2;
},
{
pos = (384,128);
ref = pixel.2;
},
{
pos = (64,256);
ref = pixel.2;
},
{
pos = (256,256);
ref = pixel.1;
},
{
pos = (384,256);
ref = pixel.2;
},
{
pos = (64,384);
ref = pixel.3;
},
{
pos = (320,384);
ref = pixel.3;
},
{
pos = (64,512);
ref = pixel.2;
},
{
pos = (320,512);
ref = pixel.2;
}
);
width = 512;
},
{
background = {
shapes = (
{
closed = 1;
nodes = (
(73,-61,o),
(1,13,o),
(1,115,o),
(73,189,o),
(126,189,qs),
(130,189,ls),
(183,189,o),
(255,115,o),
(255,13,o),
(183,-61,o),
(130,-61,qs),
(126,-61,ls)
);
},
{
closed = 1;
nodes = (
(393,-61,o),
(321,13,o),
(321,115,o),
(393,189,o),
(446,189,qs),
(450,189,ls),
(503,189,o),
(575,115,o),
(575,13,o),
(503,-61,o),
(450,-61,qs),
(446,-61,ls)
);
},
{
closed = 1;
nodes = (
(73,67,o),
(1,141,o),
(1,243,o),
(73,317,o),
(126,317,qs),
(130,317,ls),
(183,317,o),
(255,243,o),
(255,141,o),
(183,67,o),
(130,67,qs),
(126,67,ls)
);
},
{
closed = 1;
nodes = (
(393,67,o),
(321,141,o),
(321,243,o),
(393,317,o),
(446,317,qs),
(450,317,ls),
(503,317,o),
(575,243,o),
(575,141,o),
(503,67,o),
(450,67,qs),
(446,67,ls)
);
},
{
closed = 1;
nodes = (
(73,195,o),
(1,269,o),
(1,371,o),
(73,445,o),
(126,445,qs),
(130,445,ls),
(183,445,o),
(255,371,o),
(255,269,o),
(183,195,o),
(130,195,qs),
(126,195,ls)
);
},
{
closed = 1;
nodes = (
(265,195,o),
(193,269,o),
(193,371,o),
(265,445,o),
(318,445,qs),
(258,445,ls),
(311,445,o),
(383,371,o),
(383,269,o),
(311,195,o),
(258,195,qs),
(318,195,ls)
);
},
{
closed = 1;
nodes = (
(393,195,o),
(321,269,o),
(321,371,o),
(393,445,o),
(446,445,qs),
(450,445,ls),
(503,445,o),
(575,371,o),
(575,269,o),
(503,195,o),
(450,195,qs),
(446,195,ls)
);
},
{
closed = 1;
nodes = (
(73,323,o),
(1,397,o),
(1,499,o),
(73,573,o),
(126,573,qs),
(194,573,ls),
(247,573,o),
(319,499,o),
(319,397,o),
(247,323,o),
(194,323,qs),
(126,323,ls)
);
},
{
closed = 1;
nodes = (
(329,323,o),
(257,397,o),
(257,499,o),
(329,573,o),
(382,573,qs),
(450,573,ls),
(503,573,o),
(575,499,o),
(575,397,o),
(503,323,o),
(450,323,qs),
(382,323,ls)
);
},
{
closed = 1;
nodes = (
(73,451,o),
(1,525,o),
(1,627,o),
(73,701,o),
(126,701,qs),
(130,701,ls),
(183,701,o),
(255,627,o),
(255,525,o),
(183,451,o),
(130,451,qs),
(126,451,ls)
);
},
{
closed = 1;
nodes = (
(329,451,o),
(257,525,o),
(257,627,o),
(329,701,o),
(382,701,qs),
(386,701,ls),
(439,701,o),
(511,627,o),
(511,525,o),
(439,451,o),
(386,451,qs),
(382,451,ls)
);
}
);
};
layerId = "164C8123-3F0E-4C99-877D-0E85C432A9CE";
shapes = (
{
pos = (64,0);
ref = pixel.2;
},
{
pos = (384,0);
ref = pixel.2;
},
{
pos = (64,128);
ref = pixel.2;
},
{
pos = (384,128);
ref = pixel.2;
},
{
pos = (64,256);
ref = pixel.2;
},
{
pos = (256,256);
ref = pixel.1;
},
{
pos = (384,256);
ref = pixel.2;
},
{
pos = (64,384);
ref = pixel.3;
},
{
pos = (320,384);
ref = pixel.3;
},
{
pos = (64,512);
ref = pixel.2;
},
{
pos = (320,512);
ref = pixel.2;
}
);
width = 512;
},
{
layerId = "EDC3ADDC-530C-4ECE-AAC6-732B149A8D4A";
shapes = (
{
pos = (64,0);
ref = pixel.2;
},
{
pos = (384,0);
ref = pixel.2;
},
{
pos = (64,128);
ref = pixel.2;
},
{
pos = (384,128);
ref = pixel.2;
},
{
pos = (64,256);
ref = pixel.2;
},
{
pos = (256,256);
ref = pixel.1;
},
{
pos = (384,256);
ref = pixel.2;
},
{
pos = (64,384);
ref = pixel.3;
},
{
pos = (320,384);
ref = pixel.3;
},
{
pos = (64,512);
ref = pixel.2;
},
{
pos = (320,512);
ref = pixel.2;
}
);
width = 512;
},
{
layerId = "38088322-78A3-4F4F-B46E-F8355B0BCD96";
shapes = (
{
pos = (64,0);
ref = pixel.2;
},
{
pos = (384,0);
ref = pixel.2;
},
{
pos = (64,128);
ref = pixel.2;
},
{
pos = (384,128);
ref = pixel.2;
},
{
pos = (64,256);
ref = pixel.2;
},
{
pos = (256,256);
ref = pixel.1;
},
{
pos = (384,256);
ref = pixel.2;
},
{
pos = (64,384);
ref = pixel.3;
},
{
pos = (320,384);
ref = pixel.3;
},
{
pos = (64,512);
ref = pixel.2;
},
{
pos = (320,512);
ref = pixel.2;
}
);
width = 512;
}
);
unicode = 109;
},
{
glyphname = oslash;
layers = (
{
layerId = "EF047752-ED93-49D3-A4D1-D66A6AAE90C7";
shapes = (
{
pos = (64,-128);
ref = pixel.1;
},
{
pos = (128,0);
ref = pixel.5;
},
{
pos = (64,128);
ref = pixel.3;
},
{
pos = (384,128);
ref = pixel.2;
},
{
pos = (64,256);
ref = pixel.2;
},
{
pos = (256,256);
ref = pixel.1;
},
{
pos = (384,256);
ref = pixel.2;
},
{
pos = (64,384);
ref = pixel.2;
},
{
pos = (320,384);
ref = pixel.3;
},
{
pos = (128,512);
ref = pixel.5;
},
{
pos = (448,640);
ref = pixel.1;
}
);
width = 512;
},
{
background = {
shapes = (
{
closed = 1;
nodes = (
(73,-189,o),
(1,-115,o),
(1,-13,o),
(73,61,o),
(126,61,qs),
(66,61,ls),
(119,61,o),
(191,-13,o),
(191,-115,o),
(119,-189,o),
(66,-189,qs),
(126,-189,ls)
);
},
{
closed = 1;
nodes = (
(145,-61,o),
(65,13,o),
(65,115,o),
(145,189,o),
(215,189,qs),
(361,189,ls),
(431,189,o),
(511,115,o),
(511,13,o),
(431,-61,o),
(361,-61,qs),
(215,-61,ls)
);
},
{
closed = 1;
nodes = (
(73,67,o),
(1,141,o),
(1,243,o),
(73,317,o),
(126,317,qs),
(194,317,ls),
(247,317,o),
(319,243,o),
(319,141,o),
(247,67,o),
(194,67,qs),
(126,67,ls)
);
},
{
closed = 1;
nodes = (
(393,67,o),
(321,141,o),
(321,243,o),
(393,317,o),
(446,317,qs),
(450,317,ls),
(503,317,o),
(575,243,o),
(575,141,o),
(503,67,o),
(450,67,qs),
(446,67,ls)
);
},
{
closed = 1;
nodes = (
(73,195,o),
(1,269,o),
(1,371,o),
(73,445,o),
(126,445,qs),
(130,445,ls),
(183,445,o),
(255,371,o),
(255,269,o),
(183,195,o),
(130,195,qs),
(126,195,ls)
);
},
{
closed = 1;
nodes = (
(265,195,o),
(193,269,o),
(193,371,o),
(265,445,o),
(318,445,qs),
(258,445,ls),
(311,445,o),
(383,371,o),
(383,269,o),
(311,195,o),
(258,195,qs),
(318,195,ls)
);
},
{
closed = 1;
nodes = (
(393,195,o),
(321,269,o),
(321,371,o),
(393,445,o),
(446,445,qs),
(450,445,ls),
(503,445,o),
(575,371,o),
(575,269,o),
(503,195,o),
(450,195,qs),
(446,195,ls)
);
},
{
closed = 1;
nodes = (
(73,323,o),
(1,397,o),
(1,499,o),
(73,573,o),
(126,573,qs),
(130,573,ls),
(183,573,o),
(255,499,o),
(255,397,o),
(183,323,o),
(130,323,qs),
(126,323,ls)
);
},
{
closed = 1;
nodes = (
(329,323,o),
(257,397,o),
(257,499,o),
(329,573,o),
(382,573,qs),
(450,573,ls),
(503,573,o),
(575,499,o),
(575,397,o),
(503,323,o),
(450,323,qs),
(382,323,ls)
);
},
{
closed = 1;
nodes = (
(145,451,o),
(65,525,o),
(65,627,o),
(145,701,o),
(215,701,qs),
(361,701,ls),
(431,701,o),
(511,627,o),
(511,525,o),
(431,451,o),
(361,451,qs),
(215,451,ls)
);
},
{
closed = 1;
nodes = (
(457,579,o),
(385,653,o),
(385,755,o),
(457,829,o),
(510,829,qs),
(450,829,ls),
(503,829,o),
(575,755,o),
(575,653,o),
(503,579,o),
(450,579,qs),
(510,579,ls)
);
}
);
};
layerId = "164C8123-3F0E-4C99-877D-0E85C432A9CE";
shapes = (
{
pos = (64,-128);
ref = pixel.1;
},
{
pos = (128,0);
ref = pixel.5;
},
{
pos = (64,128);
ref = pixel.3;
},
{
pos = (384,128);
ref = pixel.2;
},
{
pos = (64,256);
ref = pixel.2;
},
{
pos = (256,256);
ref = pixel.1;
},
{
pos = (384,256);
ref = pixel.2;
},
{
pos = (64,384);
ref = pixel.2;
},
{
pos = (320,384);
ref = pixel.3;
},
{
pos = (128,512);
ref = pixel.5;
},
{
pos = (448,640);
ref = pixel.1;
}
);
width = 512;
},
{
layerId = "EDC3ADDC-530C-4ECE-AAC6-732B149A8D4A";
shapes = (
{
pos = (64,-128);
ref = pixel.1;
},
{
pos = (128,0);
ref = pixel.5;
},
{
pos = (64,128);
ref = pixel.3;
},
{
pos = (384,128);
ref = pixel.2;
},
{
pos = (64,256);
ref = pixel.2;
},
{
pos = (256,256);
ref = pixel.1;
},
{
pos = (384,256);
ref = pixel.2;
},
{
pos = (64,384);
ref = pixel.2;
},
{
pos = (320,384);
ref = pixel.3;
},
{
pos = (128,512);
ref = pixel.5;
},
{
pos = (448,640);
ref = pixel.1;
}
);
width = 512;
},
{
layerId = "38088322-78A3-4F4F-B46E-F8355B0BCD96";
shapes = (
{
pos = (64,-128);
ref = pixel.1;
},
{
pos = (128,0);
ref = pixel.5;
},
{
pos = (64,128);
ref = pixel.3;
},
{
pos = (384,128);
ref = pixel.2;
},
{
pos = (64,256);
ref = pixel.2;
},
{
pos = (256,256);
ref = pixel.1;
},
{
pos = (384,256);
ref = pixel.2;
},
{
pos = (64,384);
ref = pixel.2;
},
{
pos = (320,384);
ref = pixel.3;
},
{
pos = (128,512);
ref = pixel.5;
},
{
pos = (448,640);
ref = pixel.1;
}
);
width = 512;
}
);
unicode = 248;
},
{
glyphname = q;
layers = (
{
layerId = "EF047752-ED93-49D3-A4D1-D66A6AAE90C7";
shapes = (
{
pos = (256,-128);
ref = pixel.4;
},
{
pos = (320,0);
ref = pixel.2;
},
{
pos = (128,128);
ref = pixel.5;
},
{
pos = (64,256);
ref = pixel.2;
},
{
pos = (320,256);
ref = pixel.2;
},
{
pos = (64,384);
ref = pixel.2;
},
{
pos = (320,384);
ref = pixel.2;
},
{
pos = (128,512);
ref = pixel.4;
},
{
pos = (448,512);
ref = pixel.1;
}
);
width = 512;
},
{
background = {
shapes = (
{
closed = 1;
nodes = (
(273,-189,o),
(193,-115,o),
(193,-13,o),
(273,61,o),
(343,61,qs),
(425,61,ls),
(495,61,o),
(575,-13,o),
(575,-115,o),
(495,-189,o),
(425,-189,qs),
(343,-189,ls)
);
},
{
closed = 1;
nodes = (
(329,-61,o),
(257,13,o),
(257,115,o),
(329,189,o),
(382,189,qs),
(386,189,ls),
(439,189,o),
(511,115,o),
(511,13,o),
(439,-61,o),
(386,-61,qs),
(382,-61,ls)
);
},
{
closed = 1;
nodes = (
(145,67,o),
(65,141,o),
(65,243,o),
(145,317,o),
(215,317,qs),
(361,317,ls),
(431,317,o),
(511,243,o),
(511,141,o),
(431,67,o),
(361,67,qs),
(215,67,ls)
);
},
{
closed = 1;
nodes = (
(73,195,o),
(1,269,o),
(1,371,o),
(73,445,o),
(126,445,qs),
(130,445,ls),
(183,445,o),
(255,371,o),
(255,269,o),
(183,195,o),
(130,195,qs),
(126,195,ls)
);
},
{
closed = 1;
nodes = (
(329,195,o),
(257,269,o),
(257,371,o),
(329,445,o),
(382,445,qs),
(386,445,ls),
(439,445,o),
(511,371,o),
(511,269,o),
(439,195,o),
(386,195,qs),
(382,195,ls)
);
},
{
closed = 1;
nodes = (
(73,323,o),
(1,397,o),
(1,499,o),
(73,573,o),
(126,573,qs),
(130,573,ls),
(183,573,o),
(255,499,o),
(255,397,o),
(183,323,o),
(130,323,qs),
(126,323,ls)
);
},
{
closed = 1;
nodes = (
(329,323,o),
(257,397,o),
(257,499,o),
(329,573,o),
(382,573,qs),
(386,573,ls),
(439,573,o),
(511,499,o),
(511,397,o),
(439,323,o),
(386,323,qs),
(382,323,ls)
);
},
{
closed = 1;
nodes = (
(145,451,o),
(65,525,o),
(65,627,o),
(145,701,o),
(215,701,qs),
(297,701,ls),
(367,701,o),
(447,627,o),
(447,525,o),
(367,451,o),
(297,451,qs),
(215,451,ls)
);
},
{
closed = 1;
nodes = (
(457,451,o),
(385,525,o),
(385,627,o),
(457,701,o),
(510,701,qs),
(450,701,ls),
(503,701,o),
(575,627,o),
(575,525,o),
(503,451,o),
(450,451,qs),
(510,451,ls)
);
}
);
};
layerId = "164C8123-3F0E-4C99-877D-0E85C432A9CE";
shapes = (
{
pos = (256,-128);
ref = pixel.4;
},
{
pos = (320,0);
ref = pixel.2;
},
{
pos = (128,128);
ref = pixel.5;
},
{
pos = (64,256);
ref = pixel.2;
},
{
pos = (320,256);
ref = pixel.2;
},
{
pos = (64,384);
ref = pixel.2;
},
{
pos = (320,384);
ref = pixel.2;
},
{
pos = (128,512);
ref = pixel.4;
},
{
pos = (448,512);
ref = pixel.1;
}
);
width = 512;
},
{
layerId = "EDC3ADDC-530C-4ECE-AAC6-732B149A8D4A";
shapes = (
{
pos = (256,-128);
ref = pixel.4;
},
{
pos = (320,0);
ref = pixel.2;
},
{
pos = (128,128);
ref = pixel.5;
},
{
pos = (64,256);
ref = pixel.2;
},
{
pos = (320,256);
ref = pixel.2;
},
{
pos = (64,384);
ref = pixel.2;
},
{
pos = (320,384);
ref = pixel.2;
},
{
pos = (128,512);
ref = pixel.4;
},
{
pos = (448,512);
ref = pixel.1;
}
);
width = 512;
},
{
layerId = "38088322-78A3-4F4F-B46E-F8355B0BCD96";
shapes = (
{
pos = (256,-128);
ref = pixel.4;
},
{
pos = (320,0);
ref = pixel.2;
},
{
pos = (128,128);
ref = pixel.5;
},
{
pos = (64,256);
ref = pixel.2;
},
{
pos = (320,256);
ref = pixel.2;
},
{
pos = (64,384);
ref = pixel.2;
},
{
pos = (320,384);
ref = pixel.2;
},
{
pos = (128,512);
ref = pixel.4;
},
{
pos = (448,512);
ref = pixel.1;
}
);
width = 512;
}
);
unicode = 113;
},
{
glyphname = t;
layers = (
{
layerId = "EF047752-ED93-49D3-A4D1-D66A6AAE90C7";
shapes = (
{
pos = (256,0);
ref = pixel.2;
},
{
pos = (192,128);
ref = pixel.2;
},
{
pos = (384,128);
ref = pixel.1;
},
{
pos = (192,256);
ref = pixel.2;
},
{
pos = (192,384);
ref = pixel.2;
},
{
pos = (128,512);
ref = pixel.5;
},
{
pos = (192,640);
ref = pixel.2;
},
{
pos = (256,768);
ref = pixel.1;
}
);
width = 512;
},
{
background = {
shapes = (
{
closed = 1;
nodes = (
(265,-61,o),
(193,13,o),
(193,115,o),
(265,189,o),
(318,189,qs),
(322,189,ls),
(375,189,o),
(447,115,o),
(447,13,o),
(375,-61,o),
(322,-61,qs),
(318,-61,ls)
);
},
{
closed = 1;
nodes = (
(201,67,o),
(129,141,o),
(129,243,o),
(201,317,o),
(254,317,qs),
(258,317,ls),
(311,317,o),
(383,243,o),
(383,141,o),
(311,67,o),
(258,67,qs),
(254,67,ls)
);
},
{
closed = 1;
nodes = (
(393,67,o),
(321,141,o),
(321,243,o),
(393,317,o),
(446,317,qs),
(386,317,ls),
(439,317,o),
(511,243,o),
(511,141,o),
(439,67,o),
(386,67,qs),
(446,67,ls)
);
},
{
closed = 1;
nodes = (
(201,195,o),
(129,269,o),
(129,371,o),
(201,445,o),
(254,445,qs),
(258,445,ls),
(311,445,o),
(383,371,o),
(383,269,o),
(311,195,o),
(258,195,qs),
(254,195,ls)
);
},
{
closed = 1;
nodes = (
(201,323,o),
(129,397,o),
(129,499,o),
(201,573,o),
(254,573,qs),
(258,573,ls),
(311,573,o),
(383,499,o),
(383,397,o),
(311,323,o),
(258,323,qs),
(254,323,ls)
);
},
{
closed = 1;
nodes = (
(145,451,o),
(65,525,o),
(65,627,o),
(145,701,o),
(215,701,qs),
(361,701,ls),
(431,701,o),
(511,627,o),
(511,525,o),
(431,451,o),
(361,451,qs),
(215,451,ls)
);
},
{
closed = 1;
nodes = (
(201,579,o),
(129,653,o),
(129,755,o),
(201,829,o),
(254,829,qs),
(258,829,ls),
(311,829,o),
(383,755,o),
(383,653,o),
(311,579,o),
(258,579,qs),
(254,579,ls)
);
},
{
closed = 1;
nodes = (
(265,707,o),
(193,781,o),
(193,883,o),
(265,957,o),
(318,957,qs),
(258,957,ls),
(311,957,o),
(383,883,o),
(383,781,o),
(311,707,o),
(258,707,qs),
(318,707,ls)
);
}
);
};
layerId = "164C8123-3F0E-4C99-877D-0E85C432A9CE";
shapes = (
{
pos = (256,0);
ref = pixel.2;
},
{
pos = (192,128);
ref = pixel.2;
},
{
pos = (384,128);
ref = pixel.1;
},
{
pos = (192,256);
ref = pixel.2;
},
{
pos = (192,384);
ref = pixel.2;
},
{
pos = (128,512);
ref = pixel.5;
},
{
pos = (192,640);
ref = pixel.2;
},
{
pos = (256,768);
ref = pixel.1;
}
);
width = 512;
},
{
layerId = "EDC3ADDC-530C-4ECE-AAC6-732B149A8D4A";
shapes = (
{
pos = (256,0);
ref = pixel.2;
},
{
pos = (192,128);
ref = pixel.2;
},
{
pos = (384,128);
ref = pixel.1;
},
{
pos = (192,256);
ref = pixel.2;
},
{
pos = (192,384);
ref = pixel.2;
},
{
pos = (128,512);
ref = pixel.5;
},
{
pos = (192,640);
ref = pixel.2;
},
{
pos = (256,768);
ref = pixel.1;
}
);
width = 512;
},
{
layerId = "38088322-78A3-4F4F-B46E-F8355B0BCD96";
shapes = (
{
pos = (256,0);
ref = pixel.2;
},
{
pos = (192,128);
ref = pixel.2;
},
{
pos = (384,128);
ref = pixel.1;
},
{
pos = (192,256);
ref = pixel.2;
},
{
pos = (192,384);
ref = pixel.2;
},
{
pos = (128,512);
ref = pixel.5;
},
{
pos = (192,640);
ref = pixel.2;
},
{
pos = (256,768);
ref = pixel.1;
}
);
width = 512;
}
);
unicode = 116;
},
{
glyphname = w;
layers = (
{
layerId = "EF047752-ED93-49D3-A4D1-D66A6AAE90C7";
shapes = (
{
pos = (128,0);
ref = pixel.2;
},
{
pos = (320,0);
ref = pixel.2;
},
{
pos = (128,128);
ref = pixel.2;
},
{
pos = (320,128);
ref = pixel.2;
},
{
pos = (64,256);
ref = pixel.2;
},
{
pos = (256,256);
ref = pixel.1;
},
{
pos = (384,256);
ref = pixel.2;
},
{
pos = (64,384);
ref = pixel.2;
},
{
pos = (256,384);
ref = pixel.1;
},
{
pos = (384,384);
ref = pixel.2;
},
{
pos = (64,512);
ref = pixel.2;
},
{
pos = (384,512);
ref = pixel.2;
}
);
width = 512;
},
{
background = {
shapes = (
{
closed = 1;
nodes = (
(137,-61,o),
(65,13,o),
(65,115,o),
(137,189,o),
(190,189,qs),
(194,189,ls),
(247,189,o),
(319,115,o),
(319,13,o),
(247,-61,o),
(194,-61,qs),
(190,-61,ls)
);
},
{
closed = 1;
nodes = (
(329,-61,o),
(257,13,o),
(257,115,o),
(329,189,o),
(382,189,qs),
(386,189,ls),
(439,189,o),
(511,115,o),
(511,13,o),
(439,-61,o),
(386,-61,qs),
(382,-61,ls)
);
},
{
closed = 1;
nodes = (
(137,67,o),
(65,141,o),
(65,243,o),
(137,317,o),
(190,317,qs),
(194,317,ls),
(247,317,o),
(319,243,o),
(319,141,o),
(247,67,o),
(194,67,qs),
(190,67,ls)
);
},
{
closed = 1;
nodes = (
(329,67,o),
(257,141,o),
(257,243,o),
(329,317,o),
(382,317,qs),
(386,317,ls),
(439,317,o),
(511,243,o),
(511,141,o),
(439,67,o),
(386,67,qs),
(382,67,ls)
);
},
{
closed = 1;
nodes = (
(73,195,o),
(1,269,o),
(1,371,o),
(73,445,o),
(126,445,qs),
(130,445,ls),
(183,445,o),
(255,371,o),
(255,269,o),
(183,195,o),
(130,195,qs),
(126,195,ls)
);
},
{
closed = 1;
nodes = (
(265,195,o),
(193,269,o),
(193,371,o),
(265,445,o),
(318,445,qs),
(258,445,ls),
(311,445,o),
(383,371,o),
(383,269,o),
(311,195,o),
(258,195,qs),
(318,195,ls)
);
},
{
closed = 1;
nodes = (
(393,195,o),
(321,269,o),
(321,371,o),
(393,445,o),
(446,445,qs),
(450,445,ls),
(503,445,o),
(575,371,o),
(575,269,o),
(503,195,o),
(450,195,qs),
(446,195,ls)
);
},
{
closed = 1;
nodes = (
(73,323,o),
(1,397,o),
(1,499,o),
(73,573,o),
(126,573,qs),
(130,573,ls),
(183,573,o),
(255,499,o),
(255,397,o),
(183,323,o),
(130,323,qs),
(126,323,ls)
);
},
{
closed = 1;
nodes = (
(265,323,o),
(193,397,o),
(193,499,o),
(265,573,o),
(318,573,qs),
(258,573,ls),
(311,573,o),
(383,499,o),
(383,397,o),
(311,323,o),
(258,323,qs),
(318,323,ls)
);
},
{
closed = 1;
nodes = (
(393,323,o),
(321,397,o),
(321,499,o),
(393,573,o),
(446,573,qs),
(450,573,ls),
(503,573,o),
(575,499,o),
(575,397,o),
(503,323,o),
(450,323,qs),
(446,323,ls)
);
},
{
closed = 1;
nodes = (
(73,451,o),
(1,525,o),
(1,627,o),
(73,701,o),
(126,701,qs),
(130,701,ls),
(183,701,o),
(255,627,o),
(255,525,o),
(183,451,o),
(130,451,qs),
(126,451,ls)
);
},
{
closed = 1;
nodes = (
(393,451,o),
(321,525,o),
(321,627,o),
(393,701,o),
(446,701,qs),
(450,701,ls),
(503,701,o),
(575,627,o),
(575,525,o),
(503,451,o),
(450,451,qs),
(446,451,ls)
);
}
);
};
layerId = "164C8123-3F0E-4C99-877D-0E85C432A9CE";
shapes = (
{
pos = (128,0);
ref = pixel.2;
},
{
pos = (320,0);
ref = pixel.2;
},
{
pos = (128,128);
ref = pixel.2;
},
{
pos = (320,128);
ref = pixel.2;
},
{
pos = (64,256);
ref = pixel.2;
},
{
pos = (256,256);
ref = pixel.1;
},
{
pos = (384,256);
ref = pixel.2;
},
{
pos = (64,384);
ref = pixel.2;
},
{
pos = (256,384);
ref = pixel.1;
},
{
pos = (384,384);
ref = pixel.2;
},
{
pos = (64,512);
ref = pixel.2;
},
{
pos = (384,512);
ref = pixel.2;
}
);
width = 512;
},
{
layerId = "EDC3ADDC-530C-4ECE-AAC6-732B149A8D4A";
shapes = (
{
pos = (128,0);
ref = pixel.2;
},
{
pos = (320,0);
ref = pixel.2;
},
{
pos = (128,128);
ref = pixel.2;
},
{
pos = (320,128);
ref = pixel.2;
},
{
pos = (64,256);
ref = pixel.2;
},
{
pos = (256,256);
ref = pixel.1;
},
{
pos = (384,256);
ref = pixel.2;
},
{
pos = (64,384);
ref = pixel.2;
},
{
pos = (256,384);
ref = pixel.1;
},
{
pos = (384,384);
ref = pixel.2;
},
{
pos = (64,512);
ref = pixel.2;
},
{
pos = (384,512);
ref = pixel.2;
}
);
width = 512;
},
{
layerId = "38088322-78A3-4F4F-B46E-F8355B0BCD96";
shapes = (
{
pos = (128,0);
ref = pixel.2;
},
{
pos = (320,0);
ref = pixel.2;
},
{
pos = (128,128);
ref = pixel.2;
},
{
pos = (320,128);
ref = pixel.2;
},
{
pos = (64,256);
ref = pixel.2;
},
{
pos = (256,256);
ref = pixel.1;
},
{
pos = (384,256);
ref = pixel.2;
},
{
pos = (64,384);
ref = pixel.2;
},
{
pos = (256,384);
ref = pixel.1;
},
{
pos = (384,384);
ref = pixel.2;
},
{
pos = (64,512);
ref = pixel.2;
},
{
pos = (384,512);
ref = pixel.2;
}
);
width = 512;
}
);
unicode = 119;
},
{
glyphname = z;
layers = (
{
layerId = "EF047752-ED93-49D3-A4D1-D66A6AAE90C7";
shapes = (
{
pos = (64,0);
ref = pixel.6;
},
{
pos = (128,128);
ref = pixel.2;
},
{
pos = (384,128);
ref = pixel.1;
},
{
pos = (192,256);
ref = pixel.2;
},
{
pos = (64,384);
ref = pixel.1;
},
{
pos = (256,384);
ref = pixel.2;
},
{
pos = (64,512);
ref = pixel.6;
}
);
width = 512;
},
{
background = {
shapes = (
{
closed = 1;
nodes = (
(81,-61,o),
(1,13,o),
(1,115,o),
(81,189,o),
(151,189,qs),
(361,189,ls),
(431,189,o),
(511,115,o),
(511,13,o),
(431,-61,o),
(361,-61,qs),
(151,-61,ls)
);
},
{
closed = 1;
nodes = (
(137,67,o),
(65,141,o),
(65,243,o),
(137,317,o),
(190,317,qs),
(194,317,ls),
(247,317,o),
(319,243,o),
(319,141,o),
(247,67,o),
(194,67,qs),
(190,67,ls)
);
},
{
closed = 1;
nodes = (
(393,67,o),
(321,141,o),
(321,243,o),
(393,317,o),
(446,317,qs),
(386,317,ls),
(439,317,o),
(511,243,o),
(511,141,o),
(439,67,o),
(386,67,qs),
(446,67,ls)
);
},
{
closed = 1;
nodes = (
(201,195,o),
(129,269,o),
(129,371,o),
(201,445,o),
(254,445,qs),
(258,445,ls),
(311,445,o),
(383,371,o),
(383,269,o),
(311,195,o),
(258,195,qs),
(254,195,ls)
);
},
{
closed = 1;
nodes = (
(73,323,o),
(1,397,o),
(1,499,o),
(73,573,o),
(126,573,qs),
(66,573,ls),
(119,573,o),
(191,499,o),
(191,397,o),
(119,323,o),
(66,323,qs),
(126,323,ls)
);
},
{
closed = 1;
nodes = (
(265,323,o),
(193,397,o),
(193,499,o),
(265,573,o),
(318,573,qs),
(322,573,ls),
(375,573,o),
(447,499,o),
(447,397,o),
(375,323,o),
(322,323,qs),
(318,323,ls)
);
},
{
closed = 1;
nodes = (
(81,451,o),
(1,525,o),
(1,627,o),
(81,701,o),
(151,701,qs),
(361,701,ls),
(431,701,o),
(511,627,o),
(511,525,o),
(431,451,o),
(361,451,qs),
(151,451,ls)
);
}
);
};
layerId = "164C8123-3F0E-4C99-877D-0E85C432A9CE";
shapes = (
{
pos = (64,0);
ref = pixel.6;
},
{
pos = (128,128);
ref = pixel.2;
},
{
pos = (384,128);
ref = pixel.1;
},
{
pos = (192,256);
ref = pixel.2;
},
{
pos = (64,384);
ref = pixel.1;
},
{
pos = (256,384);
ref = pixel.2;
},
{
pos = (64,512);
ref = pixel.6;
}
);
width = 512;
},
{
layerId = "EDC3ADDC-530C-4ECE-AAC6-732B149A8D4A";
shapes = (
{
pos = (64,0);
ref = pixel.6;
},
{
pos = (128,128);
ref = pixel.2;
},
{
pos = (384,128);
ref = pixel.1;
},
{
pos = (192,256);
ref = pixel.2;
},
{
pos = (64,384);
ref = pixel.1;
},
{
pos = (256,384);
ref = pixel.2;
},
{
pos = (64,512);
ref = pixel.6;
}
);
width = 512;
},
{
layerId = "38088322-78A3-4F4F-B46E-F8355B0BCD96";
shapes = (
{
pos = (64,0);
ref = pixel.6;
},
{
pos = (128,128);
ref = pixel.2;
},
{
pos = (384,128);
ref = pixel.1;
},
{
pos = (192,256);
ref = pixel.2;
},
{
pos = (64,384);
ref = pixel.1;
},
{
pos = (256,384);
ref = pixel.2;
},
{
pos = (64,512);
ref = pixel.6;
}
);
width = 512;
}
);
unicode = 122;
},
{
glyphname = ordfeminine;
layers = (
{
layerId = "EF047752-ED93-49D3-A4D1-D66A6AAE90C7";
shapes = (
{
pos = (0,128);
ref = pixel.6;
},
{
pos = (0,384);
ref = pixel.5;
},
{
pos = (0,512);
ref = pixel.1;
},
{
pos = (256,512);
ref = pixel.1;
},
{
pos = (64,640);
ref = pixel.1;
},
{
pos = (256,640);
ref = pixel.1;
},
{
pos = (128,768);
ref = pixel.2;
}
);
width = 512;
},
{
background = {
shapes = (
{
closed = 1;
nodes = (
(17,67,o),
(-63,141,o),
(-63,243,o),
(17,317,o),
(87,317,qs),
(297,317,ls),
(367,317,o),
(447,243,o),
(447,141,o),
(367,67,o),
(297,67,qs),
(87,67,ls)
);
},
{
closed = 1;
nodes = (
(17,323,o),
(-63,397,o),
(-63,499,o),
(17,573,o),
(87,573,qs),
(233,573,ls),
(303,573,o),
(383,499,o),
(383,397,o),
(303,323,o),
(233,323,qs),
(87,323,ls)
);
},
{
closed = 1;
nodes = (
(9,451,o),
(-63,525,o),
(-63,627,o),
(9,701,o),
(62,701,qs),
(2,701,ls),
(55,701,o),
(127,627,o),
(127,525,o),
(55,451,o),
(2,451,qs),
(62,451,ls)
);
},
{
closed = 1;
nodes = (
(265,451,o),
(193,525,o),
(193,627,o),
(265,701,o),
(318,701,qs),
(258,701,ls),
(311,701,o),
(383,627,o),
(383,525,o),
(311,451,o),
(258,451,qs),
(318,451,ls)
);
},
{
closed = 1;
nodes = (
(73,579,o),
(1,653,o),
(1,755,o),
(73,829,o),
(126,829,qs),
(66,829,ls),
(119,829,o),
(191,755,o),
(191,653,o),
(119,579,o),
(66,579,qs),
(126,579,ls)
);
},
{
closed = 1;
nodes = (
(265,579,o),
(193,653,o),
(193,755,o),
(265,829,o),
(318,829,qs),
(258,829,ls),
(311,829,o),
(383,755,o),
(383,653,o),
(311,579,o),
(258,579,qs),
(318,579,ls)
);
},
{
closed = 1;
nodes = (
(137,707,o),
(65,781,o),
(65,883,o),
(137,957,o),
(190,957,qs),
(194,957,ls),
(247,957,o),
(319,883,o),
(319,781,o),
(247,707,o),
(194,707,qs),
(190,707,ls)
);
}
);
};
layerId = "164C8123-3F0E-4C99-877D-0E85C432A9CE";
shapes = (
{
pos = (0,128);
ref = pixel.6;
},
{
pos = (0,384);
ref = pixel.5;
},
{
pos = (0,512);
ref = pixel.1;
},
{
pos = (256,512);
ref = pixel.1;
},
{
pos = (64,640);
ref = pixel.1;
},
{
pos = (256,640);
ref = pixel.1;
},
{
pos = (128,768);
ref = pixel.2;
}
);
width = 512;
},
{
layerId = "EDC3ADDC-530C-4ECE-AAC6-732B149A8D4A";
shapes = (
{
pos = (0,128);
ref = pixel.6;
},
{
pos = (0,384);
ref = pixel.5;
},
{
pos = (0,512);
ref = pixel.1;
},
{
pos = (256,512);
ref = pixel.1;
},
{
pos = (64,640);
ref = pixel.1;
},
{
pos = (256,640);
ref = pixel.1;
},
{
pos = (128,768);
ref = pixel.2;
}
);
width = 512;
},
{
layerId = "38088322-78A3-4F4F-B46E-F8355B0BCD96";
shapes = (
{
pos = (0,128);
ref = pixel.6;
},
{
pos = (0,384);
ref = pixel.5;
},
{
pos = (0,512);
ref = pixel.1;
},
{
pos = (256,512);
ref = pixel.1;
},
{
pos = (64,640);
ref = pixel.1;
},
{
pos = (256,640);
ref = pixel.1;
},
{
pos = (128,768);
ref = pixel.2;
}
);
width = 512;
}
);
unicode = 170;
},
{
glyphname = ordmasculine;
layers = (
{
layerId = "EF047752-ED93-49D3-A4D1-D66A6AAE90C7";
shapes = (
{
pos = (0,128);
ref = pixel.5;
},
{
pos = (64,384);
ref = pixel.3;
},
{
pos = (0,512);
ref = pixel.1;
},
{
pos = (256,512);
ref = pixel.1;
},
{
pos = (0,640);
ref = pixel.1;
},
{
pos = (256,640);
ref = pixel.1;
},
{
pos = (64,768);
ref = pixel.3;
}
);
width = 512;
},
{
background = {
shapes = (
{
closed = 1;
nodes = (
(17,67,o),
(-63,141,o),
(-63,243,o),
(17,317,o),
(87,317,qs),
(233,317,ls),
(303,317,o),
(383,243,o),
(383,141,o),
(303,67,o),
(233,67,qs),
(87,67,ls)
);
},
{
closed = 1;
nodes = (
(73,323,o),
(1,397,o),
(1,499,o),
(73,573,o),
(126,573,qs),
(194,573,ls),
(247,573,o),
(319,499,o),
(319,397,o),
(247,323,o),
(194,323,qs),
(126,323,ls)
);
},
{
closed = 1;
nodes = (
(9,451,o),
(-63,525,o),
(-63,627,o),
(9,701,o),
(62,701,qs),
(2,701,ls),
(55,701,o),
(127,627,o),
(127,525,o),
(55,451,o),
(2,451,qs),
(62,451,ls)
);
},
{
closed = 1;
nodes = (
(265,451,o),
(193,525,o),
(193,627,o),
(265,701,o),
(318,701,qs),
(258,701,ls),
(311,701,o),
(383,627,o),
(383,525,o),
(311,451,o),
(258,451,qs),
(318,451,ls)
);
},
{
closed = 1;
nodes = (
(9,579,o),
(-63,653,o),
(-63,755,o),
(9,829,o),
(62,829,qs),
(2,829,ls),
(55,829,o),
(127,755,o),
(127,653,o),
(55,579,o),
(2,579,qs),
(62,579,ls)
);
},
{
closed = 1;
nodes = (
(265,579,o),
(193,653,o),
(193,755,o),
(265,829,o),
(318,829,qs),
(258,829,ls),
(311,829,o),
(383,755,o),
(383,653,o),
(311,579,o),
(258,579,qs),
(318,579,ls)
);
},
{
closed = 1;
nodes = (
(73,707,o),
(1,781,o),
(1,883,o),
(73,957,o),
(126,957,qs),
(194,957,ls),
(247,957,o),
(319,883,o),
(319,781,o),
(247,707,o),
(194,707,qs),
(126,707,ls)
);
}
);
};
layerId = "164C8123-3F0E-4C99-877D-0E85C432A9CE";
shapes = (
{
pos = (0,128);
ref = pixel.5;
},
{
pos = (64,384);
ref = pixel.3;
},
{
pos = (0,512);
ref = pixel.1;
},
{
pos = (256,512);
ref = pixel.1;
},
{
pos = (0,640);
ref = pixel.1;
},
{
pos = (256,640);
ref = pixel.1;
},
{
pos = (64,768);
ref = pixel.3;
}
);
width = 512;
},
{
layerId = "EDC3ADDC-530C-4ECE-AAC6-732B149A8D4A";
shapes = (
{
pos = (0,128);
ref = pixel.5;
},
{
pos = (64,384);
ref = pixel.3;
},
{
pos = (0,512);
ref = pixel.1;
},
{
pos = (256,512);
ref = pixel.1;
},
{
pos = (0,640);
ref = pixel.1;
},
{
pos = (256,640);
ref = pixel.1;
},
{
pos = (64,768);
ref = pixel.3;
}
);
width = 512;
},
{
layerId = "38088322-78A3-4F4F-B46E-F8355B0BCD96";
shapes = (
{
pos = (0,128);
ref = pixel.5;
},
{
pos = (64,384);
ref = pixel.3;
},
{
pos = (0,512);
ref = pixel.1;
},
{
pos = (256,512);
ref = pixel.1;
},
{
pos = (0,640);
ref = pixel.1;
},
{
pos = (256,640);
ref = pixel.1;
},
{
pos = (64,768);
ref = pixel.3;
}
);
width = 512;
}
);
unicode = 186;
},
{
glyphname = one.dnom;
layers = (
{
layerId = "EF047752-ED93-49D3-A4D1-D66A6AAE90C7";
shapes = (
{
pos = (191,-128);
ref = pixel.1;
},
{
pos = (191,0);
ref = pixel.1;
},
{
pos = (127,128);
ref = pixel.2;
},
{
pos = (191,256);
ref = pixel.1;
}
);
width = 512;
},
{
background = {
shapes = (
{
closed = 1;
nodes = (
(200,-189,o),
(128,-115,o),
(128,-13,o),
(200,61,o),
(253,61,qs),
(193,61,ls),
(246,61,o),
(318,-13,o),
(318,-115,o),
(246,-189,o),
(193,-189,qs),
(253,-189,ls)
);
},
{
closed = 1;
nodes = (
(200,-61,o),
(128,13,o),
(128,115,o),
(200,189,o),
(253,189,qs),
(193,189,ls),
(246,189,o),
(318,115,o),
(318,13,o),
(246,-61,o),
(193,-61,qs),
(253,-61,ls)
);
},
{
closed = 1;
nodes = (
(136,67,o),
(64,141,o),
(64,243,o),
(136,317,o),
(189,317,qs),
(193,317,ls),
(246,317,o),
(318,243,o),
(318,141,o),
(246,67,o),
(193,67,qs),
(189,67,ls)
);
},
{
closed = 1;
nodes = (
(200,195,o),
(128,269,o),
(128,371,o),
(200,445,o),
(253,445,qs),
(193,445,ls),
(246,445,o),
(318,371,o),
(318,269,o),
(246,195,o),
(193,195,qs),
(253,195,ls)
);
}
);
};
layerId = "164C8123-3F0E-4C99-877D-0E85C432A9CE";
shapes = (
{
pos = (191,-128);
ref = pixel.1;
},
{
pos = (191,0);
ref = pixel.1;
},
{
pos = (127,128);
ref = pixel.2;
},
{
pos = (191,256);
ref = pixel.1;
}
);
width = 512;
},
{
layerId = "EDC3ADDC-530C-4ECE-AAC6-732B149A8D4A";
shapes = (
{
pos = (191,-128);
ref = pixel.1;
},
{
pos = (191,0);
ref = pixel.1;
},
{
pos = (127,128);
ref = pixel.2;
},
{
pos = (191,256);
ref = pixel.1;
}
);
width = 512;
},
{
layerId = "38088322-78A3-4F4F-B46E-F8355B0BCD96";
shapes = (
{
pos = (191,-128);
ref = pixel.1;
},
{
pos = (191,0);
ref = pixel.1;
},
{
pos = (127,128);
ref = pixel.2;
},
{
pos = (191,256);
ref = pixel.1;
}
);
width = 512;
}
);
},
{
glyphname = two.dnom;
layers = (
{
layerId = "EF047752-ED93-49D3-A4D1-D66A6AAE90C7";
shapes = (
{
pos = (128,-128);
ref = pixel.3;
},
{
pos = (192,0);
ref = pixel.1;
},
{
pos = (256,128);
ref = pixel.1;
},
{
pos = (192,256);
ref = pixel.2;
}
);
width = 512;
},
{
background = {
shapes = (
{
closed = 1;
nodes = (
(137,-189,o),
(65,-115,o),
(65,-13,o),
(137,61,o),
(190,61,qs),
(258,61,ls),
(311,61,o),
(383,-13,o),
(383,-115,o),
(311,-189,o),
(258,-189,qs),
(190,-189,ls)
);
},
{
closed = 1;
nodes = (
(201,-61,o),
(129,13,o),
(129,115,o),
(201,189,o),
(254,189,qs),
(194,189,ls),
(247,189,o),
(319,115,o),
(319,13,o),
(247,-61,o),
(194,-61,qs),
(254,-61,ls)
);
},
{
closed = 1;
nodes = (
(265,67,o),
(193,141,o),
(193,243,o),
(265,317,o),
(318,317,qs),
(258,317,ls),
(311,317,o),
(383,243,o),
(383,141,o),
(311,67,o),
(258,67,qs),
(318,67,ls)
);
},
{
closed = 1;
nodes = (
(201,195,o),
(129,269,o),
(129,371,o),
(201,445,o),
(254,445,qs),
(258,445,ls),
(311,445,o),
(383,371,o),
(383,269,o),
(311,195,o),
(258,195,qs),
(254,195,ls)
);
}
);
};
layerId = "164C8123-3F0E-4C99-877D-0E85C432A9CE";
shapes = (
{
pos = (128,-128);
ref = pixel.3;
},
{
pos = (192,0);
ref = pixel.1;
},
{
pos = (256,128);
ref = pixel.1;
},
{
pos = (192,256);
ref = pixel.2;
}
);
width = 512;
},
{
layerId = "EDC3ADDC-530C-4ECE-AAC6-732B149A8D4A";
shapes = (
{
pos = (128,-128);
ref = pixel.3;
},
{
pos = (192,0);
ref = pixel.1;
},
{
pos = (256,128);
ref = pixel.1;
},
{
pos = (192,256);
ref = pixel.2;
}
);
width = 512;
},
{
layerId = "38088322-78A3-4F4F-B46E-F8355B0BCD96";
shapes = (
{
pos = (128,-128);
ref = pixel.3;
},
{
pos = (192,0);
ref = pixel.1;
},
{
pos = (256,128);
ref = pixel.1;
},
{
pos = (192,256);
ref = pixel.2;
}
);
width = 512;
}
);
},
{
glyphname = three.dnom;
layers = (
{
layerId = "EF047752-ED93-49D3-A4D1-D66A6AAE90C7";
shapes = (
{
pos = (128,-256);
ref = pixel.2;
},
{
pos = (256,-128);
ref = pixel.1;
},
{
pos = (192,0);
ref = pixel.2;
},
{
pos = (256,128);
ref = pixel.1;
},
{
pos = (128,256);
ref = pixel.2;
}
);
width = 512;
},
{
background = {
shapes = (
{
closed = 1;
nodes = (
(137,-317,o),
(65,-243,o),
(65,-141,o),
(137,-67,o),
(190,-67,qs),
(194,-67,ls),
(247,-67,o),
(319,-141,o),
(319,-243,o),
(247,-317,o),
(194,-317,qs),
(190,-317,ls)
);
},
{
closed = 1;
nodes = (
(265,-189,o),
(193,-115,o),
(193,-13,o),
(265,61,o),
(318,61,qs),
(258,61,ls),
(311,61,o),
(383,-13,o),
(383,-115,o),
(311,-189,o),
(258,-189,qs),
(318,-189,ls)
);
},
{
closed = 1;
nodes = (
(201,-61,o),
(129,13,o),
(129,115,o),
(201,189,o),
(254,189,qs),
(258,189,ls),
(311,189,o),
(383,115,o),
(383,13,o),
(311,-61,o),
(258,-61,qs),
(254,-61,ls)
);
},
{
closed = 1;
nodes = (
(265,67,o),
(193,141,o),
(193,243,o),
(265,317,o),
(318,317,qs),
(258,317,ls),
(311,317,o),
(383,243,o),
(383,141,o),
(311,67,o),
(258,67,qs),
(318,67,ls)
);
},
{
closed = 1;
nodes = (
(137,195,o),
(65,269,o),
(65,371,o),
(137,445,o),
(190,445,qs),
(194,445,ls),
(247,445,o),
(319,371,o),
(319,269,o),
(247,195,o),
(194,195,qs),
(190,195,ls)
);
}
);
};
layerId = "164C8123-3F0E-4C99-877D-0E85C432A9CE";
shapes = (
{
pos = (128,-256);
ref = pixel.2;
},
{
pos = (256,-128);
ref = pixel.1;
},
{
pos = (192,0);
ref = pixel.2;
},
{
pos = (256,128);
ref = pixel.1;
},
{
pos = (128,256);
ref = pixel.2;
}
);
width = 512;
},
{
layerId = "EDC3ADDC-530C-4ECE-AAC6-732B149A8D4A";
shapes = (
{
pos = (128,-256);
ref = pixel.2;
},
{
pos = (256,-128);
ref = pixel.1;
},
{
pos = (192,0);
ref = pixel.2;
},
{
pos = (256,128);
ref = pixel.1;
},
{
pos = (128,256);
ref = pixel.2;
}
);
width = 512;
},
{
layerId = "38088322-78A3-4F4F-B46E-F8355B0BCD96";
shapes = (
{
pos = (128,-256);
ref = pixel.2;
},
{
pos = (256,-128);
ref = pixel.1;
},
{
pos = (192,0);
ref = pixel.2;
},
{
pos = (256,128);
ref = pixel.1;
},
{
pos = (128,256);
ref = pixel.2;
}
);
width = 512;
}
);
},
{
glyphname = four.dnom;
layers = (
{
layerId = "EF047752-ED93-49D3-A4D1-D66A6AAE90C7";
shapes = (
{
pos = (256,-128);
ref = pixel.1;
},
{
pos = (128,0);
ref = pixel.3;
},
{
pos = (192,128);
ref = pixel.2;
},
{
pos = (256,256);
ref = pixel.1;
}
);
width = 512;
},
{
background = {
shapes = (
{
closed = 1;
nodes = (
(265,-189,o),
(193,-115,o),
(193,-13,o),
(265,61,o),
(318,61,qs),
(258,61,ls),
(311,61,o),
(383,-13,o),
(383,-115,o),
(311,-189,o),
(258,-189,qs),
(318,-189,ls)
);
},
{
closed = 1;
nodes = (
(137,-61,o),
(65,13,o),
(65,115,o),
(137,189,o),
(190,189,qs),
(258,189,ls),
(311,189,o),
(383,115,o),
(383,13,o),
(311,-61,o),
(258,-61,qs),
(190,-61,ls)
);
},
{
closed = 1;
nodes = (
(201,67,o),
(129,141,o),
(129,243,o),
(201,317,o),
(254,317,qs),
(258,317,ls),
(311,317,o),
(383,243,o),
(383,141,o),
(311,67,o),
(258,67,qs),
(254,67,ls)
);
},
{
closed = 1;
nodes = (
(265,195,o),
(193,269,o),
(193,371,o),
(265,445,o),
(318,445,qs),
(258,445,ls),
(311,445,o),
(383,371,o),
(383,269,o),
(311,195,o),
(258,195,qs),
(318,195,ls)
);
}
);
};
layerId = "164C8123-3F0E-4C99-877D-0E85C432A9CE";
shapes = (
{
pos = (256,-128);
ref = pixel.1;
},
{
pos = (128,0);
ref = pixel.3;
},
{
pos = (192,128);
ref = pixel.2;
},
{
pos = (256,256);
ref = pixel.1;
}
);
width = 512;
},
{
layerId = "EDC3ADDC-530C-4ECE-AAC6-732B149A8D4A";
shapes = (
{
pos = (256,-128);
ref = pixel.1;
},
{
pos = (128,0);
ref = pixel.3;
},
{
pos = (192,128);
ref = pixel.2;
},
{
pos = (256,256);
ref = pixel.1;
}
);
width = 512;
},
{
layerId = "38088322-78A3-4F4F-B46E-F8355B0BCD96";
shapes = (
{
pos = (256,-128);
ref = pixel.1;
},
{
pos = (128,0);
ref = pixel.3;
},
{
pos = (192,128);
ref = pixel.2;
},
{
pos = (256,256);
ref = pixel.1;
}
);
width = 512;
}
);
},
{
color = 6;
glyphname = onehalf;
layers = (
{
layerId = "EF047752-ED93-49D3-A4D1-D66A6AAE90C7";
shapes = (
{
pos = (-63,512);
ref = one.dnom;
},
{
ref = fraction;
},
{
pos = (192,0);
ref = two.dnom;
}
);
width = 512;
},
{
background = {
shapes = (
{
closed = 1;
nodes = (
(329,-189,o),
(257,-115,o),
(257,-13,o),
(329,61,o),
(382,61,qs),
(450,61,ls),
(503,61,o),
(575,-13,o),
(575,-115,o),
(503,-189,o),
(450,-189,qs),
(382,-189,ls)
);
},
{
closed = 1;
nodes = (
(73,-61,o),
(1,13,o),
(1,115,o),
(73,189,o),
(126,189,qs),
(130,189,ls),
(183,189,o),
(255,115,o),
(255,13,o),
(183,-61,o),
(130,-61,qs),
(126,-61,ls)
);
},
{
closed = 1;
nodes = (
(393,-61,o),
(321,13,o),
(321,115,o),
(393,189,o),
(446,189,qs),
(386,189,ls),
(439,189,o),
(511,115,o),
(511,13,o),
(439,-61,o),
(386,-61,qs),
(446,-61,ls)
);
},
{
closed = 1;
nodes = (
(137,67,o),
(65,141,o),
(65,243,o),
(137,317,o),
(190,317,qs),
(194,317,ls),
(247,317,o),
(319,243,o),
(319,141,o),
(247,67,o),
(194,67,qs),
(190,67,ls)
);
},
{
closed = 1;
nodes = (
(457,67,o),
(385,141,o),
(385,243,o),
(457,317,o),
(510,317,qs),
(450,317,ls),
(503,317,o),
(575,243,o),
(575,141,o),
(503,67,o),
(450,67,qs),
(510,67,ls)
);
},
{
closed = 1;
nodes = (
(201,195,o),
(129,269,o),
(129,371,o),
(201,445,o),
(254,445,qs),
(258,445,ls),
(311,445,o),
(383,371,o),
(383,269,o),
(311,195,o),
(258,195,qs),
(254,195,ls)
);
},
{
closed = 1;
nodes = (
(393,195,o),
(321,269,o),
(321,371,o),
(393,445,o),
(446,445,qs),
(450,445,ls),
(503,445,o),
(575,371,o),
(575,269,o),
(503,195,o),
(450,195,qs),
(446,195,ls)
);
},
{
closed = 1;
nodes = (
(137,323,o),
(65,397,o),
(65,499,o),
(137,573,o),
(190,573,qs),
(130,573,ls),
(183,573,o),
(255,499,o),
(255,397,o),
(183,323,o),
(130,323,qs),
(190,323,ls)
);
},
{
closed = 1;
nodes = (
(265,323,o),
(193,397,o),
(193,499,o),
(265,573,o),
(318,573,qs),
(322,573,ls),
(375,573,o),
(447,499,o),
(447,397,o),
(375,323,o),
(322,323,qs),
(318,323,ls)
);
},
{
closed = 1;
nodes = (
(137,451,o),
(65,525,o),
(65,627,o),
(137,701,o),
(190,701,qs),
(130,701,ls),
(183,701,o),
(255,627,o),
(255,525,o),
(183,451,o),
(130,451,qs),
(190,451,ls)
);
},
{
closed = 1;
nodes = (
(329,451,o),
(257,525,o),
(257,627,o),
(329,701,o),
(382,701,qs),
(386,701,ls),
(439,701,o),
(511,627,o),
(511,525,o),
(439,451,o),
(386,451,qs),
(382,451,ls)
);
},
{
closed = 1;
nodes = (
(73,579,o),
(1,653,o),
(1,755,o),
(73,829,o),
(126,829,qs),
(130,829,ls),
(183,829,o),
(255,755,o),
(255,653,o),
(183,579,o),
(130,579,qs),
(126,579,ls)
);
},
{
closed = 1;
nodes = (
(393,579,o),
(321,653,o),
(321,755,o),
(393,829,o),
(446,829,qs),
(450,829,ls),
(503,829,o),
(575,755,o),
(575,653,o),
(503,579,o),
(450,579,qs),
(446,579,ls)
);
},
{
closed = 1;
nodes = (
(137,707,o),
(65,781,o),
(65,883,o),
(137,957,o),
(190,957,qs),
(130,957,ls),
(183,957,o),
(255,883,o),
(255,781,o),
(183,707,o),
(130,707,qs),
(190,707,ls)
);
}
);
};
layerId = "164C8123-3F0E-4C99-877D-0E85C432A9CE";
shapes = (
{
pos = (-63,512);
ref = one.dnom;
},
{
ref = fraction;
},
{
pos = (192,0);
ref = two.dnom;
}
);
width = 512;
},
{
layerId = "EDC3ADDC-530C-4ECE-AAC6-732B149A8D4A";
shapes = (
{
pos = (-63,512);
ref = one.dnom;
},
{
ref = fraction;
},
{
pos = (192,0);
ref = two.dnom;
}
);
width = 512;
},
{
layerId = "38088322-78A3-4F4F-B46E-F8355B0BCD96";
shapes = (
{
pos = (-63,512);
ref = one.dnom;
},
{
ref = fraction;
},
{
pos = (192,0);
ref = two.dnom;
}
);
width = 512;
}
);
unicode = 189;
},
{
color = 6;
glyphname = onequarter;
layers = (
{
layerId = "EF047752-ED93-49D3-A4D1-D66A6AAE90C7";
shapes = (
{
pos = (-63,512);
ref = one.dnom;
},
{
ref = fraction;
},
{
pos = (192,0);
ref = four.dnom;
}
);
width = 512;
},
{
background = {
shapes = (
{
closed = 1;
nodes = (
(457,-189,o),
(385,-115,o),
(385,-13,o),
(457,61,o),
(510,61,qs),
(450,61,ls),
(503,61,o),
(575,-13,o),
(575,-115,o),
(503,-189,o),
(450,-189,qs),
(510,-189,ls)
);
},
{
closed = 1;
nodes = (
(73,-61,o),
(1,13,o),
(1,115,o),
(73,189,o),
(126,189,qs),
(130,189,ls),
(183,189,o),
(255,115,o),
(255,13,o),
(183,-61,o),
(130,-61,qs),
(126,-61,ls)
);
},
{
closed = 1;
nodes = (
(329,-61,o),
(257,13,o),
(257,115,o),
(329,189,o),
(382,189,qs),
(450,189,ls),
(503,189,o),
(575,115,o),
(575,13,o),
(503,-61,o),
(450,-61,qs),
(382,-61,ls)
);
},
{
closed = 1;
nodes = (
(137,67,o),
(65,141,o),
(65,243,o),
(137,317,o),
(190,317,qs),
(194,317,ls),
(247,317,o),
(319,243,o),
(319,141,o),
(247,67,o),
(194,67,qs),
(190,67,ls)
);
},
{
closed = 1;
nodes = (
(393,67,o),
(321,141,o),
(321,243,o),
(393,317,o),
(446,317,qs),
(450,317,ls),
(503,317,o),
(575,243,o),
(575,141,o),
(503,67,o),
(450,67,qs),
(446,67,ls)
);
},
{
closed = 1;
nodes = (
(201,195,o),
(129,269,o),
(129,371,o),
(201,445,o),
(254,445,qs),
(258,445,ls),
(311,445,o),
(383,371,o),
(383,269,o),
(311,195,o),
(258,195,qs),
(254,195,ls)
);
},
{
closed = 1;
nodes = (
(457,195,o),
(385,269,o),
(385,371,o),
(457,445,o),
(510,445,qs),
(450,445,ls),
(503,445,o),
(575,371,o),
(575,269,o),
(503,195,o),
(450,195,qs),
(510,195,ls)
);
},
{
closed = 1;
nodes = (
(137,323,o),
(65,397,o),
(65,499,o),
(137,573,o),
(190,573,qs),
(130,573,ls),
(183,573,o),
(255,499,o),
(255,397,o),
(183,323,o),
(130,323,qs),
(190,323,ls)
);
},
{
closed = 1;
nodes = (
(265,323,o),
(193,397,o),
(193,499,o),
(265,573,o),
(318,573,qs),
(322,573,ls),
(375,573,o),
(447,499,o),
(447,397,o),
(375,323,o),
(322,323,qs),
(318,323,ls)
);
},
{
closed = 1;
nodes = (
(137,451,o),
(65,525,o),
(65,627,o),
(137,701,o),
(190,701,qs),
(130,701,ls),
(183,701,o),
(255,627,o),
(255,525,o),
(183,451,o),
(130,451,qs),
(190,451,ls)
);
},
{
closed = 1;
nodes = (
(329,451,o),
(257,525,o),
(257,627,o),
(329,701,o),
(382,701,qs),
(386,701,ls),
(439,701,o),
(511,627,o),
(511,525,o),
(439,451,o),
(386,451,qs),
(382,451,ls)
);
},
{
closed = 1;
nodes = (
(73,579,o),
(1,653,o),
(1,755,o),
(73,829,o),
(126,829,qs),
(130,829,ls),
(183,829,o),
(255,755,o),
(255,653,o),
(183,579,o),
(130,579,qs),
(126,579,ls)
);
},
{
closed = 1;
nodes = (
(393,579,o),
(321,653,o),
(321,755,o),
(393,829,o),
(446,829,qs),
(450,829,ls),
(503,829,o),
(575,755,o),
(575,653,o),
(503,579,o),
(450,579,qs),
(446,579,ls)
);
},
{
closed = 1;
nodes = (
(137,707,o),
(65,781,o),
(65,883,o),
(137,957,o),
(190,957,qs),
(130,957,ls),
(183,957,o),
(255,883,o),
(255,781,o),
(183,707,o),
(130,707,qs),
(190,707,ls)
);
}
);
};
layerId = "164C8123-3F0E-4C99-877D-0E85C432A9CE";
shapes = (
{
pos = (-63,512);
ref = one.dnom;
},
{
ref = fraction;
},
{
pos = (192,0);
ref = four.dnom;
}
);
width = 512;
},
{
layerId = "EDC3ADDC-530C-4ECE-AAC6-732B149A8D4A";
shapes = (
{
pos = (-63,512);
ref = one.dnom;
},
{
ref = fraction;
},
{
pos = (192,0);
ref = four.dnom;
}
);
width = 512;
},
{
layerId = "38088322-78A3-4F4F-B46E-F8355B0BCD96";
shapes = (
{
pos = (-63,512);
ref = one.dnom;
},
{
ref = fraction;
},
{
pos = (192,0);
ref = four.dnom;
}
);
width = 512;
}
);
unicode = 188;
},
{
color = 6;
glyphname = threequarters;
layers = (
{
layerId = "EF047752-ED93-49D3-A4D1-D66A6AAE90C7";
shapes = (
{
pos = (-128,512);
ref = three.dnom;
},
{
ref = fraction;
},
{
pos = (192,0);
ref = four.dnom;
}
);
width = 512;
},
{
background = {
shapes = (
{
closed = 1;
nodes = (
(457,-189,o),
(385,-115,o),
(385,-13,o),
(457,61,o),
(510,61,qs),
(450,61,ls),
(503,61,o),
(575,-13,o),
(575,-115,o),
(503,-189,o),
(450,-189,qs),
(510,-189,ls)
);
},
{
closed = 1;
nodes = (
(73,-61,o),
(1,13,o),
(1,115,o),
(73,189,o),
(126,189,qs),
(130,189,ls),
(183,189,o),
(255,115,o),
(255,13,o),
(183,-61,o),
(130,-61,qs),
(126,-61,ls)
);
},
{
closed = 1;
nodes = (
(329,-61,o),
(257,13,o),
(257,115,o),
(329,189,o),
(382,189,qs),
(450,189,ls),
(503,189,o),
(575,115,o),
(575,13,o),
(503,-61,o),
(450,-61,qs),
(382,-61,ls)
);
},
{
closed = 1;
nodes = (
(137,67,o),
(65,141,o),
(65,243,o),
(137,317,o),
(190,317,qs),
(194,317,ls),
(247,317,o),
(319,243,o),
(319,141,o),
(247,67,o),
(194,67,qs),
(190,67,ls)
);
},
{
closed = 1;
nodes = (
(393,67,o),
(321,141,o),
(321,243,o),
(393,317,o),
(446,317,qs),
(450,317,ls),
(503,317,o),
(575,243,o),
(575,141,o),
(503,67,o),
(450,67,qs),
(446,67,ls)
);
},
{
closed = 1;
nodes = (
(9,195,o),
(-63,269,o),
(-63,371,o),
(9,445,o),
(62,445,qs),
(66,445,ls),
(119,445,o),
(191,371,o),
(191,269,o),
(119,195,o),
(66,195,qs),
(62,195,ls)
);
},
{
closed = 1;
nodes = (
(201,195,o),
(129,269,o),
(129,371,o),
(201,445,o),
(254,445,qs),
(258,445,ls),
(311,445,o),
(383,371,o),
(383,269,o),
(311,195,o),
(258,195,qs),
(254,195,ls)
);
},
{
closed = 1;
nodes = (
(457,195,o),
(385,269,o),
(385,371,o),
(457,445,o),
(510,445,qs),
(450,445,ls),
(503,445,o),
(575,371,o),
(575,269,o),
(503,195,o),
(450,195,qs),
(510,195,ls)
);
},
{
closed = 1;
nodes = (
(137,323,o),
(65,397,o),
(65,499,o),
(137,573,o),
(190,573,qs),
(130,573,ls),
(183,573,o),
(255,499,o),
(255,397,o),
(183,323,o),
(130,323,qs),
(190,323,ls)
);
},
{
closed = 1;
nodes = (
(265,323,o),
(193,397,o),
(193,499,o),
(265,573,o),
(318,573,qs),
(322,573,ls),
(375,573,o),
(447,499,o),
(447,397,o),
(375,323,o),
(322,323,qs),
(318,323,ls)
);
},
{
closed = 1;
nodes = (
(73,451,o),
(1,525,o),
(1,627,o),
(73,701,o),
(126,701,qs),
(130,701,ls),
(183,701,o),
(255,627,o),
(255,525,o),
(183,451,o),
(130,451,qs),
(126,451,ls)
);
},
{
closed = 1;
nodes = (
(329,451,o),
(257,525,o),
(257,627,o),
(329,701,o),
(382,701,qs),
(386,701,ls),
(439,701,o),
(511,627,o),
(511,525,o),
(439,451,o),
(386,451,qs),
(382,451,ls)
);
},
{
closed = 1;
nodes = (
(137,579,o),
(65,653,o),
(65,755,o),
(137,829,o),
(190,829,qs),
(130,829,ls),
(183,829,o),
(255,755,o),
(255,653,o),
(183,579,o),
(130,579,qs),
(190,579,ls)
);
},
{
closed = 1;
nodes = (
(393,579,o),
(321,653,o),
(321,755,o),
(393,829,o),
(446,829,qs),
(450,829,ls),
(503,829,o),
(575,755,o),
(575,653,o),
(503,579,o),
(450,579,qs),
(446,579,ls)
);
},
{
closed = 1;
nodes = (
(9,707,o),
(-63,781,o),
(-63,883,o),
(9,957,o),
(62,957,qs),
(66,957,ls),
(119,957,o),
(191,883,o),
(191,781,o),
(119,707,o),
(66,707,qs),
(62,707,ls)
);
}
);
};
layerId = "164C8123-3F0E-4C99-877D-0E85C432A9CE";
shapes = (
{
pos = (-128,512);
ref = three.dnom;
},
{
ref = fraction;
},
{
pos = (192,0);
ref = four.dnom;
}
);
width = 512;
},
{
layerId = "EDC3ADDC-530C-4ECE-AAC6-732B149A8D4A";
shapes = (
{
pos = (-128,512);
ref = three.dnom;
},
{
ref = fraction;
},
{
pos = (192,0);
ref = four.dnom;
}
);
width = 512;
},
{
layerId = "38088322-78A3-4F4F-B46E-F8355B0BCD96";
shapes = (
{
pos = (-128,512);
ref = three.dnom;
},
{
ref = fraction;
},
{
pos = (192,0);
ref = four.dnom;
}
);
width = 512;
}
);
unicode = 190;
},
{
color = 3;
glyphname = foursuperior;
layers = (
{
layerId = "EF047752-ED93-49D3-A4D1-D66A6AAE90C7";
shapes = (
{
pos = (192,256);
ref = pixel.2;
},
{
pos = (0,384);
ref = pixel.6;
},
{
pos = (64,512);
ref = pixel.1;
},
{
pos = (192,512);
ref = pixel.2;
},
{
pos = (128,640);
ref = pixel.3;
},
{
pos = (192,768);
ref = pixel.2;
}
);
width = 512;
},
{
background = {
shapes = (
{
closed = 1;
nodes = (
(201,195,o),
(129,269,o),
(129,371,o),
(201,445,o),
(254,445,qs),
(258,445,ls),
(311,445,o),
(383,371,o),
(383,269,o),
(311,195,o),
(258,195,qs),
(254,195,ls)
);
},
{
closed = 1;
nodes = (
(17,323,o),
(-63,397,o),
(-63,499,o),
(17,573,o),
(87,573,qs),
(297,573,ls),
(367,573,o),
(447,499,o),
(447,397,o),
(367,323,o),
(297,323,qs),
(87,323,ls)
);
},
{
closed = 1;
nodes = (
(73,451,o),
(1,525,o),
(1,627,o),
(73,701,o),
(126,701,qs),
(66,701,ls),
(119,701,o),
(191,627,o),
(191,525,o),
(119,451,o),
(66,451,qs),
(126,451,ls)
);
},
{
closed = 1;
nodes = (
(201,451,o),
(129,525,o),
(129,627,o),
(201,701,o),
(254,701,qs),
(258,701,ls),
(311,701,o),
(383,627,o),
(383,525,o),
(311,451,o),
(258,451,qs),
(254,451,ls)
);
},
{
closed = 1;
nodes = (
(137,579,o),
(65,653,o),
(65,755,o),
(137,829,o),
(190,829,qs),
(258,829,ls),
(311,829,o),
(383,755,o),
(383,653,o),
(311,579,o),
(258,579,qs),
(190,579,ls)
);
},
{
closed = 1;
nodes = (
(201,707,o),
(129,781,o),
(129,883,o),
(201,957,o),
(254,957,qs),
(258,957,ls),
(311,957,o),
(383,883,o),
(383,781,o),
(311,707,o),
(258,707,qs),
(254,707,ls)
);
}
);
};
layerId = "164C8123-3F0E-4C99-877D-0E85C432A9CE";
shapes = (
{
pos = (192,256);
ref = pixel.2;
},
{
pos = (0,384);
ref = pixel.6;
},
{
pos = (64,512);
ref = pixel.1;
},
{
pos = (192,512);
ref = pixel.2;
},
{
pos = (128,640);
ref = pixel.3;
},
{
pos = (192,768);
ref = pixel.2;
}
);
width = 512;
},
{
layerId = "EDC3ADDC-530C-4ECE-AAC6-732B149A8D4A";
shapes = (
{
pos = (192,256);
ref = pixel.2;
},
{
pos = (0,384);
ref = pixel.6;
},
{
pos = (64,512);
ref = pixel.1;
},
{
pos = (192,512);
ref = pixel.2;
},
{
pos = (128,640);
ref = pixel.3;
},
{
pos = (192,768);
ref = pixel.2;
}
);
width = 512;
},
{
layerId = "38088322-78A3-4F4F-B46E-F8355B0BCD96";
shapes = (
{
pos = (192,256);
ref = pixel.2;
},
{
pos = (0,384);
ref = pixel.6;
},
{
pos = (64,512);
ref = pixel.1;
},
{
pos = (192,512);
ref = pixel.2;
},
{
pos = (128,640);
ref = pixel.3;
},
{
pos = (192,768);
ref = pixel.2;
}
);
width = 512;
}
);
unicode = 8308;
},
{
glyphname = .notdef;
layers = (
{
layerId = "EF047752-ED93-49D3-A4D1-D66A6AAE90C7";
shapes = (
{
closed = 1;
nodes = (
(0,1024,l),
(512,1024,l),
(512,-256,l),
(0,-256,l)
);
}
);
width = 512;
},
{
background = {
shapes = (
{
closed = 1;
nodes = (
(17,-189,o),
(-63,-115,o),
(-63,-13,o),
(17,61,o),
(87,61,qs),
(425,61,ls),
(495,61,o),
(575,-13,o),
(575,-115,o),
(495,-189,o),
(425,-189,qs),
(87,-189,ls)
);
},
{
closed = 1;
nodes = (
(9,-61,o),
(-63,13,o),
(-63,115,o),
(9,189,o),
(62,189,qs),
(2,189,ls),
(55,189,o),
(127,115,o),
(127,13,o),
(55,-61,o),
(2,-61,qs),
(62,-61,ls)
);
},
{
closed = 1;
nodes = (
(201,-61,o),
(129,13,o),
(129,115,o),
(201,189,o),
(254,189,qs),
(322,189,ls),
(375,189,o),
(447,115,o),
(447,13,o),
(375,-61,o),
(322,-61,qs),
(254,-61,ls)
);
},
{
closed = 1;
nodes = (
(457,-61,o),
(385,13,o),
(385,115,o),
(457,189,o),
(510,189,qs),
(450,189,ls),
(503,189,o),
(575,115,o),
(575,13,o),
(503,-61,o),
(450,-61,qs),
(510,-61,ls)
);
},
{
closed = 1;
nodes = (
(9,67,o),
(-63,141,o),
(-63,243,o),
(9,317,o),
(62,317,qs),
(130,317,ls),
(183,317,o),
(255,243,o),
(255,141,o),
(183,67,o),
(130,67,qs),
(62,67,ls)
);
},
{
closed = 1;
nodes = (
(265,67,o),
(193,141,o),
(193,243,o),
(265,317,o),
(318,317,qs),
(258,317,ls),
(311,317,o),
(383,243,o),
(383,141,o),
(311,67,o),
(258,67,qs),
(318,67,ls)
);
},
{
closed = 1;
nodes = (
(393,67,o),
(321,141,o),
(321,243,o),
(393,317,o),
(446,317,qs),
(450,317,ls),
(503,317,o),
(575,243,o),
(575,141,o),
(503,67,o),
(450,67,qs),
(446,67,ls)
);
},
{
closed = 1;
nodes = (
(9,195,o),
(-63,269,o),
(-63,371,o),
(9,445,o),
(62,445,qs),
(130,445,ls),
(183,445,o),
(255,371,o),
(255,269,o),
(183,195,o),
(130,195,qs),
(62,195,ls)
);
},
{
closed = 1;
nodes = (
(329,195,o),
(257,269,o),
(257,371,o),
(329,445,o),
(382,445,qs),
(450,445,ls),
(503,445,o),
(575,371,o),
(575,269,o),
(503,195,o),
(450,195,qs),
(382,195,ls)
);
},
{
closed = 1;
nodes = (
(9,323,o),
(-63,397,o),
(-63,499,o),
(9,573,o),
(62,573,qs),
(130,573,ls),
(183,573,o),
(255,499,o),
(255,397,o),
(183,323,o),
(130,323,qs),
(62,323,ls)
);
},
{
closed = 1;
nodes = (
(329,323,o),
(257,397,o),
(257,499,o),
(329,573,o),
(382,573,qs),
(450,573,ls),
(503,573,o),
(575,499,o),
(575,397,o),
(503,323,o),
(450,323,qs),
(382,323,ls)
);
},
{
closed = 1;
nodes = (
(9,451,o),
(-63,525,o),
(-63,627,o),
(9,701,o),
(62,701,qs),
(130,701,ls),
(183,701,o),
(255,627,o),
(255,525,o),
(183,451,o),
(130,451,qs),
(62,451,ls)
);
},
{
closed = 1;
nodes = (
(265,451,o),
(193,525,o),
(193,627,o),
(265,701,o),
(318,701,qs),
(258,701,ls),
(311,701,o),
(383,627,o),
(383,525,o),
(311,451,o),
(258,451,qs),
(318,451,ls)
);
},
{
closed = 1;
nodes = (
(393,451,o),
(321,525,o),
(321,627,o),
(393,701,o),
(446,701,qs),
(450,701,ls),
(503,701,o),
(575,627,o),
(575,525,o),
(503,451,o),
(450,451,qs),
(446,451,ls)
);
},
{
closed = 1;
nodes = (
(9,579,o),
(-63,653,o),
(-63,755,o),
(9,829,o),
(62,829,qs),
(2,829,ls),
(55,829,o),
(127,755,o),
(127,653,o),
(55,579,o),
(2,579,qs),
(62,579,ls)
);
},
{
closed = 1;
nodes = (
(265,579,o),
(193,653,o),
(193,755,o),
(265,829,o),
(318,829,qs),
(322,829,ls),
(375,829,o),
(447,755,o),
(447,653,o),
(375,579,o),
(322,579,qs),
(318,579,ls)
);
},
{
closed = 1;
nodes = (
(457,579,o),
(385,653,o),
(385,755,o),
(457,829,o),
(510,829,qs),
(450,829,ls),
(503,829,o),
(575,755,o),
(575,653,o),
(503,579,o),
(450,579,qs),
(510,579,ls)
);
},
{
closed = 1;
nodes = (
(17,707,o),
(-63,781,o),
(-63,883,o),
(17,957,o),
(87,957,qs),
(425,957,ls),
(495,957,o),
(575,883,o),
(575,781,o),
(495,707,o),
(425,707,qs),
(87,707,ls)
);
}
);
};
layerId = "164C8123-3F0E-4C99-877D-0E85C432A9CE";
shapes = (
{
closed = 1;
nodes = (
(0,1024,l),
(512,1024,l),
(512,-256,l),
(0,-256,l)
);
}
);
width = 512;
},
{
layerId = "EDC3ADDC-530C-4ECE-AAC6-732B149A8D4A";
shapes = (
{
closed = 1;
nodes = (
(0,1024,l),
(512,1024,l),
(512,-256,l),
(0,-256,l)
);
}
);
width = 512;
},
{
layerId = "38088322-78A3-4F4F-B46E-F8355B0BCD96";
shapes = (
{
closed = 1;
nodes = (
(0,1024,l),
(512,1024,l),
(512,-256,l),
(0,-256,l)
);
}
);
width = 512;
}
);
},
{
color = 3;
glyphname = ellipsis;
layers = (
{
layerId = "EF047752-ED93-49D3-A4D1-D66A6AAE90C7";
shapes = (
{
pos = (64,0);
ref = pixel.1;
},
{
pos = (192,0);
ref = pixel.1;
},
{
pos = (320,0);
ref = pixel.1;
},
{
pos = (64,128);
ref = pixel.1;
},
{
pos = (192,128);
ref = pixel.1;
},
{
pos = (320,128);
ref = pixel.1;
}
);
width = 512;
},
{
background = {
shapes = (
{
closed = 1;
nodes = (
(73,-61,o),
(1,13,o),
(1,115,o),
(73,189,o),
(126,189,qs),
(66,189,ls),
(119,189,o),
(191,115,o),
(191,13,o),
(119,-61,o),
(66,-61,qs),
(126,-61,ls)
);
},
{
closed = 1;
nodes = (
(201,-61,o),
(129,13,o),
(129,115,o),
(201,189,o),
(254,189,qs),
(194,189,ls),
(247,189,o),
(319,115,o),
(319,13,o),
(247,-61,o),
(194,-61,qs),
(254,-61,ls)
);
},
{
closed = 1;
nodes = (
(329,-61,o),
(257,13,o),
(257,115,o),
(329,189,o),
(382,189,qs),
(322,189,ls),
(375,189,o),
(447,115,o),
(447,13,o),
(375,-61,o),
(322,-61,qs),
(382,-61,ls)
);
},
{
closed = 1;
nodes = (
(73,67,o),
(1,141,o),
(1,243,o),
(73,317,o),
(126,317,qs),
(66,317,ls),
(119,317,o),
(191,243,o),
(191,141,o),
(119,67,o),
(66,67,qs),
(126,67,ls)
);
},
{
closed = 1;
nodes = (
(201,67,o),
(129,141,o),
(129,243,o),
(201,317,o),
(254,317,qs),
(194,317,ls),
(247,317,o),
(319,243,o),
(319,141,o),
(247,67,o),
(194,67,qs),
(254,67,ls)
);
},
{
closed = 1;
nodes = (
(329,67,o),
(257,141,o),
(257,243,o),
(329,317,o),
(382,317,qs),
(322,317,ls),
(375,317,o),
(447,243,o),
(447,141,o),
(375,67,o),
(322,67,qs),
(382,67,ls)
);
}
);
};
layerId = "164C8123-3F0E-4C99-877D-0E85C432A9CE";
shapes = (
{
pos = (64,0);
ref = pixel.1;
},
{
pos = (192,0);
ref = pixel.1;
},
{
pos = (320,0);
ref = pixel.1;
},
{
pos = (64,128);
ref = pixel.1;
},
{
pos = (192,128);
ref = pixel.1;
},
{
pos = (320,128);
ref = pixel.1;
}
);
width = 512;
},
{
layerId = "EDC3ADDC-530C-4ECE-AAC6-732B149A8D4A";
shapes = (
{
pos = (64,0);
ref = pixel.1;
},
{
pos = (192,0);
ref = pixel.1;
},
{
pos = (320,0);
ref = pixel.1;
},
{
pos = (64,128);
ref = pixel.1;
},
{
pos = (192,128);
ref = pixel.1;
},
{
pos = (320,128);
ref = pixel.1;
}
);
width = 512;
},
{
layerId = "38088322-78A3-4F4F-B46E-F8355B0BCD96";
shapes = (
{
pos = (64,0);
ref = pixel.1;
},
{
pos = (192,0);
ref = pixel.1;
},
{
pos = (320,0);
ref = pixel.1;
},
{
pos = (64,128);
ref = pixel.1;
},
{
pos = (192,128);
ref = pixel.1;
},
{
pos = (320,128);
ref = pixel.1;
}
);
width = 512;
}
);
unicode = 8230;
},
{
glyphname = ampersand;
layers = (
{
layerId = "EF047752-ED93-49D3-A4D1-D66A6AAE90C7";
shapes = (
{
pos = (128,0);
ref = pixel.3;
},
{
pos = (384,0);
ref = pixel.2;
},
{
pos = (64,128);
ref = pixel.2;
},
{
pos = (320,128);
ref = pixel.2;
},
{
pos = (64,256);
ref = pixel.2;
},
{
pos = (256,256);
ref = pixel.3;
},
{
pos = (128,384);
ref = pixel.3;
},
{
pos = (384,384);
ref = pixel.2;
},
{
pos = (128,512);
ref = pixel.2;
},
{
pos = (320,512);
ref = pixel.1;
},
{
pos = (128,640);
ref = pixel.2;
},
{
pos = (320,640);
ref = pixel.2;
},
{
pos = (192,768);
ref = pixel.3;
}
);
width = 512;
},
{
background = {
shapes = (
{
closed = 1;
nodes = (
(137,-61,o),
(65,13,o),
(65,115,o),
(137,189,o),
(190,189,qs),
(258,189,ls),
(311,189,o),
(383,115,o),
(383,13,o),
(311,-61,o),
(258,-61,qs),
(190,-61,ls)
);
},
{
closed = 1;
nodes = (
(393,-61,o),
(321,13,o),
(321,115,o),
(393,189,o),
(446,189,qs),
(450,189,ls),
(503,189,o),
(575,115,o),
(575,13,o),
(503,-61,o),
(450,-61,qs),
(446,-61,ls)
);
},
{
closed = 1;
nodes = (
(73,67,o),
(1,141,o),
(1,243,o),
(73,317,o),
(126,317,qs),
(130,317,ls),
(183,317,o),
(255,243,o),
(255,141,o),
(183,67,o),
(130,67,qs),
(126,67,ls)
);
},
{
closed = 1;
nodes = (
(329,67,o),
(257,141,o),
(257,243,o),
(329,317,o),
(382,317,qs),
(386,317,ls),
(439,317,o),
(511,243,o),
(511,141,o),
(439,67,o),
(386,67,qs),
(382,67,ls)
);
},
{
closed = 1;
nodes = (
(73,195,o),
(1,269,o),
(1,371,o),
(73,445,o),
(126,445,qs),
(130,445,ls),
(183,445,o),
(255,371,o),
(255,269,o),
(183,195,o),
(130,195,qs),
(126,195,ls)
);
},
{
closed = 1;
nodes = (
(265,195,o),
(193,269,o),
(193,371,o),
(265,445,o),
(318,445,qs),
(386,445,ls),
(439,445,o),
(511,371,o),
(511,269,o),
(439,195,o),
(386,195,qs),
(318,195,ls)
);
},
{
closed = 1;
nodes = (
(137,323,o),
(65,397,o),
(65,499,o),
(137,573,o),
(190,573,qs),
(258,573,ls),
(311,573,o),
(383,499,o),
(383,397,o),
(311,323,o),
(258,323,qs),
(190,323,ls)
);
},
{
closed = 1;
nodes = (
(393,323,o),
(321,397,o),
(321,499,o),
(393,573,o),
(446,573,qs),
(450,573,ls),
(503,573,o),
(575,499,o),
(575,397,o),
(503,323,o),
(450,323,qs),
(446,323,ls)
);
},
{
closed = 1;
nodes = (
(137,451,o),
(65,525,o),
(65,627,o),
(137,701,o),
(190,701,qs),
(194,701,ls),
(247,701,o),
(319,627,o),
(319,525,o),
(247,451,o),
(194,451,qs),
(190,451,ls)
);
},
{
closed = 1;
nodes = (
(329,451,o),
(257,525,o),
(257,627,o),
(329,701,o),
(382,701,qs),
(322,701,ls),
(375,701,o),
(447,627,o),
(447,525,o),
(375,451,o),
(322,451,qs),
(382,451,ls)
);
},
{
closed = 1;
nodes = (
(137,579,o),
(65,653,o),
(65,755,o),
(137,829,o),
(190,829,qs),
(194,829,ls),
(247,829,o),
(319,755,o),
(319,653,o),
(247,579,o),
(194,579,qs),
(190,579,ls)
);
},
{
closed = 1;
nodes = (
(329,579,o),
(257,653,o),
(257,755,o),
(329,829,o),
(382,829,qs),
(386,829,ls),
(439,829,o),
(511,755,o),
(511,653,o),
(439,579,o),
(386,579,qs),
(382,579,ls)
);
},
{
closed = 1;
nodes = (
(201,707,o),
(129,781,o),
(129,883,o),
(201,957,o),
(254,957,qs),
(322,957,ls),
(375,957,o),
(447,883,o),
(447,781,o),
(375,707,o),
(322,707,qs),
(254,707,ls)
);
}
);
};
layerId = "164C8123-3F0E-4C99-877D-0E85C432A9CE";
shapes = (
{
pos = (128,0);
ref = pixel.3;
},
{
pos = (384,0);
ref = pixel.2;
},
{
pos = (64,128);
ref = pixel.2;
},
{
pos = (320,128);
ref = pixel.2;
},
{
pos = (64,256);
ref = pixel.2;
},
{
pos = (256,256);
ref = pixel.3;
},
{
pos = (128,384);
ref = pixel.3;
},
{
pos = (384,384);
ref = pixel.2;
},
{
pos = (128,512);
ref = pixel.2;
},
{
pos = (320,512);
ref = pixel.1;
},
{
pos = (128,640);
ref = pixel.2;
},
{
pos = (320,640);
ref = pixel.2;
},
{
pos = (192,768);
ref = pixel.3;
}
);
width = 512;
},
{
layerId = "EDC3ADDC-530C-4ECE-AAC6-732B149A8D4A";
shapes = (
{
pos = (128,0);
ref = pixel.3;
},
{
pos = (384,0);
ref = pixel.2;
},
{
pos = (64,128);
ref = pixel.2;
},
{
pos = (320,128);
ref = pixel.2;
},
{
pos = (64,256);
ref = pixel.2;
},
{
pos = (256,256);
ref = pixel.3;
},
{
pos = (128,384);
ref = pixel.3;
},
{
pos = (384,384);
ref = pixel.2;
},
{
pos = (128,512);
ref = pixel.2;
},
{
pos = (320,512);
ref = pixel.1;
},
{
pos = (128,640);
ref = pixel.2;
},
{
pos = (320,640);
ref = pixel.2;
},
{
pos = (192,768);
ref = pixel.3;
}
);
width = 512;
},
{
layerId = "38088322-78A3-4F4F-B46E-F8355B0BCD96";
shapes = (
{
pos = (128,0);
ref = pixel.3;
},
{
pos = (384,0);
ref = pixel.2;
},
{
pos = (64,128);
ref = pixel.2;
},
{
pos = (320,128);
ref = pixel.2;
},
{
pos = (64,256);
ref = pixel.2;
},
{
pos = (256,256);
ref = pixel.3;
},
{
pos = (128,384);
ref = pixel.3;
},
{
pos = (384,384);
ref = pixel.2;
},
{
pos = (128,512);
ref = pixel.2;
},
{
pos = (320,512);
ref = pixel.1;
},
{
pos = (128,640);
ref = pixel.2;
},
{
pos = (320,640);
ref = pixel.2;
},
{
pos = (192,768);
ref = pixel.3;
}
);
width = 512;
}
);
unicode = 38;
},
{
glyphname = paragraph;
layers = (
{
layerId = "EF047752-ED93-49D3-A4D1-D66A6AAE90C7";
shapes = (
{
pos = (192,0);
ref = pixel.1;
},
{
pos = (320,0);
ref = pixel.1;
},
{
pos = (192,128);
ref = pixel.1;
},
{
pos = (320,128);
ref = pixel.1;
},
{
pos = (192,256);
ref = pixel.1;
},
{
pos = (320,256);
ref = pixel.1;
},
{
pos = (64,384);
ref = pixel.3;
},
{
pos = (320,384);
ref = pixel.1;
},
{
pos = (0,512);
ref = pixel.4;
},
{
pos = (320,512);
ref = pixel.1;
},
{
pos = (0,640);
ref = pixel.4;
},
{
pos = (320,640);
ref = pixel.1;
},
{
pos = (64,768);
ref = pixel.6;
}
);
width = 512;
},
{
background = {
shapes = (
{
closed = 1;
nodes = (
(201,-61,o),
(129,13,o),
(129,115,o),
(201,189,o),
(254,189,qs),
(194,189,ls),
(247,189,o),
(319,115,o),
(319,13,o),
(247,-61,o),
(194,-61,qs),
(254,-61,ls)
);
},
{
closed = 1;
nodes = (
(329,-61,o),
(257,13,o),
(257,115,o),
(329,189,o),
(382,189,qs),
(322,189,ls),
(375,189,o),
(447,115,o),
(447,13,o),
(375,-61,o),
(322,-61,qs),
(382,-61,ls)
);
},
{
closed = 1;
nodes = (
(201,67,o),
(129,141,o),
(129,243,o),
(201,317,o),
(254,317,qs),
(194,317,ls),
(247,317,o),
(319,243,o),
(319,141,o),
(247,67,o),
(194,67,qs),
(254,67,ls)
);
},
{
closed = 1;
nodes = (
(329,67,o),
(257,141,o),
(257,243,o),
(329,317,o),
(382,317,qs),
(322,317,ls),
(375,317,o),
(447,243,o),
(447,141,o),
(375,67,o),
(322,67,qs),
(382,67,ls)
);
},
{
closed = 1;
nodes = (
(201,195,o),
(129,269,o),
(129,371,o),
(201,445,o),
(254,445,qs),
(194,445,ls),
(247,445,o),
(319,371,o),
(319,269,o),
(247,195,o),
(194,195,qs),
(254,195,ls)
);
},
{
closed = 1;
nodes = (
(329,195,o),
(257,269,o),
(257,371,o),
(329,445,o),
(382,445,qs),
(322,445,ls),
(375,445,o),
(447,371,o),
(447,269,o),
(375,195,o),
(322,195,qs),
(382,195,ls)
);
},
{
closed = 1;
nodes = (
(73,323,o),
(1,397,o),
(1,499,o),
(73,573,o),
(126,573,qs),
(194,573,ls),
(247,573,o),
(319,499,o),
(319,397,o),
(247,323,o),
(194,323,qs),
(126,323,ls)
);
},
{
closed = 1;
nodes = (
(329,323,o),
(257,397,o),
(257,499,o),
(329,573,o),
(382,573,qs),
(322,573,ls),
(375,573,o),
(447,499,o),
(447,397,o),
(375,323,o),
(322,323,qs),
(382,323,ls)
);
},
{
closed = 1;
nodes = (
(17,451,o),
(-63,525,o),
(-63,627,o),
(17,701,o),
(87,701,qs),
(169,701,ls),
(239,701,o),
(319,627,o),
(319,525,o),
(239,451,o),
(169,451,qs),
(87,451,ls)
);
},
{
closed = 1;
nodes = (
(329,451,o),
(257,525,o),
(257,627,o),
(329,701,o),
(382,701,qs),
(322,701,ls),
(375,701,o),
(447,627,o),
(447,525,o),
(375,451,o),
(322,451,qs),
(382,451,ls)
);
},
{
closed = 1;
nodes = (
(17,579,o),
(-63,653,o),
(-63,755,o),
(17,829,o),
(87,829,qs),
(169,829,ls),
(239,829,o),
(319,755,o),
(319,653,o),
(239,579,o),
(169,579,qs),
(87,579,ls)
);
},
{
closed = 1;
nodes = (
(329,579,o),
(257,653,o),
(257,755,o),
(329,829,o),
(382,829,qs),
(322,829,ls),
(375,829,o),
(447,755,o),
(447,653,o),
(375,579,o),
(322,579,qs),
(382,579,ls)
);
},
{
closed = 1;
nodes = (
(81,707,o),
(1,781,o),
(1,883,o),
(81,957,o),
(151,957,qs),
(361,957,ls),
(431,957,o),
(511,883,o),
(511,781,o),
(431,707,o),
(361,707,qs),
(151,707,ls)
);
}
);
};
layerId = "164C8123-3F0E-4C99-877D-0E85C432A9CE";
shapes = (
{
pos = (192,0);
ref = pixel.1;
},
{
pos = (320,0);
ref = pixel.1;
},
{
pos = (192,128);
ref = pixel.1;
},
{
pos = (320,128);
ref = pixel.1;
},
{
pos = (192,256);
ref = pixel.1;
},
{
pos = (320,256);
ref = pixel.1;
},
{
pos = (64,384);
ref = pixel.3;
},
{
pos = (320,384);
ref = pixel.1;
},
{
pos = (0,512);
ref = pixel.4;
},
{
pos = (320,512);
ref = pixel.1;
},
{
pos = (0,640);
ref = pixel.4;
},
{
pos = (320,640);
ref = pixel.1;
},
{
pos = (64,768);
ref = pixel.6;
}
);
width = 512;
},
{
layerId = "EDC3ADDC-530C-4ECE-AAC6-732B149A8D4A";
shapes = (
{
pos = (192,0);
ref = pixel.1;
},
{
pos = (320,0);
ref = pixel.1;
},
{
pos = (192,128);
ref = pixel.1;
},
{
pos = (320,128);
ref = pixel.1;
},
{
pos = (192,256);
ref = pixel.1;
},
{
pos = (320,256);
ref = pixel.1;
},
{
pos = (64,384);
ref = pixel.3;
},
{
pos = (320,384);
ref = pixel.1;
},
{
pos = (0,512);
ref = pixel.4;
},
{
pos = (320,512);
ref = pixel.1;
},
{
pos = (0,640);
ref = pixel.4;
},
{
pos = (320,640);
ref = pixel.1;
},
{
pos = (64,768);
ref = pixel.6;
}
);
width = 512;
},
{
layerId = "38088322-78A3-4F4F-B46E-F8355B0BCD96";
shapes = (
{
pos = (192,0);
ref = pixel.1;
},
{
pos = (320,0);
ref = pixel.1;
},
{
pos = (192,128);
ref = pixel.1;
},
{
pos = (320,128);
ref = pixel.1;
},
{
pos = (192,256);
ref = pixel.1;
},
{
pos = (320,256);
ref = pixel.1;
},
{
pos = (64,384);
ref = pixel.3;
},
{
pos = (320,384);
ref = pixel.1;
},
{
pos = (0,512);
ref = pixel.4;
},
{
pos = (320,512);
ref = pixel.1;
},
{
pos = (0,640);
ref = pixel.4;
},
{
pos = (320,640);
ref = pixel.1;
},
{
pos = (64,768);
ref = pixel.6;
}
);
width = 512;
}
);
unicode = 182;
},
{
glyphname = section;
layers = (
{
layerId = "EF047752-ED93-49D3-A4D1-D66A6AAE90C7";
shapes = (
{
pos = (128,0);
ref = pixel.4;
},
{
pos = (384,128);
ref = pixel.1;
},
{
pos = (128,256);
ref = pixel.4;
},
{
pos = (64,384);
ref = pixel.2;
},
{
pos = (320,384);
ref = pixel.2;
},
{
pos = (128,512);
ref = pixel.4;
},
{
pos = (64,640);
ref = pixel.1;
},
{
pos = (128,768);
ref = pixel.4;
}
);
width = 512;
},
{
background = {
shapes = (
{
closed = 1;
nodes = (
(145,-61,o),
(65,13,o),
(65,115,o),
(145,189,o),
(215,189,qs),
(297,189,ls),
(367,189,o),
(447,115,o),
(447,13,o),
(367,-61,o),
(297,-61,qs),
(215,-61,ls)
);
},
{
closed = 1;
nodes = (
(393,67,o),
(321,141,o),
(321,243,o),
(393,317,o),
(446,317,qs),
(386,317,ls),
(439,317,o),
(511,243,o),
(511,141,o),
(439,67,o),
(386,67,qs),
(446,67,ls)
);
},
{
closed = 1;
nodes = (
(145,195,o),
(65,269,o),
(65,371,o),
(145,445,o),
(215,445,qs),
(297,445,ls),
(367,445,o),
(447,371,o),
(447,269,o),
(367,195,o),
(297,195,qs),
(215,195,ls)
);
},
{
closed = 1;
nodes = (
(73,323,o),
(1,397,o),
(1,499,o),
(73,573,o),
(126,573,qs),
(130,573,ls),
(183,573,o),
(255,499,o),
(255,397,o),
(183,323,o),
(130,323,qs),
(126,323,ls)
);
},
{
closed = 1;
nodes = (
(329,323,o),
(257,397,o),
(257,499,o),
(329,573,o),
(382,573,qs),
(386,573,ls),
(439,573,o),
(511,499,o),
(511,397,o),
(439,323,o),
(386,323,qs),
(382,323,ls)
);
},
{
closed = 1;
nodes = (
(145,451,o),
(65,525,o),
(65,627,o),
(145,701,o),
(215,701,qs),
(297,701,ls),
(367,701,o),
(447,627,o),
(447,525,o),
(367,451,o),
(297,451,qs),
(215,451,ls)
);
},
{
closed = 1;
nodes = (
(73,579,o),
(1,653,o),
(1,755,o),
(73,829,o),
(126,829,qs),
(66,829,ls),
(119,829,o),
(191,755,o),
(191,653,o),
(119,579,o),
(66,579,qs),
(126,579,ls)
);
},
{
closed = 1;
nodes = (
(145,707,o),
(65,781,o),
(65,883,o),
(145,957,o),
(215,957,qs),
(297,957,ls),
(367,957,o),
(447,883,o),
(447,781,o),
(367,707,o),
(297,707,qs),
(215,707,ls)
);
}
);
};
layerId = "164C8123-3F0E-4C99-877D-0E85C432A9CE";
shapes = (
{
pos = (128,0);
ref = pixel.4;
},
{
pos = (384,128);
ref = pixel.1;
},
{
pos = (128,256);
ref = pixel.4;
},
{
pos = (64,384);
ref = pixel.2;
},
{
pos = (320,384);
ref = pixel.2;
},
{
pos = (128,512);
ref = pixel.4;
},
{
pos = (64,640);
ref = pixel.1;
},
{
pos = (128,768);
ref = pixel.4;
}
);
width = 512;
},
{
layerId = "EDC3ADDC-530C-4ECE-AAC6-732B149A8D4A";
shapes = (
{
pos = (128,0);
ref = pixel.4;
},
{
pos = (384,128);
ref = pixel.1;
},
{
pos = (128,256);
ref = pixel.4;
},
{
pos = (64,384);
ref = pixel.2;
},
{
pos = (320,384);
ref = pixel.2;
},
{
pos = (128,512);
ref = pixel.4;
},
{
pos = (64,640);
ref = pixel.1;
},
{
pos = (128,768);
ref = pixel.4;
}
);
width = 512;
},
{
layerId = "38088322-78A3-4F4F-B46E-F8355B0BCD96";
shapes = (
{
pos = (128,0);
ref = pixel.4;
},
{
pos = (384,128);
ref = pixel.1;
},
{
pos = (128,256);
ref = pixel.4;
},
{
pos = (64,384);
ref = pixel.2;
},
{
pos = (320,384);
ref = pixel.2;
},
{
pos = (128,512);
ref = pixel.4;
},
{
pos = (64,640);
ref = pixel.1;
},
{
pos = (128,768);
ref = pixel.4;
}
);
width = 512;
}
);
unicode = 167;
},
{
glyphname = copyright;
layers = (
{
layerId = "EF047752-ED93-49D3-A4D1-D66A6AAE90C7";
shapes = (
{
pos = (64,-128);
ref = pixel.6;
},
{
ref = pixel.1;
},
{
pos = (448,0);
ref = pixel.1;
},
{
pos = (0,128);
ref = pixel.1;
},
{
pos = (192,128);
ref = pixel.3;
},
{
pos = (448,128);
ref = pixel.1;
},
{
pos = (0,256);
ref = pixel.1;
},
{
pos = (128,256);
ref = pixel.2;
},
{
pos = (448,256);
ref = pixel.1;
},
{
pos = (0,384);
ref = pixel.1;
},
{
pos = (128,384);
ref = pixel.2;
},
{
pos = (448,384);
ref = pixel.1;
},
{
pos = (0,512);
ref = pixel.1;
},
{
pos = (192,512);
ref = pixel.3;
},
{
pos = (448,512);
ref = pixel.1;
},
{
pos = (0,640);
ref = pixel.1;
},
{
pos = (448,640);
ref = pixel.1;
},
{
pos = (64,768);
ref = pixel.6;
}
);
width = 512;
},
{
background = {
shapes = (
{
closed = 1;
nodes = (
(81,-189,o),
(1,-115,o),
(1,-13,o),
(81,61,o),
(151,61,qs),
(361,61,ls),
(431,61,o),
(511,-13,o),
(511,-115,o),
(431,-189,o),
(361,-189,qs),
(151,-189,ls)
);
},
{
closed = 1;
nodes = (
(9,-61,o),
(-63,13,o),
(-63,115,o),
(9,189,o),
(62,189,qs),
(2,189,ls),
(55,189,o),
(127,115,o),
(127,13,o),
(55,-61,o),
(2,-61,qs),
(62,-61,ls)
);
},
{
closed = 1;
nodes = (
(457,-61,o),
(385,13,o),
(385,115,o),
(457,189,o),
(510,189,qs),
(450,189,ls),
(503,189,o),
(575,115,o),
(575,13,o),
(503,-61,o),
(450,-61,qs),
(510,-61,ls)
);
},
{
closed = 1;
nodes = (
(9,67,o),
(-63,141,o),
(-63,243,o),
(9,317,o),
(62,317,qs),
(2,317,ls),
(55,317,o),
(127,243,o),
(127,141,o),
(55,67,o),
(2,67,qs),
(62,67,ls)
);
},
{
closed = 1;
nodes = (
(201,67,o),
(129,141,o),
(129,243,o),
(201,317,o),
(254,317,qs),
(322,317,ls),
(375,317,o),
(447,243,o),
(447,141,o),
(375,67,o),
(322,67,qs),
(254,67,ls)
);
},
{
closed = 1;
nodes = (
(457,67,o),
(385,141,o),
(385,243,o),
(457,317,o),
(510,317,qs),
(450,317,ls),
(503,317,o),
(575,243,o),
(575,141,o),
(503,67,o),
(450,67,qs),
(510,67,ls)
);
},
{
closed = 1;
nodes = (
(9,195,o),
(-63,269,o),
(-63,371,o),
(9,445,o),
(62,445,qs),
(2,445,ls),
(55,445,o),
(127,371,o),
(127,269,o),
(55,195,o),
(2,195,qs),
(62,195,ls)
);
},
{
closed = 1;
nodes = (
(137,195,o),
(65,269,o),
(65,371,o),
(137,445,o),
(190,445,qs),
(194,445,ls),
(247,445,o),
(319,371,o),
(319,269,o),
(247,195,o),
(194,195,qs),
(190,195,ls)
);
},
{
closed = 1;
nodes = (
(457,195,o),
(385,269,o),
(385,371,o),
(457,445,o),
(510,445,qs),
(450,445,ls),
(503,445,o),
(575,371,o),
(575,269,o),
(503,195,o),
(450,195,qs),
(510,195,ls)
);
},
{
closed = 1;
nodes = (
(9,323,o),
(-63,397,o),
(-63,499,o),
(9,573,o),
(62,573,qs),
(2,573,ls),
(55,573,o),
(127,499,o),
(127,397,o),
(55,323,o),
(2,323,qs),
(62,323,ls)
);
},
{
closed = 1;
nodes = (
(137,323,o),
(65,397,o),
(65,499,o),
(137,573,o),
(190,573,qs),
(194,573,ls),
(247,573,o),
(319,499,o),
(319,397,o),
(247,323,o),
(194,323,qs),
(190,323,ls)
);
},
{
closed = 1;
nodes = (
(457,323,o),
(385,397,o),
(385,499,o),
(457,573,o),
(510,573,qs),
(450,573,ls),
(503,573,o),
(575,499,o),
(575,397,o),
(503,323,o),
(450,323,qs),
(510,323,ls)
);
},
{
closed = 1;
nodes = (
(9,451,o),
(-63,525,o),
(-63,627,o),
(9,701,o),
(62,701,qs),
(2,701,ls),
(55,701,o),
(127,627,o),
(127,525,o),
(55,451,o),
(2,451,qs),
(62,451,ls)
);
},
{
closed = 1;
nodes = (
(201,451,o),
(129,525,o),
(129,627,o),
(201,701,o),
(254,701,qs),
(322,701,ls),
(375,701,o),
(447,627,o),
(447,525,o),
(375,451,o),
(322,451,qs),
(254,451,ls)
);
},
{
closed = 1;
nodes = (
(457,451,o),
(385,525,o),
(385,627,o),
(457,701,o),
(510,701,qs),
(450,701,ls),
(503,701,o),
(575,627,o),
(575,525,o),
(503,451,o),
(450,451,qs),
(510,451,ls)
);
},
{
closed = 1;
nodes = (
(9,579,o),
(-63,653,o),
(-63,755,o),
(9,829,o),
(62,829,qs),
(2,829,ls),
(55,829,o),
(127,755,o),
(127,653,o),
(55,579,o),
(2,579,qs),
(62,579,ls)
);
},
{
closed = 1;
nodes = (
(457,579,o),
(385,653,o),
(385,755,o),
(457,829,o),
(510,829,qs),
(450,829,ls),
(503,829,o),
(575,755,o),
(575,653,o),
(503,579,o),
(450,579,qs),
(510,579,ls)
);
},
{
closed = 1;
nodes = (
(81,707,o),
(1,781,o),
(1,883,o),
(81,957,o),
(151,957,qs),
(361,957,ls),
(431,957,o),
(511,883,o),
(511,781,o),
(431,707,o),
(361,707,qs),
(151,707,ls)
);
}
);
};
layerId = "164C8123-3F0E-4C99-877D-0E85C432A9CE";
shapes = (
{
pos = (64,-128);
ref = pixel.6;
},
{
ref = pixel.1;
},
{
pos = (448,0);
ref = pixel.1;
},
{
pos = (0,128);
ref = pixel.1;
},
{
pos = (192,128);
ref = pixel.3;
},
{
pos = (448,128);
ref = pixel.1;
},
{
pos = (0,256);
ref = pixel.1;
},
{
pos = (128,256);
ref = pixel.2;
},
{
pos = (448,256);
ref = pixel.1;
},
{
pos = (0,384);
ref = pixel.1;
},
{
pos = (128,384);
ref = pixel.2;
},
{
pos = (448,384);
ref = pixel.1;
},
{
pos = (0,512);
ref = pixel.1;
},
{
pos = (192,512);
ref = pixel.3;
},
{
pos = (448,512);
ref = pixel.1;
},
{
pos = (0,640);
ref = pixel.1;
},
{
pos = (448,640);
ref = pixel.1;
},
{
pos = (64,768);
ref = pixel.6;
}
);
width = 512;
},
{
layerId = "EDC3ADDC-530C-4ECE-AAC6-732B149A8D4A";
shapes = (
{
pos = (64,-128);
ref = pixel.6;
},
{
ref = pixel.1;
},
{
pos = (448,0);
ref = pixel.1;
},
{
pos = (0,128);
ref = pixel.1;
},
{
pos = (192,128);
ref = pixel.3;
},
{
pos = (448,128);
ref = pixel.1;
},
{
pos = (0,256);
ref = pixel.1;
},
{
pos = (128,256);
ref = pixel.2;
},
{
pos = (448,256);
ref = pixel.1;
},
{
pos = (0,384);
ref = pixel.1;
},
{
pos = (128,384);
ref = pixel.2;
},
{
pos = (448,384);
ref = pixel.1;
},
{
pos = (0,512);
ref = pixel.1;
},
{
pos = (192,512);
ref = pixel.3;
},
{
pos = (448,512);
ref = pixel.1;
},
{
pos = (0,640);
ref = pixel.1;
},
{
pos = (448,640);
ref = pixel.1;
},
{
pos = (64,768);
ref = pixel.6;
}
);
width = 512;
},
{
layerId = "38088322-78A3-4F4F-B46E-F8355B0BCD96";
shapes = (
{
pos = (64,-128);
ref = pixel.6;
},
{
ref = pixel.1;
},
{
pos = (448,0);
ref = pixel.1;
},
{
pos = (0,128);
ref = pixel.1;
},
{
pos = (192,128);
ref = pixel.3;
},
{
pos = (448,128);
ref = pixel.1;
},
{
pos = (0,256);
ref = pixel.1;
},
{
pos = (128,256);
ref = pixel.2;
},
{
pos = (448,256);
ref = pixel.1;
},
{
pos = (0,384);
ref = pixel.1;
},
{
pos = (128,384);
ref = pixel.2;
},
{
pos = (448,384);
ref = pixel.1;
},
{
pos = (0,512);
ref = pixel.1;
},
{
pos = (192,512);
ref = pixel.3;
},
{
pos = (448,512);
ref = pixel.1;
},
{
pos = (0,640);
ref = pixel.1;
},
{
pos = (448,640);
ref = pixel.1;
},
{
pos = (64,768);
ref = pixel.6;
}
);
width = 512;
}
);
unicode = 169;
},
{
glyphname = registered;
layers = (
{
layerId = "EF047752-ED93-49D3-A4D1-D66A6AAE90C7";
shapes = (
{
pos = (64,-128);
ref = pixel.6;
},
{
ref = pixel.1;
},
{
pos = (448,0);
ref = pixel.1;
},
{
pos = (0,128);
ref = pixel.1;
},
{
pos = (128,128);
ref = pixel.1;
},
{
pos = (256,128);
ref = pixel.1;
},
{
pos = (448,128);
ref = pixel.1;
},
{
pos = (0,256);
ref = pixel.1;
},
{
pos = (128,256);
ref = pixel.2;
},
{
pos = (448,256);
ref = pixel.1;
},
{
pos = (0,384);
ref = pixel.1;
},
{
pos = (128,384);
ref = pixel.3;
},
{
pos = (448,384);
ref = pixel.1;
},
{
pos = (0,512);
ref = pixel.1;
},
{
pos = (128,512);
ref = pixel.3;
},
{
pos = (448,512);
ref = pixel.1;
},
{
pos = (0,640);
ref = pixel.1;
},
{
pos = (448,640);
ref = pixel.1;
},
{
pos = (64,768);
ref = pixel.6;
}
);
width = 512;
},
{
background = {
shapes = (
{
closed = 1;
nodes = (
(81,-189,o),
(1,-115,o),
(1,-13,o),
(81,61,o),
(151,61,qs),
(361,61,ls),
(431,61,o),
(511,-13,o),
(511,-115,o),
(431,-189,o),
(361,-189,qs),
(151,-189,ls)
);
},
{
closed = 1;
nodes = (
(9,-61,o),
(-63,13,o),
(-63,115,o),
(9,189,o),
(62,189,qs),
(2,189,ls),
(55,189,o),
(127,115,o),
(127,13,o),
(55,-61,o),
(2,-61,qs),
(62,-61,ls)
);
},
{
closed = 1;
nodes = (
(457,-61,o),
(385,13,o),
(385,115,o),
(457,189,o),
(510,189,qs),
(450,189,ls),
(503,189,o),
(575,115,o),
(575,13,o),
(503,-61,o),
(450,-61,qs),
(510,-61,ls)
);
},
{
closed = 1;
nodes = (
(9,67,o),
(-63,141,o),
(-63,243,o),
(9,317,o),
(62,317,qs),
(2,317,ls),
(55,317,o),
(127,243,o),
(127,141,o),
(55,67,o),
(2,67,qs),
(62,67,ls)
);
},
{
closed = 1;
nodes = (
(137,67,o),
(65,141,o),
(65,243,o),
(137,317,o),
(190,317,qs),
(130,317,ls),
(183,317,o),
(255,243,o),
(255,141,o),
(183,67,o),
(130,67,qs),
(190,67,ls)
);
},
{
closed = 1;
nodes = (
(265,67,o),
(193,141,o),
(193,243,o),
(265,317,o),
(318,317,qs),
(258,317,ls),
(311,317,o),
(383,243,o),
(383,141,o),
(311,67,o),
(258,67,qs),
(318,67,ls)
);
},
{
closed = 1;
nodes = (
(457,67,o),
(385,141,o),
(385,243,o),
(457,317,o),
(510,317,qs),
(450,317,ls),
(503,317,o),
(575,243,o),
(575,141,o),
(503,67,o),
(450,67,qs),
(510,67,ls)
);
},
{
closed = 1;
nodes = (
(9,195,o),
(-63,269,o),
(-63,371,o),
(9,445,o),
(62,445,qs),
(2,445,ls),
(55,445,o),
(127,371,o),
(127,269,o),
(55,195,o),
(2,195,qs),
(62,195,ls)
);
},
{
closed = 1;
nodes = (
(137,195,o),
(65,269,o),
(65,371,o),
(137,445,o),
(190,445,qs),
(194,445,ls),
(247,445,o),
(319,371,o),
(319,269,o),
(247,195,o),
(194,195,qs),
(190,195,ls)
);
},
{
closed = 1;
nodes = (
(457,195,o),
(385,269,o),
(385,371,o),
(457,445,o),
(510,445,qs),
(450,445,ls),
(503,445,o),
(575,371,o),
(575,269,o),
(503,195,o),
(450,195,qs),
(510,195,ls)
);
},
{
closed = 1;
nodes = (
(9,323,o),
(-63,397,o),
(-63,499,o),
(9,573,o),
(62,573,qs),
(2,573,ls),
(55,573,o),
(127,499,o),
(127,397,o),
(55,323,o),
(2,323,qs),
(62,323,ls)
);
},
{
closed = 1;
nodes = (
(137,323,o),
(65,397,o),
(65,499,o),
(137,573,o),
(190,573,qs),
(258,573,ls),
(311,573,o),
(383,499,o),
(383,397,o),
(311,323,o),
(258,323,qs),
(190,323,ls)
);
},
{
closed = 1;
nodes = (
(457,323,o),
(385,397,o),
(385,499,o),
(457,573,o),
(510,573,qs),
(450,573,ls),
(503,573,o),
(575,499,o),
(575,397,o),
(503,323,o),
(450,323,qs),
(510,323,ls)
);
},
{
closed = 1;
nodes = (
(9,451,o),
(-63,525,o),
(-63,627,o),
(9,701,o),
(62,701,qs),
(2,701,ls),
(55,701,o),
(127,627,o),
(127,525,o),
(55,451,o),
(2,451,qs),
(62,451,ls)
);
},
{
closed = 1;
nodes = (
(137,451,o),
(65,525,o),
(65,627,o),
(137,701,o),
(190,701,qs),
(258,701,ls),
(311,701,o),
(383,627,o),
(383,525,o),
(311,451,o),
(258,451,qs),
(190,451,ls)
);
},
{
closed = 1;
nodes = (
(457,451,o),
(385,525,o),
(385,627,o),
(457,701,o),
(510,701,qs),
(450,701,ls),
(503,701,o),
(575,627,o),
(575,525,o),
(503,451,o),
(450,451,qs),
(510,451,ls)
);
},
{
closed = 1;
nodes = (
(9,579,o),
(-63,653,o),
(-63,755,o),
(9,829,o),
(62,829,qs),
(2,829,ls),
(55,829,o),
(127,755,o),
(127,653,o),
(55,579,o),
(2,579,qs),
(62,579,ls)
);
},
{
closed = 1;
nodes = (
(457,579,o),
(385,653,o),
(385,755,o),
(457,829,o),
(510,829,qs),
(450,829,ls),
(503,829,o),
(575,755,o),
(575,653,o),
(503,579,o),
(450,579,qs),
(510,579,ls)
);
},
{
closed = 1;
nodes = (
(81,707,o),
(1,781,o),
(1,883,o),
(81,957,o),
(151,957,qs),
(361,957,ls),
(431,957,o),
(511,883,o),
(511,781,o),
(431,707,o),
(361,707,qs),
(151,707,ls)
);
}
);
};
layerId = "164C8123-3F0E-4C99-877D-0E85C432A9CE";
shapes = (
{
pos = (64,-128);
ref = pixel.6;
},
{
ref = pixel.1;
},
{
pos = (448,0);
ref = pixel.1;
},
{
pos = (0,128);
ref = pixel.1;
},
{
pos = (128,128);
ref = pixel.1;
},
{
pos = (256,128);
ref = pixel.1;
},
{
pos = (448,128);
ref = pixel.1;
},
{
pos = (0,256);
ref = pixel.1;
},
{
pos = (128,256);
ref = pixel.2;
},
{
pos = (448,256);
ref = pixel.1;
},
{
pos = (0,384);
ref = pixel.1;
},
{
pos = (128,384);
ref = pixel.3;
},
{
pos = (448,384);
ref = pixel.1;
},
{
pos = (0,512);
ref = pixel.1;
},
{
pos = (128,512);
ref = pixel.3;
},
{
pos = (448,512);
ref = pixel.1;
},
{
pos = (0,640);
ref = pixel.1;
},
{
pos = (448,640);
ref = pixel.1;
},
{
pos = (64,768);
ref = pixel.6;
}
);
width = 512;
},
{
layerId = "EDC3ADDC-530C-4ECE-AAC6-732B149A8D4A";
shapes = (
{
pos = (64,-128);
ref = pixel.6;
},
{
ref = pixel.1;
},
{
pos = (448,0);
ref = pixel.1;
},
{
pos = (0,128);
ref = pixel.1;
},
{
pos = (128,128);
ref = pixel.1;
},
{
pos = (256,128);
ref = pixel.1;
},
{
pos = (448,128);
ref = pixel.1;
},
{
pos = (0,256);
ref = pixel.1;
},
{
pos = (128,256);
ref = pixel.2;
},
{
pos = (448,256);
ref = pixel.1;
},
{
pos = (0,384);
ref = pixel.1;
},
{
pos = (128,384);
ref = pixel.3;
},
{
pos = (448,384);
ref = pixel.1;
},
{
pos = (0,512);
ref = pixel.1;
},
{
pos = (128,512);
ref = pixel.3;
},
{
pos = (448,512);
ref = pixel.1;
},
{
pos = (0,640);
ref = pixel.1;
},
{
pos = (448,640);
ref = pixel.1;
},
{
pos = (64,768);
ref = pixel.6;
}
);
width = 512;
},
{
layerId = "38088322-78A3-4F4F-B46E-F8355B0BCD96";
shapes = (
{
pos = (64,-128);
ref = pixel.6;
},
{
ref = pixel.1;
},
{
pos = (448,0);
ref = pixel.1;
},
{
pos = (0,128);
ref = pixel.1;
},
{
pos = (128,128);
ref = pixel.1;
},
{
pos = (256,128);
ref = pixel.1;
},
{
pos = (448,128);
ref = pixel.1;
},
{
pos = (0,256);
ref = pixel.1;
},
{
pos = (128,256);
ref = pixel.2;
},
{
pos = (448,256);
ref = pixel.1;
},
{
pos = (0,384);
ref = pixel.1;
},
{
pos = (128,384);
ref = pixel.3;
},
{
pos = (448,384);
ref = pixel.1;
},
{
pos = (0,512);
ref = pixel.1;
},
{
pos = (128,512);
ref = pixel.3;
},
{
pos = (448,512);
ref = pixel.1;
},
{
pos = (0,640);
ref = pixel.1;
},
{
pos = (448,640);
ref = pixel.1;
},
{
pos = (64,768);
ref = pixel.6;
}
);
width = 512;
}
);
unicode = 174;
},
{
glyphname = currency;
layers = (
{
layerId = "EF047752-ED93-49D3-A4D1-D66A6AAE90C7";
shapes = (
{
pos = (64,256);
ref = pixel.1;
},
{
pos = (384,256);
ref = pixel.1;
},
{
pos = (128,384);
ref = pixel.4;
},
{
pos = (64,512);
ref = pixel.2;
},
{
pos = (320,512);
ref = pixel.2;
},
{
pos = (128,640);
ref = pixel.4;
},
{
pos = (64,768);
ref = pixel.1;
},
{
pos = (384,768);
ref = pixel.1;
}
);
width = 512;
},
{
background = {
shapes = (
{
closed = 1;
nodes = (
(73,195,o),
(1,269,o),
(1,371,o),
(73,445,o),
(126,445,qs),
(66,445,ls),
(119,445,o),
(191,371,o),
(191,269,o),
(119,195,o),
(66,195,qs),
(126,195,ls)
);
},
{
closed = 1;
nodes = (
(393,195,o),
(321,269,o),
(321,371,o),
(393,445,o),
(446,445,qs),
(386,445,ls),
(439,445,o),
(511,371,o),
(511,269,o),
(439,195,o),
(386,195,qs),
(446,195,ls)
);
},
{
closed = 1;
nodes = (
(145,323,o),
(65,397,o),
(65,499,o),
(145,573,o),
(215,573,qs),
(297,573,ls),
(367,573,o),
(447,499,o),
(447,397,o),
(367,323,o),
(297,323,qs),
(215,323,ls)
);
},
{
closed = 1;
nodes = (
(73,451,o),
(1,525,o),
(1,627,o),
(73,701,o),
(126,701,qs),
(130,701,ls),
(183,701,o),
(255,627,o),
(255,525,o),
(183,451,o),
(130,451,qs),
(126,451,ls)
);
},
{
closed = 1;
nodes = (
(329,451,o),
(257,525,o),
(257,627,o),
(329,701,o),
(382,701,qs),
(386,701,ls),
(439,701,o),
(511,627,o),
(511,525,o),
(439,451,o),
(386,451,qs),
(382,451,ls)
);
},
{
closed = 1;
nodes = (
(145,579,o),
(65,653,o),
(65,755,o),
(145,829,o),
(215,829,qs),
(297,829,ls),
(367,829,o),
(447,755,o),
(447,653,o),
(367,579,o),
(297,579,qs),
(215,579,ls)
);
},
{
closed = 1;
nodes = (
(73,707,o),
(1,781,o),
(1,883,o),
(73,957,o),
(126,957,qs),
(66,957,ls),
(119,957,o),
(191,883,o),
(191,781,o),
(119,707,o),
(66,707,qs),
(126,707,ls)
);
},
{
closed = 1;
nodes = (
(393,707,o),
(321,781,o),
(321,883,o),
(393,957,o),
(446,957,qs),
(386,957,ls),
(439,957,o),
(511,883,o),
(511,781,o),
(439,707,o),
(386,707,qs),
(446,707,ls)
);
}
);
};
layerId = "164C8123-3F0E-4C99-877D-0E85C432A9CE";
shapes = (
{
pos = (64,256);
ref = pixel.1;
},
{
pos = (384,256);
ref = pixel.1;
},
{
pos = (128,384);
ref = pixel.4;
},
{
pos = (64,512);
ref = pixel.2;
},
{
pos = (320,512);
ref = pixel.2;
},
{
pos = (128,640);
ref = pixel.4;
},
{
pos = (64,768);
ref = pixel.1;
},
{
pos = (384,768);
ref = pixel.1;
}
);
width = 512;
},
{
layerId = "EDC3ADDC-530C-4ECE-AAC6-732B149A8D4A";
shapes = (
{
pos = (64,256);
ref = pixel.1;
},
{
pos = (384,256);
ref = pixel.1;
},
{
pos = (128,384);
ref = pixel.4;
},
{
pos = (64,512);
ref = pixel.2;
},
{
pos = (320,512);
ref = pixel.2;
},
{
pos = (128,640);
ref = pixel.4;
},
{
pos = (64,768);
ref = pixel.1;
},
{
pos = (384,768);
ref = pixel.1;
}
);
width = 512;
},
{
layerId = "38088322-78A3-4F4F-B46E-F8355B0BCD96";
shapes = (
{
pos = (64,256);
ref = pixel.1;
},
{
pos = (384,256);
ref = pixel.1;
},
{
pos = (128,384);
ref = pixel.4;
},
{
pos = (64,512);
ref = pixel.2;
},
{
pos = (320,512);
ref = pixel.2;
},
{
pos = (128,640);
ref = pixel.4;
},
{
pos = (64,768);
ref = pixel.1;
},
{
pos = (384,768);
ref = pixel.1;
}
);
width = 512;
}
);
unicode = 164;
},
{
glyphname = asciitilde;
layers = (
{
layerId = "EF047752-ED93-49D3-A4D1-D66A6AAE90C7";
shapes = (
{
pos = (0,640);
ref = pixel.1;
},
{
pos = (192,640);
ref = pixel.3;
},
{
pos = (64,768);
ref = pixel.3;
},
{
pos = (384,768);
ref = pixel.1;
}
);
width = 512;
},
{
background = {
shapes = (
{
closed = 1;
nodes = (
(9,579,o),
(-63,653,o),
(-63,755,o),
(9,829,o),
(62,829,qs),
(2,829,ls),
(55,829,o),
(127,755,o),
(127,653,o),
(55,579,o),
(2,579,qs),
(62,579,ls)
);
},
{
closed = 1;
nodes = (
(201,579,o),
(129,653,o),
(129,755,o),
(201,829,o),
(254,829,qs),
(322,829,ls),
(375,829,o),
(447,755,o),
(447,653,o),
(375,579,o),
(322,579,qs),
(254,579,ls)
);
},
{
closed = 1;
nodes = (
(73,707,o),
(1,781,o),
(1,883,o),
(73,957,o),
(126,957,qs),
(194,957,ls),
(247,957,o),
(319,883,o),
(319,781,o),
(247,707,o),
(194,707,qs),
(126,707,ls)
);
},
{
closed = 1;
nodes = (
(393,707,o),
(321,781,o),
(321,883,o),
(393,957,o),
(446,957,qs),
(386,957,ls),
(439,957,o),
(511,883,o),
(511,781,o),
(439,707,o),
(386,707,qs),
(446,707,ls)
);
}
);
};
layerId = "164C8123-3F0E-4C99-877D-0E85C432A9CE";
shapes = (
{
pos = (0,640);
ref = pixel.1;
},
{
pos = (192,640);
ref = pixel.3;
},
{
pos = (64,768);
ref = pixel.3;
},
{
pos = (384,768);
ref = pixel.1;
}
);
width = 512;
},
{
layerId = "EDC3ADDC-530C-4ECE-AAC6-732B149A8D4A";
shapes = (
{
pos = (0,640);
ref = pixel.1;
},
{
pos = (192,640);
ref = pixel.3;
},
{
pos = (64,768);
ref = pixel.3;
},
{
pos = (384,768);
ref = pixel.1;
}
);
width = 512;
},
{
layerId = "38088322-78A3-4F4F-B46E-F8355B0BCD96";
shapes = (
{
pos = (0,640);
ref = pixel.1;
},
{
pos = (192,640);
ref = pixel.3;
},
{
pos = (64,768);
ref = pixel.3;
},
{
pos = (384,768);
ref = pixel.1;
}
);
width = 512;
}
);
unicode = 126;
},
{
glyphname = asciicircum;
layers = (
{
layerId = "EF047752-ED93-49D3-A4D1-D66A6AAE90C7";
shapes = (
{
pos = (0,384);
ref = pixel.2;
},
{
pos = (320,384);
ref = pixel.2;
},
{
pos = (64,512);
ref = pixel.2;
},
{
pos = (256,512);
ref = pixel.2;
},
{
pos = (128,640);
ref = pixel.3;
},
{
pos = (192,768);
ref = pixel.1;
}
);
width = 512;
},
{
background = {
shapes = (
{
closed = 1;
nodes = (
(9,323,o),
(-63,397,o),
(-63,499,o),
(9,573,o),
(62,573,qs),
(66,573,ls),
(119,573,o),
(191,499,o),
(191,397,o),
(119,323,o),
(66,323,qs),
(62,323,ls)
);
},
{
closed = 1;
nodes = (
(329,323,o),
(257,397,o),
(257,499,o),
(329,573,o),
(382,573,qs),
(386,573,ls),
(439,573,o),
(511,499,o),
(511,397,o),
(439,323,o),
(386,323,qs),
(382,323,ls)
);
},
{
closed = 1;
nodes = (
(73,451,o),
(1,525,o),
(1,627,o),
(73,701,o),
(126,701,qs),
(130,701,ls),
(183,701,o),
(255,627,o),
(255,525,o),
(183,451,o),
(130,451,qs),
(126,451,ls)
);
},
{
closed = 1;
nodes = (
(265,451,o),
(193,525,o),
(193,627,o),
(265,701,o),
(318,701,qs),
(322,701,ls),
(375,701,o),
(447,627,o),
(447,525,o),
(375,451,o),
(322,451,qs),
(318,451,ls)
);
},
{
closed = 1;
nodes = (
(137,579,o),
(65,653,o),
(65,755,o),
(137,829,o),
(190,829,qs),
(258,829,ls),
(311,829,o),
(383,755,o),
(383,653,o),
(311,579,o),
(258,579,qs),
(190,579,ls)
);
},
{
closed = 1;
nodes = (
(201,707,o),
(129,781,o),
(129,883,o),
(201,957,o),
(254,957,qs),
(194,957,ls),
(247,957,o),
(319,883,o),
(319,781,o),
(247,707,o),
(194,707,qs),
(254,707,ls)
);
}
);
};
layerId = "164C8123-3F0E-4C99-877D-0E85C432A9CE";
shapes = (
{
pos = (0,384);
ref = pixel.2;
},
{
pos = (320,384);
ref = pixel.2;
},
{
pos = (64,512);
ref = pixel.2;
},
{
pos = (256,512);
ref = pixel.2;
},
{
pos = (128,640);
ref = pixel.3;
},
{
pos = (192,768);
ref = pixel.1;
}
);
width = 512;
},
{
layerId = "EDC3ADDC-530C-4ECE-AAC6-732B149A8D4A";
shapes = (
{
pos = (0,384);
ref = pixel.2;
},
{
pos = (320,384);
ref = pixel.2;
},
{
pos = (64,512);
ref = pixel.2;
},
{
pos = (256,512);
ref = pixel.2;
},
{
pos = (128,640);
ref = pixel.3;
},
{
pos = (192,768);
ref = pixel.1;
}
);
width = 512;
},
{
layerId = "38088322-78A3-4F4F-B46E-F8355B0BCD96";
shapes = (
{
pos = (0,384);
ref = pixel.2;
},
{
pos = (320,384);
ref = pixel.2;
},
{
pos = (64,512);
ref = pixel.2;
},
{
pos = (256,512);
ref = pixel.2;
},
{
pos = (128,640);
ref = pixel.3;
},
{
pos = (192,768);
ref = pixel.1;
}
);
width = 512;
}
);
unicode = 94;
},
{
glyphname = micro;
layers = (
{
layerId = "EF047752-ED93-49D3-A4D1-D66A6AAE90C7";
shapes = (
{
pos = (0,-128);
ref = pixel.2;
},
{
ref = pixel.5;
},
{
pos = (384,0);
ref = pixel.1;
},
{
pos = (0,128);
ref = pixel.3;
},
{
pos = (256,128);
ref = pixel.3;
},
{
pos = (0,256);
ref = pixel.2;
},
{
pos = (320,256);
ref = pixel.2;
},
{
pos = (0,384);
ref = pixel.2;
},
{
pos = (320,384);
ref = pixel.2;
},
{
pos = (0,512);
ref = pixel.2;
},
{
pos = (320,512);
ref = pixel.2;
}
);
width = 512;
},
{
background = {
shapes = (
{
closed = 1;
nodes = (
(9,-189,o),
(-63,-115,o),
(-63,-13,o),
(9,61,o),
(62,61,qs),
(66,61,ls),
(119,61,o),
(191,-13,o),
(191,-115,o),
(119,-189,o),
(66,-189,qs),
(62,-189,ls)
);
},
{
closed = 1;
nodes = (
(17,-61,o),
(-63,13,o),
(-63,115,o),
(17,189,o),
(87,189,qs),
(233,189,ls),
(303,189,o),
(383,115,o),
(383,13,o),
(303,-61,o),
(233,-61,qs),
(87,-61,ls)
);
},
{
closed = 1;
nodes = (
(393,-61,o),
(321,13,o),
(321,115,o),
(393,189,o),
(446,189,qs),
(386,189,ls),
(439,189,o),
(511,115,o),
(511,13,o),
(439,-61,o),
(386,-61,qs),
(446,-61,ls)
);
},
{
closed = 1;
nodes = (
(9,67,o),
(-63,141,o),
(-63,243,o),
(9,317,o),
(62,317,qs),
(130,317,ls),
(183,317,o),
(255,243,o),
(255,141,o),
(183,67,o),
(130,67,qs),
(62,67,ls)
);
},
{
closed = 1;
nodes = (
(265,67,o),
(193,141,o),
(193,243,o),
(265,317,o),
(318,317,qs),
(386,317,ls),
(439,317,o),
(511,243,o),
(511,141,o),
(439,67,o),
(386,67,qs),
(318,67,ls)
);
},
{
closed = 1;
nodes = (
(9,195,o),
(-63,269,o),
(-63,371,o),
(9,445,o),
(62,445,qs),
(66,445,ls),
(119,445,o),
(191,371,o),
(191,269,o),
(119,195,o),
(66,195,qs),
(62,195,ls)
);
},
{
closed = 1;
nodes = (
(329,195,o),
(257,269,o),
(257,371,o),
(329,445,o),
(382,445,qs),
(386,445,ls),
(439,445,o),
(511,371,o),
(511,269,o),
(439,195,o),
(386,195,qs),
(382,195,ls)
);
},
{
closed = 1;
nodes = (
(9,323,o),
(-63,397,o),
(-63,499,o),
(9,573,o),
(62,573,qs),
(66,573,ls),
(119,573,o),
(191,499,o),
(191,397,o),
(119,323,o),
(66,323,qs),
(62,323,ls)
);
},
{
closed = 1;
nodes = (
(329,323,o),
(257,397,o),
(257,499,o),
(329,573,o),
(382,573,qs),
(386,573,ls),
(439,573,o),
(511,499,o),
(511,397,o),
(439,323,o),
(386,323,qs),
(382,323,ls)
);
},
{
closed = 1;
nodes = (
(9,451,o),
(-63,525,o),
(-63,627,o),
(9,701,o),
(62,701,qs),
(66,701,ls),
(119,701,o),
(191,627,o),
(191,525,o),
(119,451,o),
(66,451,qs),
(62,451,ls)
);
},
{
closed = 1;
nodes = (
(329,451,o),
(257,525,o),
(257,627,o),
(329,701,o),
(382,701,qs),
(386,701,ls),
(439,701,o),
(511,627,o),
(511,525,o),
(439,451,o),
(386,451,qs),
(382,451,ls)
);
}
);
};
layerId = "164C8123-3F0E-4C99-877D-0E85C432A9CE";
shapes = (
{
pos = (0,-128);
ref = pixel.2;
},
{
ref = pixel.5;
},
{
pos = (384,0);
ref = pixel.1;
},
{
pos = (0,128);
ref = pixel.3;
},
{
pos = (256,128);
ref = pixel.3;
},
{
pos = (0,256);
ref = pixel.2;
},
{
pos = (320,256);
ref = pixel.2;
},
{
pos = (0,384);
ref = pixel.2;
},
{
pos = (320,384);
ref = pixel.2;
},
{
pos = (0,512);
ref = pixel.2;
},
{
pos = (320,512);
ref = pixel.2;
}
);
width = 512;
},
{
layerId = "EDC3ADDC-530C-4ECE-AAC6-732B149A8D4A";
shapes = (
{
pos = (0,-128);
ref = pixel.2;
},
{
ref = pixel.5;
},
{
pos = (384,0);
ref = pixel.1;
},
{
pos = (0,128);
ref = pixel.3;
},
{
pos = (256,128);
ref = pixel.3;
},
{
pos = (0,256);
ref = pixel.2;
},
{
pos = (320,256);
ref = pixel.2;
},
{
pos = (0,384);
ref = pixel.2;
},
{
pos = (320,384);
ref = pixel.2;
},
{
pos = (0,512);
ref = pixel.2;
},
{
pos = (320,512);
ref = pixel.2;
}
);
width = 512;
},
{
layerId = "38088322-78A3-4F4F-B46E-F8355B0BCD96";
shapes = (
{
pos = (0,-128);
ref = pixel.2;
},
{
ref = pixel.5;
},
{
pos = (384,0);
ref = pixel.1;
},
{
pos = (0,128);
ref = pixel.3;
},
{
pos = (256,128);
ref = pixel.3;
},
{
pos = (0,256);
ref = pixel.2;
},
{
pos = (320,256);
ref = pixel.2;
},
{
pos = (0,384);
ref = pixel.2;
},
{
pos = (320,384);
ref = pixel.2;
},
{
pos = (0,512);
ref = pixel.2;
},
{
pos = (320,512);
ref = pixel.2;
}
);
width = 512;
}
);
unicode = 181;
},
{
color = 3;
glyphname = circumflex;
layers = (
{
layerId = "EF047752-ED93-49D3-A4D1-D66A6AAE90C7";
shapes = (
{
pos = (128,640);
ref = pixel.1;
},
{
pos = (320,640);
ref = pixel.1;
},
{
pos = (192,768);
ref = pixel.2;
}
);
width = 512;
},
{
background = {
shapes = (
{
closed = 1;
nodes = (
(137,579,o),
(65,653,o),
(65,755,o),
(137,829,o),
(190,829,qs),
(130,829,ls),
(183,829,o),
(255,755,o),
(255,653,o),
(183,579,o),
(130,579,qs),
(190,579,ls)
);
},
{
closed = 1;
nodes = (
(329,579,o),
(257,653,o),
(257,755,o),
(329,829,o),
(382,829,qs),
(322,829,ls),
(375,829,o),
(447,755,o),
(447,653,o),
(375,579,o),
(322,579,qs),
(382,579,ls)
);
},
{
closed = 1;
nodes = (
(201,707,o),
(129,781,o),
(129,883,o),
(201,957,o),
(254,957,qs),
(258,957,ls),
(311,957,o),
(383,883,o),
(383,781,o),
(311,707,o),
(258,707,qs),
(254,707,ls)
);
}
);
};
layerId = "164C8123-3F0E-4C99-877D-0E85C432A9CE";
shapes = (
{
pos = (128,640);
ref = pixel.1;
},
{
pos = (319,640);
ref = pixel.1;
},
{
pos = (192,768);
ref = pixel.2;
}
);
width = 512;
},
{
layerId = "EDC3ADDC-530C-4ECE-AAC6-732B149A8D4A";
shapes = (
{
pos = (128,640);
ref = pixel.1;
},
{
pos = (320,640);
ref = pixel.1;
},
{
pos = (192,768);
ref = pixel.2;
}
);
width = 512;
},
{
layerId = "38088322-78A3-4F4F-B46E-F8355B0BCD96";
shapes = (
{
pos = (128,640);
ref = pixel.1;
},
{
pos = (320,640);
ref = pixel.1;
},
{
pos = (192,768);
ref = pixel.2;
}
);
width = 512;
}
);
unicode = 710;
},
{
color = 3;
glyphname = tilde;
layers = (
{
layerId = "EF047752-ED93-49D3-A4D1-D66A6AAE90C7";
shapes = (
{
pos = (0,640);
ref = pixel.1;
},
{
pos = (256,640);
ref = pixel.3;
},
{
pos = (64,768);
ref = pixel.3;
},
{
pos = (448,768);
ref = pixel.1;
}
);
width = 512;
},
{
background = {
shapes = (
{
closed = 1;
nodes = (
(9,579,o),
(-63,653,o),
(-63,755,o),
(9,829,o),
(62,829,qs),
(2,829,ls),
(55,829,o),
(127,755,o),
(127,653,o),
(55,579,o),
(2,579,qs),
(62,579,ls)
);
},
{
closed = 1;
nodes = (
(265,579,o),
(193,653,o),
(193,755,o),
(265,829,o),
(318,829,qs),
(386,829,ls),
(439,829,o),
(511,755,o),
(511,653,o),
(439,579,o),
(386,579,qs),
(318,579,ls)
);
},
{
closed = 1;
nodes = (
(73,707,o),
(1,781,o),
(1,883,o),
(73,957,o),
(126,957,qs),
(194,957,ls),
(247,957,o),
(319,883,o),
(319,781,o),
(247,707,o),
(194,707,qs),
(126,707,ls)
);
},
{
closed = 1;
nodes = (
(457,707,o),
(385,781,o),
(385,883,o),
(457,957,o),
(510,957,qs),
(450,957,ls),
(503,957,o),
(575,883,o),
(575,781,o),
(503,707,o),
(450,707,qs),
(510,707,ls)
);
}
);
};
layerId = "164C8123-3F0E-4C99-877D-0E85C432A9CE";
shapes = (
{
pos = (0,640);
ref = pixel.1;
},
{
pos = (256,640);
ref = pixel.3;
},
{
pos = (64,768);
ref = pixel.3;
},
{
pos = (448,768);
ref = pixel.1;
}
);
width = 512;
},
{
layerId = "EDC3ADDC-530C-4ECE-AAC6-732B149A8D4A";
shapes = (
{
pos = (0,640);
ref = pixel.1;
},
{
pos = (256,640);
ref = pixel.3;
},
{
pos = (64,768);
ref = pixel.3;
},
{
pos = (448,768);
ref = pixel.1;
}
);
width = 512;
},
{
layerId = "38088322-78A3-4F4F-B46E-F8355B0BCD96";
shapes = (
{
pos = (0,640);
ref = pixel.1;
},
{
pos = (256,640);
ref = pixel.3;
},
{
pos = (64,768);
ref = pixel.3;
},
{
pos = (448,768);
ref = pixel.1;
}
);
width = 512;
}
);
unicode = 732;
},
{
color = 3;
glyphname = cedilla;
layers = (
{
layerId = "EF047752-ED93-49D3-A4D1-D66A6AAE90C7";
shapes = (
{
pos = (128,-128);
ref = pixel.2;
},
{
pos = (256,0);
ref = pixel.1;
}
);
width = 512;
},
{
background = {
shapes = (
{
closed = 1;
nodes = (
(137,-189,o),
(65,-115,o),
(65,-13,o),
(137,61,o),
(190,61,qs),
(194,61,ls),
(247,61,o),
(319,-13,o),
(319,-115,o),
(247,-189,o),
(194,-189,qs),
(190,-189,ls)
);
},
{
closed = 1;
nodes = (
(265,-61,o),
(193,13,o),
(193,115,o),
(265,189,o),
(318,189,qs),
(258,189,ls),
(311,189,o),
(383,115,o),
(383,13,o),
(311,-61,o),
(258,-61,qs),
(318,-61,ls)
);
}
);
};
layerId = "164C8123-3F0E-4C99-877D-0E85C432A9CE";
shapes = (
{
pos = (128,-128);
ref = pixel.2;
},
{
pos = (256,0);
ref = pixel.1;
}
);
width = 512;
},
{
layerId = "EDC3ADDC-530C-4ECE-AAC6-732B149A8D4A";
shapes = (
{
pos = (128,-128);
ref = pixel.2;
},
{
pos = (256,0);
ref = pixel.1;
}
);
width = 512;
},
{
layerId = "38088322-78A3-4F4F-B46E-F8355B0BCD96";
shapes = (
{
pos = (128,-128);
ref = pixel.2;
},
{
pos = (256,0);
ref = pixel.1;
}
);
width = 512;
}
);
unicode = 184;
},
{
color = 5;
glyphname = pixel.1;
layers = (
{
background = {
shapes = (
{
closed = 1;
nodes = (
(57,54,ls),
(65,54,o),
(69,59,o),
(69,64,cs),
(69,69,o),
(65,74,o),
(57,74,cs),
(7,74,ls),
(-1,74,o),
(-5,69,o),
(-5,64,cs),
(-5,59,o),
(-1,54,o),
(7,54,cs)
);
}
);
};
layerId = "EF047752-ED93-49D3-A4D1-D66A6AAE90C7";
shapes = (
{
closed = 1;
nodes = (
(1,54,o),
(-5,60,o),
(-5,68,o),
(1,74,o),
(7,74,qs),
(57,74,ls),
(63,74,o),
(69,68,o),
(69,60,o),
(63,54,o),
(57,54,qs),
(7,54,ls)
);
}
);
width = 512;
},
{
background = {
shapes = (
{
closed = 1;
nodes = (
(34,-61,ls),
(88,-61,o),
(127,2,o),
(127,64,cs),
(127,127,o),
(88,189,o),
(34,189,cs),
(30,189,ls),
(-24,189,o),
(-63,127,o),
(-63,64,cs),
(-63,2,o),
(-24,-61,o),
(30,-61,cs)
);
}
);
};
layerId = "164C8123-3F0E-4C99-877D-0E85C432A9CE";
shapes = (
{
closed = 1;
nodes = (
(-7,-61,o),
(-63,13,o),
(-63,115,o),
(-7,189,o),
(30,189,qs),
(34,189,ls),
(71,189,o),
(127,115,o),
(127,13,o),
(71,-61,o),
(34,-61,qs),
(30,-61,ls)
);
}
);
width = 512;
},
{
background = {
shapes = (
{
closed = 1;
nodes = (
(145,54,ls),
(153,54,o),
(157,59,o),
(157,64,cs),
(157,69,o),
(153,74,o),
(145,74,cs),
(-81,74,ls),
(-89,74,o),
(-93,69,o),
(-93,64,cs),
(-93,59,o),
(-89,54,o),
(-81,54,cs)
);
}
);
};
layerId = "EDC3ADDC-530C-4ECE-AAC6-732B149A8D4A";
shapes = (
{
closed = 1;
nodes = (
(-87,54,o),
(-93,60,o),
(-93,68,o),
(-87,74,o),
(-81,74,qs),
(145,74,ls),
(151,74,o),
(157,68,o),
(157,60,o),
(151,54,o),
(145,54,qs),
(-81,54,ls)
);
}
);
width = 512;
},
{
background = {
shapes = (
{
closed = 1;
nodes = (
(64,-61,ls),
(140,-61,o),
(189,2,o),
(189,64,cs),
(189,127,o),
(140,189,o),
(64,189,cs),
(0,189,ls),
(-76,189,o),
(-125,127,o),
(-125,64,cs),
(-125,2,o),
(-76,-61,o),
(0,-61,cs)
);
}
);
};
layerId = "38088322-78A3-4F4F-B46E-F8355B0BCD96";
shapes = (
{
closed = 1;
nodes = (
(-53,-61,o),
(-125,13,o),
(-125,115,o),
(-53,189,o),
(0,189,qs),
(64,189,ls),
(117,189,o),
(189,115,o),
(189,13,o),
(117,-61,o),
(64,-61,qs),
(0,-61,ls)
);
}
);
width = 512;
}
);
},
{
color = 5;
glyphname = pixel.2;
layers = (
{
background = {
shapes = (
{
closed = 1;
nodes = (
(121,54,ls),
(129,54,o),
(133,59,o),
(133,64,cs),
(133,69,o),
(129,74,o),
(121,74,cs),
(7,74,ls),
(-1,74,o),
(-5,69,o),
(-5,64,cs),
(-5,59,o),
(-1,54,o),
(7,54,cs)
);
}
);
};
layerId = "EF047752-ED93-49D3-A4D1-D66A6AAE90C7";
shapes = (
{
closed = 1;
nodes = (
(1,54,o),
(-5,60,o),
(-5,68,o),
(1,74,o),
(7,74,qs),
(121,74,ls),
(127,74,o),
(133,68,o),
(133,60,o),
(127,54,o),
(121,54,qs),
(7,54,ls)
);
}
);
width = 512;
},
{
background = {
shapes = (
{
closed = 1;
nodes = (
(66,-61,ls),
(142,-61,o),
(191,2,o),
(191,64,cs),
(191,127,o),
(142,189,o),
(66,189,cs),
(62,189,ls),
(-14,189,o),
(-63,127,o),
(-63,64,cs),
(-63,2,o),
(-14,-61,o),
(62,-61,cs)
);
}
);
};
layerId = "164C8123-3F0E-4C99-877D-0E85C432A9CE";
shapes = (
{
closed = 1;
nodes = (
(9,-61,o),
(-63,13,o),
(-63,115,o),
(9,189,o),
(62,189,qs),
(66,189,ls),
(119,189,o),
(191,115,o),
(191,13,o),
(119,-61,o),
(66,-61,qs),
(62,-61,ls)
);
}
);
width = 512;
},
{
background = {
shapes = (
{
closed = 1;
nodes = (
(209,54,ls),
(217,54,o),
(221,59,o),
(221,64,cs),
(221,69,o),
(217,74,o),
(209,74,cs),
(-81,74,ls),
(-89,74,o),
(-93,69,o),
(-93,64,cs),
(-93,59,o),
(-89,54,o),
(-81,54,cs)
);
}
);
};
layerId = "EDC3ADDC-530C-4ECE-AAC6-732B149A8D4A";
shapes = (
{
closed = 1;
nodes = (
(-87,54,o),
(-93,60,o),
(-93,68,o),
(-87,74,o),
(-81,74,qs),
(209,74,ls),
(215,74,o),
(221,68,o),
(221,60,o),
(215,54,o),
(209,54,qs),
(-81,54,ls)
);
}
);
width = 512;
},
{
background = {
shapes = (
{
closed = 1;
nodes = (
(128,-61,ls),
(204,-61,o),
(253,2,o),
(253,64,cs),
(253,127,o),
(204,189,o),
(128,189,cs),
(0,189,ls),
(-76,189,o),
(-125,127,o),
(-125,64,cs),
(-125,2,o),
(-76,-61,o),
(0,-61,cs)
);
}
);
};
layerId = "38088322-78A3-4F4F-B46E-F8355B0BCD96";
shapes = (
{
closed = 1;
nodes = (
(-53,-61,o),
(-125,13,o),
(-125,115,o),
(-53,189,o),
(0,189,qs),
(128,189,ls),
(181,189,o),
(253,115,o),
(253,13,o),
(181,-61,o),
(128,-61,qs),
(0,-61,ls)
);
}
);
width = 512;
}
);
},
{
color = 5;
glyphname = pixel.3;
layers = (
{
background = {
shapes = (
{
closed = 1;
nodes = (
(185,54,ls),
(193,54,o),
(197,59,o),
(197,64,cs),
(197,69,o),
(193,74,o),
(185,74,cs),
(7,74,ls),
(-1,74,o),
(-5,69,o),
(-5,64,cs),
(-5,59,o),
(-1,54,o),
(7,54,cs)
);
}
);
};
layerId = "EF047752-ED93-49D3-A4D1-D66A6AAE90C7";
shapes = (
{
closed = 1;
nodes = (
(1,54,o),
(-5,60,o),
(-5,68,o),
(1,74,o),
(7,74,qs),
(185,74,ls),
(191,74,o),
(197,68,o),
(197,60,o),
(191,54,o),
(185,54,qs),
(7,54,ls)
);
}
);
width = 512;
},
{
background = {
shapes = (
{
closed = 1;
nodes = (
(130,-61,ls),
(206,-61,o),
(255,2,o),
(255,64,cs),
(255,127,o),
(206,189,o),
(130,189,cs),
(62,189,ls),
(-14,189,o),
(-63,127,o),
(-63,64,cs),
(-63,2,o),
(-14,-61,o),
(62,-61,cs)
);
}
);
};
layerId = "164C8123-3F0E-4C99-877D-0E85C432A9CE";
shapes = (
{
closed = 1;
nodes = (
(9,-61,o),
(-63,13,o),
(-63,115,o),
(9,189,o),
(62,189,qs),
(130,189,ls),
(183,189,o),
(255,115,o),
(255,13,o),
(183,-61,o),
(130,-61,qs),
(62,-61,ls)
);
}
);
width = 512;
},
{
background = {
shapes = (
{
closed = 1;
nodes = (
(273,54,ls),
(281,54,o),
(285,59,o),
(285,64,cs),
(285,69,o),
(281,74,o),
(273,74,cs),
(-81,74,ls),
(-89,74,o),
(-93,69,o),
(-93,64,cs),
(-93,59,o),
(-89,54,o),
(-81,54,cs)
);
}
);
};
layerId = "EDC3ADDC-530C-4ECE-AAC6-732B149A8D4A";
shapes = (
{
closed = 1;
nodes = (
(-87,54,o),
(-93,60,o),
(-93,68,o),
(-87,74,o),
(-81,74,qs),
(273,74,ls),
(279,74,o),
(285,68,o),
(285,60,o),
(279,54,o),
(273,54,qs),
(-81,54,ls)
);
}
);
width = 512;
},
{
background = {
shapes = (
{
closed = 1;
nodes = (
(192,-61,ls),
(268,-61,o),
(317,2,o),
(317,64,cs),
(317,127,o),
(268,189,o),
(192,189,cs),
(0,189,ls),
(-76,189,o),
(-125,127,o),
(-125,64,cs),
(-125,2,o),
(-76,-61,o),
(0,-61,cs)
);
}
);
};
layerId = "38088322-78A3-4F4F-B46E-F8355B0BCD96";
shapes = (
{
closed = 1;
nodes = (
(-53,-61,o),
(-125,13,o),
(-125,115,o),
(-53,189,o),
(0,189,qs),
(192,189,ls),
(245,189,o),
(317,115,o),
(317,13,o),
(245,-61,o),
(192,-61,qs),
(0,-61,ls)
);
}
);
width = 512;
}
);
},
{
color = 5;
glyphname = pixel.4;
layers = (
{
background = {
shapes = (
{
closed = 1;
nodes = (
(249,54,ls),
(257,54,o),
(261,59,o),
(261,64,cs),
(261,69,o),
(257,74,o),
(249,74,cs),
(7,74,ls),
(-1,74,o),
(-5,69,o),
(-5,64,cs),
(-5,59,o),
(-1,54,o),
(7,54,cs)
);
}
);
};
layerId = "EF047752-ED93-49D3-A4D1-D66A6AAE90C7";
shapes = (
{
closed = 1;
nodes = (
(1,54,o),
(-5,60,o),
(-5,68,o),
(1,74,o),
(7,74,qs),
(249,74,ls),
(255,74,o),
(261,68,o),
(261,60,o),
(255,54,o),
(249,54,qs),
(7,54,ls)
);
}
);
width = 512;
},
{
background = {
shapes = (
{
closed = 1;
nodes = (
(169,-61,ls),
(270,-61,o),
(319,2,o),
(319,64,cs),
(319,127,o),
(270,189,o),
(169,189,cs),
(87,189,ls),
(-14,189,o),
(-63,127,o),
(-63,64,cs),
(-63,2,o),
(-14,-61,o),
(87,-61,cs)
);
}
);
};
layerId = "164C8123-3F0E-4C99-877D-0E85C432A9CE";
shapes = (
{
closed = 1;
nodes = (
(17,-61,o),
(-63,13,o),
(-63,115,o),
(17,189,o),
(87,189,qs),
(169,189,ls),
(239,189,o),
(319,115,o),
(319,13,o),
(239,-61,o),
(169,-61,qs),
(87,-61,ls)
);
}
);
width = 512;
},
{
background = {
shapes = (
{
closed = 1;
nodes = (
(337,54,ls),
(345,54,o),
(349,59,o),
(349,64,cs),
(349,69,o),
(345,74,o),
(337,74,cs),
(-81,74,ls),
(-89,74,o),
(-93,69,o),
(-93,64,cs),
(-93,59,o),
(-89,54,o),
(-81,54,cs)
);
}
);
};
layerId = "EDC3ADDC-530C-4ECE-AAC6-732B149A8D4A";
shapes = (
{
closed = 1;
nodes = (
(-87,54,o),
(-93,60,o),
(-93,68,o),
(-87,74,o),
(-81,74,qs),
(337,74,ls),
(343,74,o),
(349,68,o),
(349,60,o),
(343,54,o),
(337,54,qs),
(-81,54,ls)
);
}
);
width = 512;
},
{
background = {
shapes = (
{
closed = 1;
nodes = (
(231,-61,ls),
(332,-61,o),
(381,2,o),
(381,64,cs),
(381,127,o),
(332,189,o),
(231,189,cs),
(25,189,ls),
(-76,189,o),
(-125,127,o),
(-125,64,cs),
(-125,2,o),
(-76,-61,o),
(25,-61,cs)
);
}
);
};
layerId = "38088322-78A3-4F4F-B46E-F8355B0BCD96";
shapes = (
{
closed = 1;
nodes = (
(-45,-61,o),
(-125,13,o),
(-125,115,o),
(-45,189,o),
(25,189,qs),
(231,189,ls),
(301,189,o),
(381,115,o),
(381,13,o),
(301,-61,o),
(231,-61,qs),
(25,-61,ls)
);
}
);
width = 512;
}
);
},
{
color = 5;
glyphname = pixel.5;
layers = (
{
background = {
shapes = (
{
closed = 1;
nodes = (
(313,54,ls),
(321,54,o),
(325,59,o),
(325,64,cs),
(325,69,o),
(321,74,o),
(313,74,cs),
(7,74,ls),
(-1,74,o),
(-5,69,o),
(-5,64,cs),
(-5,59,o),
(-1,54,o),
(7,54,cs)
);
}
);
};
layerId = "EF047752-ED93-49D3-A4D1-D66A6AAE90C7";
shapes = (
{
closed = 1;
nodes = (
(1,54,o),
(-5,60,o),
(-5,68,o),
(1,74,o),
(7,74,qs),
(313,74,ls),
(319,74,o),
(325,68,o),
(325,60,o),
(319,54,o),
(313,54,qs),
(7,54,ls)
);
}
);
width = 512;
},
{
background = {
shapes = (
{
closed = 1;
nodes = (
(233,-61,ls),
(334,-61,o),
(383,2,o),
(383,64,cs),
(383,127,o),
(334,189,o),
(233,189,cs),
(87,189,ls),
(-14,189,o),
(-63,127,o),
(-63,64,cs),
(-63,2,o),
(-14,-61,o),
(87,-61,cs)
);
}
);
};
layerId = "164C8123-3F0E-4C99-877D-0E85C432A9CE";
shapes = (
{
closed = 1;
nodes = (
(17,-61,o),
(-63,13,o),
(-63,115,o),
(17,189,o),
(87,189,qs),
(233,189,ls),
(303,189,o),
(383,115,o),
(383,13,o),
(303,-61,o),
(233,-61,qs),
(87,-61,ls)
);
}
);
width = 512;
},
{
background = {
shapes = (
{
closed = 1;
nodes = (
(401,54,ls),
(409,54,o),
(413,59,o),
(413,64,cs),
(413,69,o),
(409,74,o),
(401,74,cs),
(-81,74,ls),
(-89,74,o),
(-93,69,o),
(-93,64,cs),
(-93,59,o),
(-89,54,o),
(-81,54,cs)
);
}
);
};
layerId = "EDC3ADDC-530C-4ECE-AAC6-732B149A8D4A";
shapes = (
{
closed = 1;
nodes = (
(-87,54,o),
(-93,60,o),
(-93,68,o),
(-87,74,o),
(-81,74,qs),
(401,74,ls),
(407,74,o),
(413,68,o),
(413,60,o),
(407,54,o),
(401,54,qs),
(-81,54,ls)
);
}
);
width = 512;
},
{
background = {
shapes = (
{
closed = 1;
nodes = (
(295,-61,ls),
(396,-61,o),
(445,2,o),
(445,64,cs),
(445,127,o),
(396,189,o),
(295,189,cs),
(25,189,ls),
(-76,189,o),
(-125,127,o),
(-125,64,cs),
(-125,2,o),
(-76,-61,o),
(25,-61,cs)
);
}
);
};
layerId = "38088322-78A3-4F4F-B46E-F8355B0BCD96";
shapes = (
{
closed = 1;
nodes = (
(-45,-61,o),
(-125,13,o),
(-125,115,o),
(-45,189,o),
(25,189,qs),
(295,189,ls),
(365,189,o),
(445,115,o),
(445,13,o),
(365,-61,o),
(295,-61,qs),
(25,-61,ls)
);
}
);
width = 512;
}
);
},
{
color = 5;
glyphname = pixel.6;
layers = (
{
background = {
shapes = (
{
closed = 1;
nodes = (
(377,54,ls),
(385,54,o),
(389,59,o),
(389,64,cs),
(389,69,o),
(385,74,o),
(377,74,cs),
(7,74,ls),
(-1,74,o),
(-5,69,o),
(-5,64,cs),
(-5,59,o),
(-1,54,o),
(7,54,cs)
);
}
);
};
layerId = "EF047752-ED93-49D3-A4D1-D66A6AAE90C7";
shapes = (
{
closed = 1;
nodes = (
(1,54,o),
(-5,60,o),
(-5,68,o),
(1,74,o),
(7,74,qs),
(377,74,ls),
(383,74,o),
(389,68,o),
(389,60,o),
(383,54,o),
(377,54,qs),
(7,54,ls)
);
}
);
width = 512;
},
{
background = {
shapes = (
{
closed = 1;
nodes = (
(297,-61,ls),
(398,-61,o),
(447,2,o),
(447,64,cs),
(447,127,o),
(398,189,o),
(297,189,cs),
(87,189,ls),
(-14,189,o),
(-63,127,o),
(-63,64,cs),
(-63,2,o),
(-14,-61,o),
(87,-61,cs)
);
}
);
};
layerId = "164C8123-3F0E-4C99-877D-0E85C432A9CE";
shapes = (
{
closed = 1;
nodes = (
(17,-61,o),
(-63,13,o),
(-63,115,o),
(17,189,o),
(87,189,qs),
(297,189,ls),
(367,189,o),
(447,115,o),
(447,13,o),
(367,-61,o),
(297,-61,qs),
(87,-61,ls)
);
}
);
width = 512;
},
{
background = {
shapes = (
{
closed = 1;
nodes = (
(465,54,ls),
(473,54,o),
(477,59,o),
(477,64,cs),
(477,69,o),
(473,74,o),
(465,74,cs),
(-81,74,ls),
(-89,74,o),
(-93,69,o),
(-93,64,cs),
(-93,59,o),
(-89,54,o),
(-81,54,cs)
);
}
);
};
layerId = "EDC3ADDC-530C-4ECE-AAC6-732B149A8D4A";
shapes = (
{
closed = 1;
nodes = (
(-87,54,o),
(-93,60,o),
(-93,68,o),
(-87,74,o),
(-81,74,qs),
(465,74,ls),
(471,74,o),
(477,68,o),
(477,60,o),
(471,54,o),
(465,54,qs),
(-81,54,ls)
);
}
);
width = 512;
},
{
background = {
shapes = (
{
closed = 1;
nodes = (
(359,-61,ls),
(460,-61,o),
(509,2,o),
(509,64,cs),
(509,127,o),
(460,189,o),
(359,189,cs),
(25,189,ls),
(-76,189,o),
(-125,127,o),
(-125,64,cs),
(-125,2,o),
(-76,-61,o),
(25,-61,cs)
);
}
);
};
layerId = "38088322-78A3-4F4F-B46E-F8355B0BCD96";
shapes = (
{
closed = 1;
nodes = (
(-45,-61,o),
(-125,13,o),
(-125,115,o),
(-45,189,o),
(25,189,qs),
(359,189,ls),
(429,189,o),
(509,115,o),
(509,13,o),
(429,-61,o),
(359,-61,qs),
(25,-61,ls)
);
}
);
width = 512;
}
);
},
{
color = 5;
glyphname = pixel.7;
layers = (
{
background = {
shapes = (
{
closed = 1;
nodes = (
(441,54,ls),
(449,54,o),
(453,59,o),
(453,64,cs),
(453,69,o),
(449,74,o),
(441,74,cs),
(7,74,ls),
(-1,74,o),
(-5,69,o),
(-5,64,cs),
(-5,59,o),
(-1,54,o),
(7,54,cs)
);
}
);
};
layerId = "EF047752-ED93-49D3-A4D1-D66A6AAE90C7";
shapes = (
{
closed = 1;
nodes = (
(1,54,o),
(-5,60,o),
(-5,68,o),
(1,74,o),
(7,74,qs),
(441,74,ls),
(447,74,o),
(453,68,o),
(453,60,o),
(447,54,o),
(441,54,qs),
(7,54,ls)
);
}
);
width = 512;
},
{
background = {
shapes = (
{
closed = 1;
nodes = (
(361,-61,ls),
(462,-61,o),
(511,2,o),
(511,64,cs),
(511,127,o),
(462,189,o),
(361,189,cs),
(87,189,ls),
(-14,189,o),
(-63,127,o),
(-63,64,cs),
(-63,2,o),
(-14,-61,o),
(87,-61,cs)
);
}
);
};
layerId = "164C8123-3F0E-4C99-877D-0E85C432A9CE";
shapes = (
{
closed = 1;
nodes = (
(17,-61,o),
(-63,13,o),
(-63,115,o),
(17,189,o),
(87,189,qs),
(361,189,ls),
(431,189,o),
(511,115,o),
(511,13,o),
(431,-61,o),
(361,-61,qs),
(87,-61,ls)
);
}
);
width = 512;
},
{
background = {
shapes = (
{
closed = 1;
nodes = (
(529,54,ls),
(537,54,o),
(541,59,o),
(541,64,cs),
(541,69,o),
(537,74,o),
(529,74,cs),
(-81,74,ls),
(-89,74,o),
(-93,69,o),
(-93,64,cs),
(-93,59,o),
(-89,54,o),
(-81,54,cs)
);
}
);
};
layerId = "EDC3ADDC-530C-4ECE-AAC6-732B149A8D4A";
shapes = (
{
closed = 1;
nodes = (
(-87,54,o),
(-93,60,o),
(-93,68,o),
(-87,74,o),
(-81,74,qs),
(529,74,ls),
(535,74,o),
(541,68,o),
(541,60,o),
(535,54,o),
(529,54,qs),
(-81,54,ls)
);
}
);
width = 512;
},
{
background = {
shapes = (
{
closed = 1;
nodes = (
(423,-61,ls),
(524,-61,o),
(573,2,o),
(573,64,cs),
(573,127,o),
(524,189,o),
(423,189,cs),
(25,189,ls),
(-76,189,o),
(-125,127,o),
(-125,64,cs),
(-125,2,o),
(-76,-61,o),
(25,-61,cs)
);
}
);
};
layerId = "38088322-78A3-4F4F-B46E-F8355B0BCD96";
shapes = (
{
closed = 1;
nodes = (
(-45,-61,o),
(-125,13,o),
(-125,115,o),
(-45,189,o),
(25,189,qs),
(423,189,ls),
(493,189,o),
(573,115,o),
(573,13,o),
(493,-61,o),
(423,-61,qs),
(25,-61,ls)
);
}
);
width = 512;
}
);
},
{
color = 5;
glyphname = pixel.8;
layers = (
{
background = {
shapes = (
{
closed = 1;
nodes = (
(505,54,ls),
(513,54,o),
(517,59,o),
(517,64,cs),
(517,69,o),
(513,74,o),
(505,74,cs),
(7,74,ls),
(-1,74,o),
(-5,69,o),
(-5,64,cs),
(-5,59,o),
(-1,54,o),
(7,54,cs)
);
}
